<svg width="821" height="141" viewBox="0 0 821 141" fill="none" xmlns="http://www.w3.org/2000/svg">
<path d="M23.4178 127.12C24.1645 126.587 24.6711 126.373 24.9378 126.48C25.2578 126.587 25.2845 127.013 25.0178 127.76L24.2978 129.92C24.0845 130.667 23.6845 131.227 23.0978 131.6L10.5378 139.28C9.57781 139.867 9.15115 139.653 9.25781 138.64L9.49781 137.28C9.65781 136.64 10.0311 136.08 10.6178 135.6L23.4178 127.12ZM23.1778 119.92C24.5111 119.067 25.0178 119.28 24.6978 120.56L24.2178 122.4C23.9511 123.2 23.4445 123.813 22.6978 124.24L9.89781 131.68C8.35115 132.587 7.87115 132.347 8.45781 130.96L9.09781 129.6C9.20448 129.28 9.33781 128.987 9.49781 128.72C9.65781 128.507 9.87115 128.32 10.1378 128.16L23.1778 119.92ZM34.9378 82.8C35.7911 83.0667 36.3245 83.76 36.5378 84.88C36.8045 86.16 36.7778 87.3333 36.4578 88.4C36.1378 89.4667 35.6311 90 34.9378 90C31.4711 89.7867 29.0978 86.88 27.8178 81.28C27.6045 80.3733 27.4445 79.7067 27.3378 79.28C27.2311 78.8 27.1778 78.56 27.1778 78.56C27.0178 78.1333 26.8578 78.16 26.6978 78.64C24.9911 83.1733 22.8578 85.9467 20.2978 86.96C17.0445 88.2933 12.5645 88.7733 6.85781 88.4C2.43115 88.08 1.28448 84.5867 3.41781 77.92C3.68448 77.12 4.08448 76.6933 4.61781 76.64C5.15115 76.5867 5.52448 76.9333 5.73781 77.68C6.21781 79.2267 6.93781 80.1067 7.89781 80.32C13.0711 81.44 17.7378 81.1733 21.8978 79.52C23.9245 78.72 25.2845 77.2267 25.9778 75.04C26.0311 74.72 25.6578 71.8667 24.8578 66.48C24.4845 63.8133 24.1911 61.6533 23.9778 60C23.7645 58.2933 23.6045 57.1467 23.4978 56.56C23.3378 55.3867 23.4178 54.48 23.7378 53.84C24.1645 52.9333 24.5378 52.16 24.8578 51.52C25.1778 50.8267 25.4178 50.2667 25.5778 49.84C25.7378 49.4133 26.0045 49.2267 26.3778 49.28C26.8045 49.3867 27.0445 49.6533 27.0978 50.08C27.7378 55.68 28.4045 60.72 29.0978 65.2C29.8445 69.6267 30.5911 73.4933 31.3378 76.8C32.1378 80.4267 33.3378 82.4267 34.9378 82.8ZM36.2578 7.16L50.6578 0.759996C51.6178 0.386665 52.0445 0.599998 51.9378 1.4L51.6178 4.11999C51.5111 4.70666 51.2711 5.07999 50.8978 5.24L36.8178 10.12C35.6445 10.4933 35.1378 10.2 35.2978 9.24L35.4578 8.12C35.5111 7.69333 35.7778 7.37333 36.2578 7.16ZM48.5659 14.4C48.6726 13.44 48.9926 13.0133 49.5259 13.12C50.1659 13.1733 50.4593 13.6 50.4059 14.4C50.2993 16.64 49.8726 18.56 49.1259 20.16C48.2726 21.9733 47.0726 22.9333 45.5259 23.04C44.5659 23.1467 43.6326 22.64 42.7259 21.52C42.4593 22.0533 42.1126 22.5333 41.6859 22.96C41.2593 23.3333 40.8059 23.6533 40.3259 23.92C39.2059 24.5067 38.1393 24.56 37.1259 24.08C34.6726 23.0667 34.4059 20.08 36.3259 15.12C36.6459 14.3733 37.0993 14.1333 37.6859 14.4C38.1659 14.6133 38.2993 15.0667 38.0859 15.76C37.3926 18.2667 37.7126 19.6267 39.0459 19.84C40.6459 20 41.9259 18.2667 42.8859 14.64C43.0459 13.8933 43.3659 13.6 43.8459 13.76C44.4326 13.8667 44.6459 14.1867 44.4859 14.72C44.1126 16.8533 44.6459 17.92 46.0859 17.92C47.4726 17.92 48.2993 16.7467 48.5659 14.4ZM43.4741 76C44.3807 74.1867 45.4741 72.8 46.7541 71.84C47.0207 71.68 47.3674 71.5467 47.7941 71.44C48.2741 71.3333 48.8607 71.2533 49.5541 71.2C52.4874 70.8267 54.8874 71.8133 56.7541 74.16C58.9941 76.9867 59.9274 79.28 59.5541 81.04C59.0741 83.1733 58.3007 84.96 57.2341 86.4C57.0207 86.72 56.8074 86.88 56.5941 86.88C51.5807 86.56 46.8607 84.96 42.4341 82.08C40.0341 87.36 37.5274 90 34.9141 90C34.1674 90 33.6341 89.4133 33.3141 88.24C32.3007 84.6133 32.8341 82.8 34.9141 82.8C37.7407 82.8 39.9274 81.9467 41.4741 80.24C41.6874 79.76 41.9541 79.1733 42.2741 78.48C42.5941 77.7333 42.9941 76.9067 43.4741 76ZM52.5141 76.56C49.4207 74.64 47.2341 74.64 45.9541 76.56C49.5274 78.5867 52.8341 79.7333 55.8741 80C55.3941 78.8267 54.2741 77.68 52.5141 76.56ZM67.9028 10.04C69.0761 9.29333 69.5028 9.53333 69.1828 10.76L68.4628 13.08C68.3028 13.6667 67.7695 14.2267 66.8628 14.76L52.8628 22.84C52.0095 23.32 51.5828 23.1067 51.5828 22.2V21C51.5828 20.5733 52.0095 20.0133 52.8628 19.32L67.9028 10.04ZM43.6997 63.76C44.9797 60.1867 46.0464 58.08 46.8997 57.44C47.8064 56.8 49.4597 56.6667 51.8597 57.04C54.3664 57.4667 57.113 58.2133 60.0997 59.28C63.2464 60.4 66.0464 61.36 68.4997 62.16C73.7797 63.8133 80.5797 65.0133 88.8997 65.76C90.2864 65.8667 90.713 66.3467 90.1797 67.2L87.0597 72.4C86.8997 72.72 86.4464 72.8 85.6997 72.64C79.6197 71.68 74.1797 71.2 69.3797 71.2C64.5797 71.2 60.4197 71.7333 56.8997 72.8C50.9797 74.4533 47.4864 74.2133 46.4197 72.08C49.2997 70.16 54.5797 68.7733 62.2597 67.92C60.6064 67.1733 59.033 66.56 57.5397 66.08C56.0997 65.5467 54.713 65.1467 53.3797 64.88C52.0464 64.6133 50.6064 64.4267 49.0597 64.32C47.513 64.2133 45.8597 64.2133 44.0997 64.32C43.673 64.32 43.5397 64.1333 43.6997 63.76ZM79.9391 0.519997C80.6857 0.413331 81.3524 0.813331 81.9391 1.72C83.1657 3.58666 83.1657 6.06666 81.9391 9.16C82.3657 9.37333 82.6857 9.58666 82.8991 9.79999C83.1657 9.95999 83.4057 10.0667 83.6191 10.12C84.2591 10.3867 84.3924 10.8667 84.0191 11.56L83.2191 13.08C82.9524 13.56 82.6057 13.72 82.1791 13.56C81.6457 13.4 81.0057 13.1067 80.2591 12.68C76.8991 17.0533 73.1124 20.28 68.8991 22.36C68.0457 22.84 67.4324 22.7867 67.0591 22.2C66.6857 21.4533 67.0057 20.8133 68.0191 20.28C72.3391 17.7733 75.7791 14.8667 78.3391 11.56C76.9524 10.8133 75.9391 10.1467 75.2991 9.56C74.1791 8.49333 73.8857 7.31999 74.4191 6.04C75.7524 2.73333 77.5924 0.893328 79.9391 0.519997ZM79.1391 5.15999C78.0724 4.19999 77.2191 4.27999 76.5791 5.4C76.3657 5.66666 76.4724 6.01333 76.8991 6.44C77.3791 6.91999 78.3924 7.53333 79.9391 8.28C80.1524 6.78666 79.8857 5.74666 79.1391 5.15999ZM74.6847 52.32C65.938 52.5867 57.618 55.0933 49.7247 59.84C46.898 61.4933 45.7514 60.9067 46.2847 58.08C46.338 57.92 46.4714 57.7333 46.6847 57.52C52.1247 53.68 59.5914 50.5067 69.0847 48L67.5647 45.76C67.0847 45.0133 67.0047 44.2667 67.3247 43.52C68.818 40.4267 70.0714 38.32 71.0847 37.2C71.778 36.4 72.4447 36.2133 73.0847 36.64C77.0314 38.7733 79.858 40.6933 81.5647 42.4C82.098 42.9333 82.2047 43.7333 81.8847 44.8C81.4047 46.2933 80.0714 48.4 77.8847 51.12C77.298 51.8667 76.2314 52.2667 74.6847 52.32ZM146.028 116.08C147.201 115.333 147.628 115.573 147.308 116.8L146.588 119.12C146.428 119.707 145.894 120.267 144.988 120.8L130.988 128.88C130.134 129.36 129.708 129.147 129.708 128.24V127.04C129.708 126.613 130.134 126.053 130.988 125.36L146.028 116.08ZM153.751 30.48C153.911 30.1067 154.178 29.92 154.551 29.92C154.924 29.92 155.191 30.16 155.351 30.64C156.311 33.2533 157.404 35.2 158.631 36.48C159.111 36.96 159.084 37.6 158.551 38.4C158.284 38.7733 158.044 39.12 157.831 39.44C157.618 39.76 157.431 40.0267 157.271 40.24C156.951 40.6133 156.791 41.1467 156.791 41.84C156.898 43.6 157.084 45.7067 157.351 48.16C157.618 50.56 157.938 53.3067 158.311 56.4C158.738 59.4933 159.058 62.24 159.271 64.64C159.538 66.9867 159.724 69.0133 159.831 70.72C160.258 76.16 159.538 81.04 157.671 85.36C156.551 88.08 153.751 90.4 149.271 92.32C144.738 94.24 140.738 95.1733 137.271 95.12C126.978 94.96 121.804 90.48 121.751 81.68C121.698 75.8667 123.724 70.2933 127.831 64.96C128.098 64.5867 128.391 64.4533 128.711 64.56C129.084 64.6667 129.298 64.8533 129.351 65.12C129.458 65.4933 129.404 65.84 129.191 66.16C126.364 71.28 125.058 74.9867 125.271 77.28C126.018 83.84 130.898 86.96 139.911 86.64C147.644 86.3733 153.218 84.0533 156.631 79.68C156.578 77.9733 156.391 75.6533 156.071 72.72C155.804 69.7333 155.378 66.1067 154.791 61.84C154.258 57.5733 153.778 53.44 153.351 49.44C152.924 45.44 152.578 41.5733 152.311 37.84L151.991 35.12C151.991 34.6933 152.071 34.32 152.231 34L153.751 30.48ZM172.034 36.4C173.154 33.7867 173.874 33.7333 174.194 36.24L176.034 55.84C178.061 73.4933 177.821 84.6933 175.314 89.44C174.941 90.08 174.647 90.24 174.434 89.92C174.221 89.6533 174.114 89.2 174.114 88.56C174.221 84.08 173.901 79.04 173.154 73.44C173.154 73.2267 172.594 68.16 171.474 58.24L169.714 43.76C169.607 42.6933 169.714 41.7867 170.034 41.04L172.034 36.4ZM187.074 17.44C188.034 17.2267 188.674 17.52 188.994 18.32C189.314 19.12 189.074 19.7867 188.274 20.32C182.514 24.0533 173.207 25.7333 160.354 25.36C159.874 26.3733 159.394 27.1733 158.914 27.76C158.487 28.2933 158.114 28.4 157.794 28.08L154.034 24.24C153.287 23.6 154.114 21.8933 156.514 19.12C156.994 18.64 157.741 18.48 158.754 18.64C168.247 20.1867 177.687 19.7867 187.074 17.44ZM241.377 95.36C241.911 94.88 242.337 94.48 242.657 94.16C243.031 93.8933 243.271 93.68 243.377 93.52C250.044 94.4267 254.151 95.4933 255.697 96.72C257.191 97.9467 257.991 98.8267 258.097 99.36C258.257 101.44 257.991 103.44 257.297 105.36C256.604 107.333 255.484 108.907 253.937 110.08C251.697 111.84 249.351 113.36 246.897 114.64C244.497 115.973 241.937 117.04 239.217 117.84C233.831 119.44 228.497 119.707 223.217 118.64C219.537 117.84 216.551 116.133 214.257 113.52C208.497 107.013 209.857 96.5067 218.337 82C218.551 81.6267 218.817 81.44 219.137 81.44C219.511 81.44 219.777 81.5733 219.937 81.84C220.151 82.1067 220.124 82.4533 219.857 82.88C218.471 85.3333 217.324 87.5467 216.417 89.52C215.564 91.44 215.004 93.1733 214.737 94.72C214.204 97.76 214.764 100.88 216.417 104.08C218.071 107.227 220.577 109.28 223.937 110.24C227.244 111.093 230.844 111.28 234.737 110.8C238.631 110.373 242.764 109.2 247.137 107.28C250.551 105.733 253.137 104 254.897 102.08C253.084 100.96 248.417 99.76 240.897 98.48L241.377 95.36ZM249.153 10.04C250.326 9.29333 250.753 9.53333 250.433 10.76L249.713 13.08C249.553 13.6667 249.019 14.2267 248.113 14.76L234.113 22.84C233.259 23.32 232.833 23.1067 232.833 22.2V21C232.833 20.5733 233.259 20.0133 234.113 19.32L249.153 10.04ZM244.477 35.2C244.584 34.88 244.877 34.6933 245.357 34.64C245.837 34.5867 246.104 34.7467 246.157 35.12C248.344 51.8133 249.944 62.4267 250.957 66.96C253.037 75.9733 255.651 81.2533 258.797 82.8C260.771 83.8133 261.411 85.5467 260.717 88C260.344 89.4933 259.704 90.16 258.797 90C255.544 89.6267 252.504 85.9733 249.677 79.04C249.357 84.96 248.077 89.92 245.837 93.92C245.304 94.9333 244.504 95.8933 243.437 96.8C242.371 97.7067 241.517 98.2667 240.877 98.48L241.357 95.36C243.544 93.6533 245.144 91.4933 246.157 88.88C247.224 86.16 247.517 81.3867 247.037 74.56C247.037 74.1867 246.877 72.8533 246.557 70.56C246.237 68.2133 245.784 64.9333 245.197 60.72L242.957 45.36C242.904 44.8267 242.877 44.2933 242.877 43.76C242.824 43.1733 242.824 42.5867 242.877 42C242.931 41.4133 243.091 40.56 243.357 39.44C243.624 38.2667 243.997 36.8533 244.477 35.2ZM273.684 10.04C274.857 9.29333 275.284 9.53333 274.964 10.76L274.244 13.08C274.084 13.6667 273.551 14.2267 272.644 14.76L258.644 22.84C257.791 23.32 257.364 23.1067 257.364 22.2V21C257.364 20.5733 257.791 20.0133 258.644 19.32L273.684 10.04ZM285.702 76.96L283.542 81.76C283.169 82.4533 282.822 82.9067 282.502 83.12C280.902 84.2933 279.062 85.3333 276.982 86.24C274.902 87.0933 272.609 87.8667 270.102 88.56C265.249 89.8933 261.462 90.3733 258.742 90C257.409 89.7333 256.849 88.4533 257.062 86.16C257.276 84.08 257.729 82.96 258.422 82.8C258.529 82.8 258.636 82.8 258.742 82.8C259.542 82.9067 260.316 82.9067 261.062 82.8C259.622 80.9867 258.769 78.7733 258.502 76.16C258.022 71.4133 259.222 67.6533 262.102 64.88C265.302 61.7333 268.369 59.8933 271.302 59.36C274.289 58.7733 278.129 60.56 282.822 64.72C283.462 65.2533 283.569 65.8667 283.142 66.56C282.769 67.2 282.209 67.36 281.462 67.04C276.449 65.12 271.409 65.0667 266.342 66.88C264.102 67.68 262.796 68.6667 262.422 69.84C261.996 71.0667 262.689 73.0933 264.502 75.92C266.422 78.9067 268.129 80.56 269.622 80.88C272.982 81.5733 276.369 80.8267 279.782 78.64L282.102 77.04C283.862 75.8133 284.982 75.44 285.462 75.92C285.782 76.24 285.862 76.5867 285.702 76.96ZM312.747 10.04C313.92 9.29333 314.347 9.53333 314.027 10.76L313.307 13.08C313.147 13.6667 312.613 14.2267 311.707 14.76L297.707 22.84C296.853 23.32 296.427 23.1067 296.427 22.2V21C296.427 20.5733 296.853 20.0133 297.707 19.32L312.747 10.04ZM303.434 74.48C305.301 69.3067 307.487 66.7467 309.994 66.8C311.541 66.8 312.981 67.8667 314.314 70C315.007 71.0667 315.541 72.1867 315.914 73.36C316.287 74.5333 316.581 75.7867 316.794 77.12C317.221 79.7867 316.821 83.4933 315.594 88.24C314.367 92.9867 312.021 97.3333 308.554 101.28C305.034 105.28 302.234 107.387 300.154 107.6C298.021 107.813 295.194 107.653 291.674 107.12C289.914 106.853 288.421 106.533 287.194 106.16C285.914 105.84 284.874 105.52 284.074 105.2C283.487 104.933 283.221 104.613 283.274 104.24C283.381 103.813 283.727 103.653 284.314 103.76C288.474 104.347 292.447 104.187 296.234 103.28C297.354 103.013 298.714 102.347 300.314 101.28C301.967 100.213 303.861 98.7467 305.994 96.88C308.127 95.0133 309.834 93.3067 311.114 91.76C312.394 90.2133 313.221 88.8 313.594 87.52C313.327 85.28 313.007 84.0533 312.634 83.84C310.607 86.9867 308.021 87.76 304.874 86.16C301.727 84.56 301.247 80.6667 303.434 74.48ZM310.714 77.44C309.167 74.9333 307.514 74.8267 305.754 77.12C307.087 78.6133 308.741 78.72 310.714 77.44ZM371.465 127.12C372.211 126.587 372.718 126.373 372.985 126.48C373.305 126.587 373.331 127.013 373.065 127.76L372.345 129.92C372.131 130.667 371.731 131.227 371.145 131.6L358.585 139.28C357.625 139.867 357.198 139.653 357.305 138.64L357.545 137.28C357.705 136.64 358.078 136.08 358.665 135.6L371.465 127.12ZM371.225 119.92C372.558 119.067 373.065 119.28 372.745 120.56L372.265 122.4C371.998 123.2 371.491 123.813 370.745 124.24L357.945 131.68C356.398 132.587 355.918 132.347 356.505 130.96L357.145 129.6C357.251 129.28 357.385 128.987 357.545 128.72C357.705 128.507 357.918 128.32 358.185 128.16L371.225 119.92ZM382.985 82.8C383.838 83.0667 384.371 83.76 384.585 84.88C384.851 86.16 384.825 87.3333 384.505 88.4C384.185 89.4667 383.678 90 382.985 90C379.518 89.7867 377.145 86.88 375.865 81.28C375.651 80.3733 375.491 79.7067 375.385 79.28C375.278 78.8 375.225 78.56 375.225 78.56C375.065 78.1333 374.905 78.16 374.745 78.64C373.038 83.1733 370.905 85.9467 368.345 86.96C365.091 88.2933 360.611 88.7733 354.905 88.4C350.478 88.08 349.331 84.5867 351.465 77.92C351.731 77.12 352.131 76.6933 352.665 76.64C353.198 76.5867 353.571 76.9333 353.785 77.68C354.265 79.2267 354.985 80.1067 355.945 80.32C361.118 81.44 365.785 81.1733 369.945 79.52C371.971 78.72 373.331 77.2267 374.025 75.04C374.078 74.72 373.705 71.8667 372.905 66.48C372.531 63.8133 372.238 61.6533 372.025 60C371.811 58.2933 371.651 57.1467 371.545 56.56C371.385 55.3867 371.465 54.48 371.785 53.84C372.211 52.9333 372.585 52.16 372.905 51.52C373.225 50.8267 373.465 50.2667 373.625 49.84C373.785 49.4133 374.051 49.2267 374.425 49.28C374.851 49.3867 375.091 49.6533 375.145 50.08C375.785 55.68 376.451 60.72 377.145 65.2C377.891 69.6267 378.638 73.4933 379.385 76.8C380.185 80.4267 381.385 82.4267 382.985 82.8ZM384.305 7.16L398.705 0.759996C399.665 0.386665 400.091 0.599998 399.985 1.4L399.665 4.11999C399.558 4.70666 399.318 5.07999 398.945 5.24L384.865 10.12C383.691 10.4933 383.185 10.2 383.345 9.24L383.505 8.12C383.558 7.69333 383.825 7.37333 384.305 7.16ZM396.613 14.4C396.719 13.44 397.039 13.0133 397.573 13.12C398.213 13.1733 398.506 13.6 398.453 14.4C398.346 16.64 397.919 18.56 397.173 20.16C396.319 21.9733 395.119 22.9333 393.573 23.04C392.613 23.1467 391.679 22.64 390.773 21.52C390.506 22.0533 390.159 22.5333 389.733 22.96C389.306 23.3333 388.853 23.6533 388.373 23.92C387.253 24.5067 386.186 24.56 385.173 24.08C382.719 23.0667 382.453 20.08 384.373 15.12C384.693 14.3733 385.146 14.1333 385.733 14.4C386.213 14.6133 386.346 15.0667 386.133 15.76C385.439 18.2667 385.759 19.6267 387.093 19.84C388.693 20 389.973 18.2667 390.933 14.64C391.093 13.8933 391.413 13.6 391.893 13.76C392.479 13.8667 392.693 14.1867 392.533 14.72C392.159 16.8533 392.693 17.92 394.133 17.92C395.519 17.92 396.346 16.7467 396.613 14.4ZM391.521 76C392.428 74.1867 393.521 72.8 394.801 71.84C395.068 71.68 395.414 71.5467 395.841 71.44C396.321 71.3333 396.908 71.2533 397.601 71.2C400.534 70.8267 402.934 71.8133 404.801 74.16C407.041 76.9867 407.974 79.28 407.601 81.04C407.121 83.1733 406.348 84.96 405.281 86.4C405.068 86.72 404.854 86.88 404.641 86.88C399.628 86.56 394.908 84.96 390.481 82.08C388.081 87.36 385.574 90 382.961 90C382.214 90 381.681 89.4133 381.361 88.24C380.348 84.6133 380.881 82.8 382.961 82.8C385.788 82.8 387.974 81.9467 389.521 80.24C389.734 79.76 390.001 79.1733 390.321 78.48C390.641 77.7333 391.041 76.9067 391.521 76ZM400.561 76.56C397.468 74.64 395.281 74.64 394.001 76.56C397.574 78.5867 400.881 79.7333 403.921 80C403.441 78.8267 402.321 77.68 400.561 76.56ZM415.95 10.04C417.123 9.29333 417.55 9.53333 417.23 10.76L416.51 13.08C416.35 13.6667 415.816 14.2267 414.91 14.76L400.91 22.84C400.056 23.32 399.63 23.1067 399.63 22.2V21C399.63 20.5733 400.056 20.0133 400.91 19.32L415.95 10.04ZM391.747 63.76C393.027 60.1867 394.093 58.08 394.947 57.44C395.853 56.8 397.507 56.6667 399.907 57.04C402.413 57.4667 405.16 58.2133 408.147 59.28C411.293 60.4 414.093 61.36 416.547 62.16C421.827 63.8133 428.627 65.0133 436.947 65.76C438.333 65.8667 438.76 66.3467 438.227 67.2L435.107 72.4C434.947 72.72 434.493 72.8 433.747 72.64C427.667 71.68 422.227 71.2 417.427 71.2C412.627 71.2 408.467 71.7333 404.947 72.8C399.027 74.4533 395.533 74.2133 394.467 72.08C397.347 70.16 402.627 68.7733 410.307 67.92C408.653 67.1733 407.08 66.56 405.587 66.08C404.147 65.5467 402.76 65.1467 401.427 64.88C400.093 64.6133 398.653 64.4267 397.107 64.32C395.56 64.2133 393.907 64.2133 392.147 64.32C391.72 64.32 391.587 64.1333 391.747 63.76ZM427.986 0.519997C428.733 0.413331 429.399 0.813331 429.986 1.72C431.213 3.58666 431.213 6.06666 429.986 9.16C430.413 9.37333 430.733 9.58666 430.946 9.79999C431.213 9.95999 431.453 10.0667 431.666 10.12C432.306 10.3867 432.439 10.8667 432.066 11.56L431.266 13.08C430.999 13.56 430.653 13.72 430.226 13.56C429.693 13.4 429.053 13.1067 428.306 12.68C424.946 17.0533 421.159 20.28 416.946 22.36C416.093 22.84 415.479 22.7867 415.106 22.2C414.733 21.4533 415.053 20.8133 416.066 20.28C420.386 17.7733 423.826 14.8667 426.386 11.56C424.999 10.8133 423.986 10.1467 423.346 9.56C422.226 8.49333 421.933 7.31999 422.466 6.04C423.799 2.73333 425.639 0.893328 427.986 0.519997ZM427.186 5.15999C426.119 4.19999 425.266 4.27999 424.626 5.4C424.413 5.66666 424.519 6.01333 424.946 6.44C425.426 6.91999 426.439 7.53333 427.986 8.28C428.199 6.78666 427.933 5.74666 427.186 5.15999ZM422.732 52.32C413.985 52.5867 405.665 55.0933 397.772 59.84C394.945 61.4933 393.798 60.9067 394.332 58.08C394.385 57.92 394.518 57.7333 394.732 57.52C400.172 53.68 407.638 50.5067 417.132 48L415.612 45.76C415.132 45.0133 415.052 44.2667 415.372 43.52C416.865 40.4267 418.118 38.32 419.132 37.2C419.825 36.4 420.492 36.2133 421.132 36.64C425.078 38.7733 427.905 40.6933 429.612 42.4C430.145 42.9333 430.252 43.7333 429.932 44.8C429.452 46.2933 428.118 48.4 425.932 51.12C425.345 51.8667 424.278 52.2667 422.732 52.32ZM500.518 95.36C501.051 94.88 501.478 94.48 501.798 94.16C502.171 93.8933 502.411 93.68 502.518 93.52C509.184 94.4267 513.291 95.4933 514.838 96.72C516.331 97.9467 517.131 98.8267 517.238 99.36C517.398 101.44 517.131 103.44 516.438 105.36C515.744 107.333 514.624 108.907 513.078 110.08C510.838 111.84 508.491 113.36 506.038 114.64C503.638 115.973 501.078 117.04 498.358 117.84C492.971 119.44 487.638 119.707 482.358 118.64C478.678 117.84 475.691 116.133 473.398 113.52C467.638 107.013 468.998 96.5067 477.478 82C477.691 81.6267 477.958 81.44 478.278 81.44C478.651 81.44 478.918 81.5733 479.078 81.84C479.291 82.1067 479.264 82.4533 478.998 82.88C477.611 85.3333 476.464 87.5467 475.558 89.52C474.704 91.44 474.144 93.1733 473.878 94.72C473.344 97.76 473.904 100.88 475.558 104.08C477.211 107.227 479.718 109.28 483.078 110.24C486.384 111.093 489.984 111.28 493.878 110.8C497.771 110.373 501.904 109.2 506.278 107.28C509.691 105.733 512.278 104 514.038 102.08C512.224 100.96 507.558 99.76 500.038 98.48L500.518 95.36ZM508.293 10.04C509.467 9.29333 509.893 9.53333 509.573 10.76L508.853 13.08C508.693 13.6667 508.16 14.2267 507.253 14.76L493.253 22.84C492.4 23.32 491.973 23.1067 491.973 22.2V21C491.973 20.5733 492.4 20.0133 493.253 19.32L508.293 10.04ZM503.618 35.2C503.724 34.88 504.018 34.6933 504.498 34.64C504.978 34.5867 505.244 34.7467 505.298 35.12C507.484 51.8133 509.084 62.4267 510.098 66.96C512.178 75.9733 514.791 81.2533 517.938 82.8C519.911 83.8133 520.551 85.5467 519.858 88C519.484 89.4933 518.844 90.16 517.938 90C514.684 89.6267 511.644 85.9733 508.818 79.04C508.498 84.96 507.218 89.92 504.978 93.92C504.444 94.9333 503.644 95.8933 502.578 96.8C501.511 97.7067 500.658 98.2667 500.018 98.48L500.498 95.36C502.684 93.6533 504.284 91.4933 505.298 88.88C506.364 86.16 506.658 81.3867 506.178 74.56C506.178 74.1867 506.018 72.8533 505.698 70.56C505.378 68.2133 504.924 64.9333 504.338 60.72L502.098 45.36C502.044 44.8267 502.018 44.2933 502.018 43.76C501.964 43.1733 501.964 42.5867 502.018 42C502.071 41.4133 502.231 40.56 502.498 39.44C502.764 38.2667 503.138 36.8533 503.618 35.2ZM532.825 10.04C533.998 9.29333 534.425 9.53333 534.105 10.76L533.385 13.08C533.225 13.6667 532.691 14.2267 531.785 14.76L517.785 22.84C516.931 23.32 516.505 23.1067 516.505 22.2V21C516.505 20.5733 516.931 20.0133 517.785 19.32L532.825 10.04ZM544.843 76.96L542.683 81.76C542.309 82.4533 541.963 82.9067 541.643 83.12C540.043 84.2933 538.203 85.3333 536.123 86.24C534.043 87.0933 531.749 87.8667 529.243 88.56C524.389 89.8933 520.603 90.3733 517.883 90C516.549 89.7333 515.989 88.4533 516.203 86.16C516.416 84.08 516.869 82.96 517.563 82.8C517.669 82.8 517.776 82.8 517.883 82.8C518.683 82.9067 519.456 82.9067 520.203 82.8C518.763 80.9867 517.909 78.7733 517.643 76.16C517.163 71.4133 518.363 67.6533 521.243 64.88C524.443 61.7333 527.509 59.8933 530.443 59.36C533.429 58.7733 537.269 60.56 541.963 64.72C542.603 65.2533 542.709 65.8667 542.283 66.56C541.909 67.2 541.349 67.36 540.603 67.04C535.589 65.12 530.549 65.0667 525.483 66.88C523.243 67.68 521.936 68.6667 521.563 69.84C521.136 71.0667 521.829 73.0933 523.643 75.92C525.563 78.9067 527.269 80.56 528.763 80.88C532.123 81.5733 535.509 80.8267 538.923 78.64L541.243 77.04C543.003 75.8133 544.123 75.44 544.603 75.92C544.923 76.24 545.003 76.5867 544.843 76.96ZM602.512 120.08C603.686 119.333 604.112 119.573 603.792 120.8L603.072 123.12C602.912 123.707 602.379 124.267 601.472 124.8L587.472 132.88C586.619 133.36 586.192 133.147 586.192 132.24V131.04C586.192 130.613 586.619 130.053 587.472 129.36L602.512 120.08ZM601.691 14.4C601.798 13.44 602.118 13.0133 602.651 13.12C603.291 13.1733 603.584 13.6 603.531 14.4C603.424 16.64 602.998 18.56 602.251 20.16C601.398 21.9733 600.198 22.9333 598.651 23.04C597.691 23.1467 596.758 22.64 595.851 21.52C595.584 22.0533 595.238 22.5333 594.811 22.96C594.384 23.3333 593.931 23.6533 593.451 23.92C592.331 24.5067 591.264 24.56 590.251 24.08C587.798 23.0667 587.531 20.08 589.451 15.12C589.771 14.3733 590.224 14.1333 590.811 14.4C591.291 14.6133 591.424 15.0667 591.211 15.76C590.518 18.2667 590.838 19.6267 592.171 19.84C593.771 20 595.051 18.2667 596.011 14.64C596.171 13.8933 596.491 13.6 596.971 13.76C597.558 13.8667 597.771 14.1867 597.611 14.72C597.238 16.8533 597.771 17.92 599.211 17.92C600.598 17.92 601.424 16.7467 601.691 14.4ZM614.174 62.16C615.454 75.12 619.214 82.1067 625.454 83.12C625.934 83.3867 625.934 84.72 625.454 87.12C625.134 89.04 624.654 90 624.014 90C620.174 90 617.134 87.8667 614.894 83.6C616.174 99.28 614.601 108.773 610.174 112.08C604.147 116.453 598.654 118.667 593.694 118.72C588.307 118.827 584.121 117.413 581.134 114.48C578.147 111.547 577.001 107.493 577.694 102.32C578.067 99.7067 578.814 97.0933 579.934 94.48C581.107 91.8667 582.681 89.2533 584.654 86.64C584.921 86.32 585.241 86.16 585.614 86.16C585.934 86.16 586.174 86.32 586.334 86.64C586.494 86.96 586.414 87.36 586.094 87.84C581.667 94.5067 580.307 99.8133 582.014 103.76C584.094 108.56 588.867 110.72 596.334 110.24C602.521 109.813 608.014 107.253 612.814 102.56L608.974 48.16C608.814 46.2933 608.841 44.96 609.054 44.16L610.574 39.36C611.427 38.4533 611.961 38.9867 612.174 40.96L614.174 62.16ZM654.543 10.04C655.717 9.29333 656.143 9.53333 655.823 10.76L655.103 13.08C654.943 13.6667 654.41 14.2267 653.503 14.76L639.503 22.84C638.65 23.32 638.223 23.1067 638.223 22.2V21C638.223 20.5733 638.65 20.0133 639.503 19.32L654.543 10.04ZM665.738 67.2C667.285 67.2 669.258 68.08 671.658 69.84C674.005 71.5467 675.018 73.3067 674.698 75.12C674.378 76.8267 673.525 78.96 672.138 81.52C670.752 84.0267 669.765 85.4933 669.178 85.92C664.325 89.4933 657.925 91.28 649.978 91.28C648.432 91.28 646.912 91.1733 645.418 90.96C643.925 90.7467 642.485 90.4533 641.098 90.08C640.672 90.6667 639.952 92.8533 638.938 96.64C638.778 97.44 638.245 97.68 637.338 97.36C636.538 97.04 636.165 96.4533 636.218 95.6C636.378 94.64 636.618 93.6 636.938 92.48C637.258 91.36 637.685 90.1867 638.218 88.96C635.445 87.7867 633.258 86.24 631.658 84.32C631.125 83.6267 630.672 83.28 630.298 83.28C629.978 83.28 629.658 83.6533 629.338 84.4C627.845 88.1333 626.032 90 623.898 90C623.632 90 623.338 89.7067 623.018 89.12C622.165 87.0933 621.925 85.6 622.298 84.64C622.725 83.5733 623.258 82.96 623.898 82.8C626.672 82.16 628.992 80.1067 630.858 76.64C631.232 75.9467 631.792 75.6 632.538 75.6C633.338 75.6 633.978 76 634.458 76.8C636.165 79.4667 638.992 81.3867 642.938 82.56C645.285 80 647.525 77.76 649.658 75.84C656.218 70.1333 661.578 67.2533 665.738 67.2ZM669.258 79.36C666.218 76.5867 662.805 75.36 659.018 75.68C657.525 75.84 655.285 76.88 652.298 78.8C650.805 79.76 649.552 80.6133 648.538 81.36C647.525 82.1067 646.752 82.7733 646.218 83.36C649.312 83.84 653.632 83.76 659.178 83.12C664.778 82.48 668.112 81.4933 669.178 80.16C669.498 79.8933 669.525 79.6267 669.258 79.36ZM715.164 7.16L729.564 0.759996C730.524 0.386665 730.951 0.599998 730.844 1.4L730.524 4.11999C730.417 4.70666 730.177 5.07999 729.804 5.24L715.724 10.12C714.551 10.4933 714.044 10.2 714.204 9.24L714.364 8.12C714.417 7.69333 714.684 7.37333 715.164 7.16ZM727.472 14.4C727.579 13.44 727.899 13.0133 728.432 13.12C729.072 13.1733 729.366 13.6 729.312 14.4C729.206 16.64 728.779 18.56 728.032 20.16C727.179 21.9733 725.979 22.9333 724.432 23.04C723.472 23.1467 722.539 22.64 721.632 21.52C721.366 22.0533 721.019 22.5333 720.592 22.96C720.166 23.3333 719.712 23.6533 719.232 23.92C718.112 24.5067 717.046 24.56 716.032 24.08C713.579 23.0667 713.312 20.08 715.232 15.12C715.552 14.3733 716.006 14.1333 716.592 14.4C717.072 14.6133 717.206 15.0667 716.992 15.76C716.299 18.2667 716.619 19.6267 717.952 19.84C719.552 20 720.832 18.2667 721.792 14.64C721.952 13.8933 722.272 13.6 722.752 13.76C723.339 13.8667 723.552 14.1867 723.392 14.72C723.019 16.8533 723.552 17.92 724.992 17.92C726.379 17.92 727.206 16.7467 727.472 14.4ZM723.997 73.68C725.331 75.2267 726.797 76.5867 728.397 77.76C729.997 78.9333 731.731 79.8667 733.597 80.56C735.464 81.2533 737.331 81.7867 739.197 82.16C741.064 82.5333 742.957 82.7467 744.877 82.8C746.584 82.9067 747.251 84.1067 746.877 86.4C746.504 88.8 745.837 90 744.877 90C740.024 90 735.651 88.9333 731.757 86.8C731.544 86.6933 731.437 86.7733 731.437 87.04C731.651 92.6933 730.637 96.4533 728.397 98.32C727.651 98.9067 726.904 98.88 726.157 98.24C724.611 96.8533 723.331 95.0933 722.317 92.96C721.357 90.8267 720.744 88.32 720.477 85.44C717.704 85.4933 714.771 87.0667 711.677 90.16C711.091 90.8 711.277 94.2667 712.237 100.56C713.731 110.267 714.744 117.893 715.277 123.44C715.811 129.04 715.891 132.533 715.517 133.92C715.197 135.2 714.824 135.947 714.397 136.16C713.917 136.427 713.491 136.293 713.117 135.76C712.744 135.227 712.557 134.453 712.557 133.44C712.397 128.267 711.357 120 709.437 108.64C707.784 98.9867 707.917 91.6533 709.837 86.64C711.597 82.2133 715.384 78.8 721.197 76.4C721.517 75.3867 721.917 74.5333 722.397 73.84C722.877 73.0933 723.411 73.04 723.997 73.68ZM762.908 0.519997C763.654 0.413331 764.321 0.813331 764.908 1.72C766.134 3.58666 766.134 6.06666 764.908 9.16C765.334 9.37333 765.654 9.58666 765.868 9.79999C766.134 9.95999 766.374 10.0667 766.588 10.12C767.228 10.3867 767.361 10.8667 766.988 11.56L766.188 13.08C765.921 13.56 765.574 13.72 765.148 13.56C764.614 13.4 763.974 13.1067 763.228 12.68C759.868 17.0533 756.081 20.28 751.868 22.36C751.014 22.84 750.401 22.7867 750.028 22.2C749.654 21.4533 749.974 20.8133 750.988 20.28C755.308 17.7733 758.748 14.8667 761.308 11.56C759.921 10.8133 758.908 10.1467 758.268 9.56C757.148 8.49333 756.854 7.31999 757.388 6.04C758.721 2.73333 760.561 0.893328 762.908 0.519997ZM762.108 5.15999C761.041 4.19999 760.188 4.27999 759.548 5.4C759.334 5.66666 759.441 6.01333 759.868 6.44C760.348 6.91999 761.361 7.53333 762.908 8.28C763.121 6.78666 762.854 5.74666 762.108 5.15999ZM767.634 62C768.754 62.48 769.367 63.5733 769.474 65.28C770.007 73.28 767.474 79.76 761.874 84.72C763.314 84.8267 765.234 84.7467 767.634 84.48C770.034 84.16 772.887 83.6 776.194 82.8C776.567 82.7467 776.914 83.0133 777.234 83.6C777.874 85.0933 777.874 86.7733 777.234 88.64C776.914 89.4933 776.567 89.9467 776.194 90C774.861 90.2667 773.554 90.4533 772.274 90.56C770.994 90.72 769.767 90.7733 768.594 90.72C770.354 92.5333 771.074 95.6533 770.754 100.08C770.594 102.107 769.847 103.973 768.514 105.68C767.127 107.493 765.527 108.4 763.714 108.4C758.007 108.453 754.541 103.04 753.314 92.16L751.074 91.84V88C748.461 89.3333 746.407 90 744.914 90C743.901 90 743.154 88.2133 742.674 84.64C742.514 83.52 743.261 82.9067 744.914 82.8C747.901 82.64 751.021 82 754.274 80.88C756.461 75.12 759.581 69.84 763.634 65.04C765.661 62.6933 766.994 61.68 767.634 62ZM756.594 92.56C757.554 96.7733 759.261 99.44 761.714 100.56C763.794 101.467 765.874 101.28 767.954 100C768.541 99.5733 768.621 99.04 768.194 98.4C766.221 95.52 762.354 93.5733 756.594 92.56ZM763.794 71.28C763.367 71.28 762.994 71.36 762.674 71.52C759.474 73.3333 757.341 76.2667 756.274 80.32C761.341 78.2933 764.674 76.16 766.274 73.92C766.594 73.5467 766.621 73.1467 766.354 72.72C765.821 71.76 764.967 71.28 763.794 71.28ZM775.477 7.16L789.877 0.759996C790.837 0.386665 791.263 0.599998 791.157 1.4L790.837 4.11999C790.73 4.70666 790.49 5.07999 790.117 5.24L776.037 10.12C774.863 10.4933 774.357 10.2 774.517 9.24L774.677 8.12C774.73 7.69333 774.997 7.37333 775.477 7.16ZM787.785 14.4C787.891 13.44 788.211 13.0133 788.745 13.12C789.385 13.1733 789.678 13.6 789.625 14.4C789.518 16.64 789.091 18.56 788.345 20.16C787.491 21.9733 786.291 22.9333 784.745 23.04C783.785 23.1467 782.851 22.64 781.945 21.52C781.678 22.0533 781.331 22.5333 780.905 22.96C780.478 23.3333 780.025 23.6533 779.545 23.92C778.425 24.5067 777.358 24.56 776.345 24.08C773.891 23.0667 773.625 20.08 775.545 15.12C775.865 14.3733 776.318 14.1333 776.905 14.4C777.385 14.6133 777.518 15.0667 777.305 15.76C776.611 18.2667 776.931 19.6267 778.265 19.84C779.865 20 781.145 18.2667 782.105 14.64C782.265 13.8933 782.585 13.6 783.065 13.76C783.651 13.8667 783.865 14.1867 783.705 14.72C783.331 16.8533 783.865 17.92 785.305 17.92C786.691 17.92 787.518 16.7467 787.785 14.4ZM784.406 46.4C785.686 62.3467 786.993 72.16 788.326 75.84C789.713 79.6267 791.713 81.7867 794.326 82.32C797.046 82.8533 797.793 85.0933 796.566 89.04C796.086 90.48 795.366 91.28 794.406 91.44C792.486 91.8133 790.619 91.1467 788.806 89.44C787.046 87.7333 785.473 84.48 784.086 79.68C782.486 86.5067 779.819 89.9467 776.086 90C775.606 90 775.126 89.2533 774.646 87.76C773.899 84.88 774.379 83.2267 776.086 82.8C778.913 82.0533 780.699 81.12 781.446 80C782.246 78.7733 782.726 77.1733 782.886 75.2L779.926 44.32C779.766 43.04 779.899 42.0533 780.326 41.36L782.246 37.92C782.566 37.3867 782.886 37.1733 783.206 37.28C783.526 37.3333 783.686 37.6 783.686 38.08C783.686 38.2933 783.739 39.0933 783.846 40.48C784.006 41.8667 784.193 43.84 784.406 46.4ZM794.702 41.2L796.222 37.76C796.382 37.28 796.676 37.04 797.102 37.04C797.476 37.04 797.742 37.3333 797.902 37.92C798.862 40.5333 799.929 42.4267 801.102 43.6C801.796 44.2933 801.316 45.5733 799.662 47.44C799.289 47.8133 799.102 48.24 799.102 48.72C799.209 50.0533 799.342 51.6267 799.502 53.44C799.662 55.2 799.849 57.2 800.062 59.44L800.782 66.88C801.102 70.2933 801.289 73.28 801.342 75.84C801.449 78.3467 801.369 80.3733 801.102 81.92C800.302 87.7333 797.822 90.96 793.662 91.6C792.756 91.76 792.116 90.4533 791.742 87.68C791.262 84.8533 791.502 83.0667 792.462 82.32C792.782 82.1067 793.102 82.0267 793.422 82.08C795.449 82.4533 796.969 82.3467 797.982 81.76C798.089 80.3733 798.062 78.1067 797.902 74.96C797.742 71.8133 797.396 67.7867 796.862 62.88C795.849 53.0133 795.209 46.8533 794.942 44.4L794.702 41.2ZM813.518 36.4C814.638 33.7867 815.358 33.7333 815.678 36.24L817.518 55.84C819.545 73.4933 819.305 84.6933 816.798 89.44C816.425 90.08 816.132 90.24 815.918 89.92C815.705 89.6533 815.598 89.2 815.598 88.56C815.705 84.08 815.385 79.04 814.638 73.44C814.638 73.2267 814.078 68.16 812.958 58.24L811.198 43.76C811.092 42.6933 811.198 41.7867 811.518 41.04L813.518 36.4Z" fill="url(#paint0_linear_4_20)"/>
<defs>
<linearGradient id="paint0_linear_4_20" x1="433.279" y1="-44.6301" x2="430.321" y2="92.5193" gradientUnits="userSpaceOnUse">
<stop stop-color="#FFD700"/>
<stop offset="1" stop-color="#FF9C72" stop-opacity="0.5"/>
</linearGradient>
</defs>
</svg>
