<svg width="453" height="114" viewBox="0 0 453 114" fill="none" xmlns="http://www.w3.org/2000/svg">
<path d="M28.7038 6.28C30.8371 2.38666 33.5838 1.72 36.9438 4.27999C39.1304 5.98666 40.3038 7.98666 40.4637 10.28C40.6238 13.16 39.7438 15.2933 37.8238 16.68C36.3838 17.64 34.6504 18.04 32.6238 17.88C28.3571 17.56 26.6238 14.8933 27.4238 9.87999C27.5304 9.18666 27.6904 8.54666 27.9038 7.96C28.1704 7.37333 28.4371 6.81333 28.7038 6.28ZM37.1838 12.28C38.7304 11.8533 38.7038 10.84 37.1038 9.24C35.9304 8.06666 34.5171 7.48 32.8638 7.48C30.8904 7.42666 29.8504 8.28 29.7438 10.04C29.7438 11.2133 30.1704 11.96 31.0238 12.28C32.8904 12.92 34.9438 12.92 37.1838 12.28ZM62.68 55.24C63.4267 56.0933 64.04 57.1333 64.52 58.36C65.0533 59.5867 65.4533 60.9733 65.72 62.52C66.2533 65.56 66.2 68.5467 65.56 71.48C64.92 74.36 63.8533 76.2267 62.36 77.08C58.0933 79.5333 53.2933 81.48 47.96 82.92C42.6267 84.36 36.76 85.24 30.36 85.56C17.56 86.2 8.97333 83.8 4.6 78.36C1.77333 74.84 1.34667 70.76 3.32 66.12C3.74667 65.16 4.30667 64.1733 5 63.16C5.74667 62.0933 6.62667 61 7.64 59.88C7.96 59.5067 8.30667 59.3733 8.68 59.48C8.94667 59.5333 9.13333 59.7467 9.24 60.12C9.34667 60.44 9.26667 60.7333 9 61C8.04 62.0667 7.26667 63.2133 6.68 64.44C6.14667 65.6133 6.01333 66.7067 6.28 67.72C8.14667 74.6533 15.88 77.9867 29.48 77.72C36.3067 77.6133 42.4933 76.92 48.04 75.64C53.64 74.3067 58.6267 72.3867 63 69.88C62.84 67.8 61.56 65.24 59.16 62.2C59.0533 62.04 59.1067 61.4 59.32 60.28C59.3733 60.1733 59.4 60.0933 59.4 60.04C59.6667 58.76 60.2533 57.16 61.16 55.24C61.48 54.4933 61.9867 54.4933 62.68 55.24ZM36.28 45.16C36.3867 45 36.6 44.9467 36.92 45C37.8267 45.3733 38.7067 45.8 39.56 46.28C40.4133 46.76 41.2133 47.32 41.96 47.96C42.1733 48.1733 42.2 48.3867 42.04 48.6L38.6 54.12C38.4933 54.28 38.28 54.2267 37.96 53.96C37.8 53.8 37.3733 53.5333 36.68 53.16C36.04 52.7333 35.1067 52.1733 33.88 51.48L31.16 55.72C31 55.9333 30.76 55.9067 30.44 55.64C30.2267 55.48 29.6933 55.1333 28.84 54.6C28.04 54.0667 26.8933 53.3467 25.4 52.44C25.1867 52.3333 25.16 52.2 25.32 52.04L28.84 46.76C28.9467 46.6 29.1333 46.5467 29.4 46.6C30.2 46.8667 30.9467 47.2133 31.64 47.64C32.3867 48.0667 33.08 48.52 33.72 49L36.28 45.16ZM77.2225 27.4C77.4358 27.0267 77.6225 26.8667 77.7825 26.92C78.0492 26.92 78.2625 27.48 78.4225 28.6C79.3825 36.8667 80.0225 43.9333 80.3425 49.8C80.6092 55.3467 80.8225 59.8 80.9825 63.16C81.1958 66.52 81.3292 68.7867 81.3825 69.96C81.7558 74.8667 84.4225 77.48 89.3825 77.8C90.8225 77.9067 91.3825 78.8667 91.0625 80.68C90.5825 83.56 90.0225 85 89.3825 85C82.3958 85 78.6625 81.7467 78.1825 75.24C77.9692 72.52 77.7825 69.8 77.6225 67.08C77.5158 64.3067 77.4092 61.5333 77.3025 58.76C77.1425 53.2133 76.8225 48.7333 76.3425 45.32C75.8625 41.8533 75.2225 37.9333 74.4225 33.56C74.2625 32.76 74.3425 32.0933 74.6625 31.56L77.2225 27.4ZM109.833 5.03999C111.006 4.29333 111.433 4.53333 111.113 5.76L110.393 8.08C110.233 8.66666 109.699 9.22666 108.793 9.75999L94.7925 17.84C93.9392 18.32 93.5125 18.1067 93.5125 17.2V16C93.5125 15.5733 93.9392 15.0133 94.7925 14.32L109.833 5.03999ZM114.304 67C115.37 67.48 116.57 67.96 117.904 68.44C119.237 68.8667 120.704 69.2933 122.304 69.72C123.904 70.0933 125.477 70.4133 127.024 70.68C128.57 70.8933 130.09 70.9733 131.584 70.92C132.064 70.92 132.437 71.0267 132.704 71.24C132.97 71.4533 132.997 71.8267 132.784 72.36C132.304 73.3733 131.877 74.2533 131.504 75C131.184 75.7467 130.89 76.3333 130.624 76.76C130.09 77.6133 129.61 78.04 129.184 78.04C127.744 77.88 126.197 77.8267 124.544 77.88C122.944 77.9333 121.237 78.12 119.424 78.44C117.61 78.76 115.904 79.1067 114.304 79.48C112.704 79.8533 111.21 80.28 109.824 80.76C101.824 83.4267 96.8371 84.84 94.8638 85C92.8904 85.16 91.0504 85.16 89.3438 85C89.1837 79.88 89.2637 77.0267 89.5838 76.44C90.3304 75 91.1304 73.6133 91.9837 72.28C92.8371 70.9467 93.7438 69.6667 94.7038 68.44C97.7971 64.5467 100.304 62.6533 102.224 62.76C103.184 62.8133 104.677 63.1867 106.704 63.88C108.73 64.5733 111.264 65.6133 114.304 67ZM109.184 73.4C105.877 71.5333 102.677 70.5467 99.5838 70.44C97.9838 70.44 96.4638 71.08 95.0238 72.36C93.6371 73.5867 92.5438 75.3467 91.7438 77.64C94.1971 77.8 98.8638 77 105.744 75.24L109.184 74.36C109.45 74.2533 109.61 74.1467 109.664 74.04C109.77 73.88 109.61 73.6667 109.184 73.4ZM111.504 91.48C111.61 91.32 111.824 91.2667 112.144 91.32C114.277 92.0667 116.17 93.1867 117.824 94.68C118.037 94.8933 118.064 95.1067 117.904 95.32L114.144 101.4C113.984 101.667 113.717 101.64 113.344 101.32C113.13 101.16 112.57 100.787 111.664 100.2C110.757 99.6133 109.45 98.8133 107.744 97.8C107.477 97.64 107.424 97.48 107.584 97.32L111.504 91.48ZM144.019 27.4C144.233 27.0267 144.419 26.8667 144.579 26.92C144.846 26.92 145.059 27.48 145.219 28.6C146.179 36.8667 146.819 43.9333 147.139 49.8C147.406 55.3467 147.619 59.8 147.779 63.16C147.993 66.52 148.126 68.7867 148.179 69.96C148.553 74.8667 151.219 77.48 156.179 77.8C157.619 77.9067 158.179 78.8667 157.859 80.68C157.379 83.56 156.819 85 156.179 85C149.193 85 145.459 81.7467 144.979 75.24C144.766 72.52 144.579 69.8 144.419 67.08C144.313 64.3067 144.206 61.5333 144.099 58.76C143.939 53.2133 143.619 48.7333 143.139 45.32C142.659 41.8533 142.019 37.9333 141.219 33.56C141.059 32.76 141.139 32.0933 141.459 31.56L144.019 27.4ZM162.176 5.03999C163.35 4.29333 163.776 4.53333 163.456 5.76L162.736 8.08C162.576 8.66666 162.043 9.22666 161.136 9.75999L147.136 17.84C146.283 18.32 145.856 18.1067 145.856 17.2V16C145.856 15.5733 146.283 15.0133 147.136 14.32L162.176 5.03999ZM169.501 65C172.007 66.0133 174.727 66.8667 177.661 67.56C180.594 68.2533 183.687 68.8133 186.941 69.24C193.501 70.1467 198.647 70.3867 202.381 69.96C202.861 69.9067 203.181 70.0667 203.341 70.44C203.501 70.8133 203.474 71.2133 203.261 71.64L200.861 75.88C200.594 76.4133 200.141 76.6267 199.501 76.52C190.807 76.04 182.834 76.8933 175.581 79.08C175.314 79.1333 174.461 79.4267 173.021 79.96C171.581 80.44 169.554 81.16 166.941 82.12C161.767 84.04 158.167 85 156.141 85C155.501 85 154.967 84.0933 154.541 82.28C154.007 79.3467 154.567 77.8533 156.221 77.8C157.874 77.7467 161.314 77.0533 166.541 75.72C169.101 75.08 171.047 74.6 172.381 74.28C173.767 73.9067 174.514 73.6933 174.621 73.64C174.727 73.5867 174.807 73.56 174.861 73.56C174.914 73.5067 174.967 73.48 175.021 73.48C175.447 73.32 175.474 73.16 175.101 73C173.927 72.4133 172.621 71.9333 171.181 71.56C169.741 71.1333 168.167 70.7867 166.461 70.52C164.807 70.2533 163.181 70.0667 161.581 69.96C160.034 69.8533 158.567 69.8533 157.181 69.96C156.754 69.96 156.567 69.7733 156.621 69.4C156.781 68.8133 157.021 68.2533 157.341 67.72C157.661 67.1867 158.034 66.6267 158.461 66.04C159.367 64.8133 160.274 64.0933 161.181 63.88C163.314 63.3467 166.087 63.72 169.501 65ZM174.722 59.24C174.509 56.2533 174.189 52.9467 173.762 49.32C173.389 45.6933 172.882 41.6933 172.242 37.32L171.282 34.04C171.229 33.4533 171.335 32.92 171.602 32.44C171.709 32.2267 171.922 31.8533 172.242 31.32C172.615 30.7867 173.069 30.0667 173.602 29.16C173.762 28.84 174.002 28.68 174.322 28.68C174.589 28.68 174.775 28.8933 174.882 29.32C175.469 31.4533 176.642 33.4533 178.402 35.32C178.935 35.8533 178.962 36.3867 178.482 36.92L176.802 39.24C176.589 39.56 176.509 40.12 176.562 40.92C178.109 52.3867 178.215 59.7467 176.882 63C175.335 66.8933 170.215 69.1067 161.522 69.64C157.895 69.8533 157.202 68.5733 159.442 65.8C159.709 65.48 159.975 65.1867 160.242 64.92C160.455 64.6 160.669 64.3067 160.882 64.04C161.362 63.4533 162.055 63.16 162.962 63.16C167.015 63.1067 170.162 62.7867 172.402 62.2C174.002 61.8267 174.775 60.84 174.722 59.24ZM213.729 31.4C214.849 28.7867 215.569 28.7333 215.889 31.24L217.729 50.84C219.756 68.4933 219.516 79.6933 217.009 84.44C216.636 85.08 216.343 85.24 216.129 84.92C215.916 84.6533 215.809 84.2 215.809 83.56C215.916 79.08 215.596 74.04 214.849 68.44C214.849 68.2267 214.289 63.16 213.169 53.24L211.409 38.76C211.303 37.6933 211.409 36.7867 211.729 36.04L213.729 31.4ZM305.793 77.8C307.393 78.12 308.006 79.0267 307.633 80.52C306.886 83.6133 306.273 85.1067 305.793 85C304.353 84.9467 302.913 84.5733 301.473 83.88C300.086 83.24 298.699 81.9067 297.312 79.88C295.926 77.8533 294.619 76.7867 293.393 76.68C292.219 76.6267 290.273 77.3467 287.553 78.84C284.886 80.3333 283.393 81.5867 283.073 82.6C282.166 85.7467 281.046 87.96 279.713 89.24C279.179 89.72 278.913 89.7467 278.913 89.32C278.699 87.1867 279.553 84.5467 281.473 81.4C283.393 78.2533 285.766 75.56 288.593 73.32C291.419 71.0267 293.819 69.8533 295.793 69.8C297.019 69.7467 298.379 70.9733 299.873 73.48C301.313 75.9333 303.286 77.3733 305.793 77.8ZM282.193 92.6C280.113 92.0667 278.993 91.0533 278.833 89.56C278.673 88.2267 279.606 86.1467 281.633 83.32C282.539 82.04 283.073 81.4267 283.233 81.48C283.339 81.5333 283.286 81.9067 283.073 82.6C282.593 84.04 283.259 85.2933 285.073 86.36C286.779 87.3733 288.886 88.04 291.392 88.36C296.779 89 300.113 89.56 301.393 90.04C302.673 90.52 303.579 91.3733 304.113 92.6C304.379 93.24 304.539 93.88 304.593 94.52C304.699 95.16 304.699 95.8267 304.593 96.52C304.433 97.8 304.006 98.9733 303.313 100.04C301.979 101.907 298.619 104.12 293.233 106.68C287.846 109.24 281.846 110.867 275.233 111.56C263.659 112.84 256.353 109.56 253.313 101.72C252.299 98.9467 252.219 95.2133 253.073 90.52C253.926 85.88 255.899 81.1333 258.993 76.28C259.259 75.96 259.553 75.8 259.873 75.8C260.246 75.8 260.513 75.96 260.673 76.28C260.833 76.5467 260.539 77.32 259.793 78.6C256.646 84.2 255.339 88.9733 255.873 92.92C256.619 98.04 260.166 101.613 266.513 103.64C268.806 104.28 271.366 104.493 274.193 104.28C278.566 103.907 282.913 103.053 287.233 101.72C291.553 100.44 295.899 98.7067 300.273 96.52C300.326 96.52 300.379 96.4933 300.433 96.44C300.486 96.3333 300.353 96.12 300.033 95.8C299.713 95.48 297.419 95.08 293.153 94.6C288.833 94.12 285.179 93.4533 282.193 92.6ZM327.51 60.12C329.643 58.6267 331.91 57.8267 334.31 57.72C336.603 57.6667 339.03 58.8667 341.59 61.32C342.87 62.4933 343.43 63.8533 343.27 65.4C343.11 66.9467 342.47 69 341.35 71.56C340.23 74.1733 339.377 75.72 338.79 76.2C335.91 78.8133 332.043 80.8933 327.19 82.44C322.39 83.9333 316.577 84.84 309.75 85.16C309.697 85.32 309.59 85.56 309.43 85.88C309.27 86.2 309.11 86.6267 308.95 87.16C308.79 87.6933 308.63 88.1467 308.47 88.52C308.31 88.8933 308.177 89.2133 308.07 89.48C307.803 90.0667 307.403 90.2533 306.87 90.04C305.963 89.72 305.99 88.04 306.95 85H305.75C305.003 85 304.417 84.3867 303.99 83.16C302.87 79.5333 303.457 77.7467 305.75 77.8C307.777 77.8533 309.377 77.7733 310.55 77.56C313.323 73.7733 316.097 70.44 318.87 67.56C321.697 64.6267 324.577 62.1467 327.51 60.12ZM337.67 69.56C333.723 67.0533 330.443 66.12 327.83 66.76C323.617 67.7733 319.057 71.3467 314.15 77.48C325.777 75.8267 333.643 73.4267 337.75 70.28C338.07 70.0133 338.043 69.7733 337.67 69.56ZM316.15 41.24C316.257 41.08 316.47 41.0267 316.79 41.08C318.923 41.8267 320.817 42.9467 322.47 44.44C322.683 44.6533 322.71 44.8667 322.55 45.08L318.79 51.16C318.63 51.4267 318.363 51.4 317.99 51.08C317.777 50.92 317.217 50.5467 316.31 49.96C315.403 49.3733 314.097 48.5733 312.39 47.56C312.123 47.4 312.07 47.24 312.23 47.08L316.15 41.24ZM354.566 27.4C354.78 27.0267 354.966 26.8667 355.126 26.92C355.393 26.92 355.606 27.48 355.766 28.6C356.726 36.8667 357.366 43.9333 357.686 49.8C357.953 55.3467 358.166 59.8 358.326 63.16C358.54 66.52 358.673 68.7867 358.726 69.96C359.1 74.8667 361.766 77.48 366.726 77.8C368.166 77.9067 368.726 78.8667 368.406 80.68C367.926 83.56 367.366 85 366.726 85C359.74 85 356.006 81.7467 355.526 75.24C355.313 72.52 355.126 69.8 354.966 67.08C354.86 64.3067 354.753 61.5333 354.646 58.76C354.486 53.2133 354.166 48.7333 353.686 45.32C353.206 41.8533 352.566 37.9333 351.766 33.56C351.606 32.76 351.686 32.0933 352.006 31.56L354.566 27.4ZM378.895 5.03999C380.068 4.29333 380.495 4.53333 380.175 5.76L379.455 8.08C379.295 8.66666 378.762 9.22666 377.855 9.75999L363.855 17.84C363.002 18.32 362.575 18.1067 362.575 17.2V16C362.575 15.5733 363.002 15.0133 363.855 14.32L378.895 5.03999ZM375.888 52.28C376.581 52.28 377.434 52.7067 378.447 53.56C383.248 57.72 385.514 63 385.248 69.4C385.088 72.76 384.261 75.4267 382.768 77.4C378.821 82.4667 373.461 85 366.688 85C365.994 85 365.487 84.3867 365.167 83.16C365.007 82.5733 364.954 81.96 365.007 81.32C365.007 80.68 365.061 80.0933 365.167 79.56C365.381 78.4933 365.887 77.9067 366.688 77.8C373.354 77.32 378.368 75.4 381.728 72.04C381.568 70.3867 381.328 69.3467 381.008 68.92C380.634 68.3333 380.314 68.0933 380.048 68.2C379.834 68.2533 379.701 68.36 379.648 68.52C378.741 70.8667 377.354 72.2533 375.488 72.68C369.621 73.96 366.928 71.6933 367.408 65.88C367.621 63.1067 368.688 60.12 370.608 56.92C372.421 53.8267 374.181 52.28 375.888 52.28ZM373.248 60.92C372.074 60.9733 371.354 62.0133 371.088 64.04C371.088 64.36 371.114 64.52 371.168 64.52C372.234 64.84 373.328 64.92 374.448 64.76C375.514 64.6 376.234 64.2533 376.608 63.72C375.381 61.7467 374.261 60.8133 373.248 60.92ZM378.128 34.2C378.234 34.04 378.448 33.9867 378.768 34.04C379.674 34.4133 380.554 34.84 381.408 35.32C382.261 35.8 383.061 36.36 383.808 37C384.021 37.2133 384.048 37.4267 383.888 37.64L380.448 43.16C380.341 43.32 380.128 43.2667 379.808 43C379.648 42.84 379.221 42.5733 378.528 42.2C377.888 41.7733 376.954 41.2133 375.728 40.52L373.008 44.76C372.848 44.9733 372.608 44.9467 372.288 44.68C372.074 44.52 371.541 44.1733 370.688 43.64C369.888 43.1067 368.741 42.3867 367.248 41.48C367.034 41.3733 367.008 41.24 367.168 41.08L370.688 35.8C370.794 35.64 370.981 35.5867 371.248 35.64C372.048 35.9067 372.794 36.2533 373.488 36.68C374.234 37.1067 374.928 37.56 375.568 38.04L378.128 34.2ZM419.801 27.4C420.014 27.0267 420.201 26.8667 420.361 26.92C420.627 26.92 420.841 27.48 421.001 28.6C421.961 36.8667 422.601 43.9333 422.921 49.8C423.187 55.3467 423.401 59.8 423.561 63.16C423.774 66.52 423.907 68.7867 423.961 69.96C424.334 74.8667 427.001 77.48 431.961 77.8C433.401 77.9067 433.961 78.8667 433.641 80.68C433.161 83.56 432.601 85 431.961 85C424.974 85 421.241 81.7467 420.761 75.24C420.547 72.52 420.361 69.8 420.201 67.08C420.094 64.3067 419.987 61.5333 419.881 58.76C419.721 53.2133 419.401 48.7333 418.921 45.32C418.441 41.8533 417.801 37.9333 417.001 33.56C416.841 32.76 416.921 32.0933 417.241 31.56L419.801 27.4ZM449.598 5.03999C450.771 4.29333 451.198 4.53333 450.878 5.76L450.158 8.08C449.998 8.66666 449.465 9.22666 448.558 9.75999L434.558 17.84C433.705 18.32 433.278 18.1067 433.278 17.2V16C433.278 15.5733 433.705 15.0133 434.558 14.32L449.598 5.03999ZM444.322 69.16L446.562 64.2C447.042 63.24 447.549 63.24 448.082 64.2C449.362 66.3867 449.922 69.8 449.762 74.44C449.655 76.7333 448.989 78.7067 447.762 80.36C445.095 83.9333 439.815 85.48 431.922 85C430.962 84.8933 430.242 83.1067 429.762 79.64C429.495 78.0933 430.215 77.48 431.922 77.8C433.682 78.12 435.655 78.1733 437.842 77.96C438.962 77.8533 440.242 77.6133 441.682 77.24C443.175 76.8667 444.829 76.3333 446.642 75.64C446.375 74.7333 446.055 73.9067 445.682 73.16C445.362 72.36 444.989 71.6933 444.562 71.16C444.082 70.5733 444.002 69.9067 444.322 69.16ZM446.802 94.6C446.909 94.44 447.122 94.3867 447.442 94.44C448.349 94.8133 449.229 95.24 450.082 95.72C450.935 96.2 451.735 96.76 452.482 97.4C452.695 97.6133 452.722 97.8267 452.562 98.04L449.122 103.56C449.015 103.72 448.802 103.667 448.482 103.4C448.322 103.24 447.895 102.947 447.202 102.52C446.562 102.147 445.629 101.613 444.402 100.92L441.682 105.16C441.522 105.373 441.282 105.347 440.962 105.08C440.749 104.92 440.215 104.573 439.362 104.04C438.562 103.507 437.415 102.787 435.922 101.88C435.709 101.773 435.682 101.64 435.842 101.48L439.362 96.2C439.469 96.04 439.655 95.9867 439.922 96.04C440.722 96.3067 441.469 96.6533 442.162 97.08C442.909 97.5067 443.602 97.96 444.242 98.44L446.802 94.6Z" fill="url(#paint0_linear_1_2)"/>
<defs>
<linearGradient id="paint0_linear_1_2" x1="240" y1="-88.5" x2="228.2" y2="110.012" gradientUnits="userSpaceOnUse">
<stop stop-color="#FFD700"/>
<stop offset="1" stop-color="#FF9C72" stop-opacity="0.5"/>
</linearGradient>
</defs>
</svg>
