<svg width="567" height="132" viewBox="0 0 567 132" fill="none" xmlns="http://www.w3.org/2000/svg">
<path d="M27.9731 116.08C29.1465 115.333 29.5731 115.573 29.2531 116.8L28.5331 119.12C28.3731 119.707 27.8398 120.267 26.9331 120.8L12.9331 128.88C12.0798 129.36 11.6531 129.147 11.6531 128.24V127.04C11.6531 126.613 12.0798 126.053 12.9331 125.36L27.9731 116.08ZM4.32 74.92C4.58667 73.2133 4.93333 71.5333 5.36 69.88C5.84 68.1733 6.45333 66.5467 7.2 65C8.74667 61.8533 10.4 59.96 12.16 59.32C14.6667 58.36 17.7067 59.4 21.28 62.44C22.24 63.24 23.1467 64.0933 24 65C24.8533 65.9067 25.68 66.8667 26.48 67.88C26.96 68.4667 27.1733 69.0267 27.12 69.56C26.7467 71.8533 26.4267 73.6933 26.16 75.08C25.8933 76.4133 25.7067 77.2133 25.6 77.48C25.3333 78.0667 24.88 78.28 24.24 78.12C15.44 76.04 8.8 77.64 4.32 82.92C3.89333 83.4533 3.76 83.9867 3.92 84.52C5.84 91.56 7.6 99.1867 9.2 107.4C11.6 119.773 11.8133 126.067 9.84 126.28C9.2 126.333 8.8 125.64 8.64 124.2C8.42667 121.64 8.02667 118.867 7.44 115.88C6.85333 112.893 6.13333 109.72 5.28 106.36C2.08 94.0933 0.72 86.44 1.2 83.4C1.46667 81.3733 1.86667 79.6667 2.4 78.28C2.98667 76.84 3.62667 75.72 4.32 74.92ZM8.48 71.96C9.44 71.5333 10.5067 71.1867 11.68 70.92C12.8533 70.6 14.1067 70.36 15.44 70.2C13.4667 68.5467 12 67.88 11.04 68.2C9.6 68.6267 8.74667 69.88 8.48 71.96ZM39.2919 31.4C40.4119 28.7867 41.1319 28.7333 41.4519 31.24L43.2919 50.84C45.3185 68.4933 45.0785 79.6933 42.5719 84.44C42.1985 85.08 41.9052 85.24 41.6919 84.92C41.4785 84.6533 41.3719 84.2 41.3719 83.56C41.4785 79.08 41.1585 74.04 40.4119 68.44C40.4119 68.2267 39.8519 63.16 38.7319 53.24L36.9719 38.76C36.8652 37.6933 36.9719 36.7867 37.2919 36.04L39.2919 31.4ZM63.3638 5.03999C64.5371 4.29333 64.9638 4.53333 64.6438 5.76L63.9238 8.08C63.7638 8.66666 63.2304 9.22666 62.3238 9.75999L48.3238 17.84C47.4704 18.32 47.0438 18.1067 47.0438 17.2V16C47.0438 15.5733 47.4704 15.0133 48.3238 14.32L63.3638 5.03999ZM69.1156 72.6C70.0223 73.1867 71.009 74.5733 72.0756 76.76C73.1423 78.8933 73.5956 81.1867 73.4356 83.64C73.3823 84.8667 73.1956 86.1733 72.8756 87.56C72.609 88.9467 72.1823 90.4133 71.5956 91.96C71.0623 93.4533 70.369 94.92 69.5156 96.36C68.7156 97.8 67.7556 99.2133 66.6356 100.6C64.3956 103.32 61.9956 104.92 59.4356 105.4C58.369 105.613 57.409 105.64 56.5556 105.48C54.9023 105.213 52.9823 104.733 50.7956 104.04C48.609 103.4 46.1556 102.52 43.4356 101.4C43.169 101.347 42.9823 101.16 42.8756 100.84C42.769 100.573 42.849 100.307 43.1156 100.04C43.2756 99.88 43.5956 99.8 44.0756 99.8C49.6756 100.28 53.5423 100.253 55.6756 99.72C57.9156 99.1333 60.689 97.56 63.9956 95C67.3023 92.3867 69.4356 89.96 70.3956 87.72C70.769 86.12 70.5823 84.6 69.8356 83.16C69.0356 81.6133 68.0756 80.4933 66.9556 79.8C66.7956 79.6933 66.7956 79.2667 66.9556 78.52L68.1556 72.92C68.209 72.7067 68.369 72.5467 68.6356 72.44C68.849 72.3867 69.009 72.44 69.1156 72.6ZM77.5475 6.28C79.6808 2.38666 82.4275 1.72 85.7875 4.27999C87.9742 5.98666 89.1475 7.98666 89.3075 10.28C89.4675 13.16 88.5875 15.2933 86.6675 16.68C85.2275 17.64 83.4942 18.04 81.4675 17.88C77.2008 17.56 75.4675 14.8933 76.2675 9.87999C76.3742 9.18666 76.5342 8.54666 76.7475 7.96C77.0142 7.37333 77.2808 6.81333 77.5475 6.28ZM86.0275 12.28C87.5742 11.8533 87.5475 10.84 85.9475 9.24C84.7742 8.06666 83.3608 7.48 81.7075 7.48C79.7342 7.42666 78.6942 8.28 78.5875 10.04C78.5875 11.2133 79.0142 11.96 79.8675 12.28C81.7342 12.92 83.7875 12.92 86.0275 12.28ZM111.878 18.92L110.838 24.6C110.731 25.0267 110.358 25.32 109.718 25.48C94.9981 29.4267 80.4648 34.4133 66.1181 40.44C78.2248 52.12 83.5581 63.2133 82.1181 73.72C81.3715 79.1067 78.4381 82.1733 73.3181 82.92C72.4648 83.08 71.5048 81.9067 70.4381 79.4C69.1581 76.4667 68.8381 74.7333 69.4781 74.2C69.6915 74.04 70.0115 74.0133 70.4381 74.12C73.0515 74.76 76.0648 74.2 79.4781 72.44C81.0248 68.7067 77.1848 62.2267 67.9581 53C67.5315 52.5733 67.0781 52.5467 66.5981 52.92L65.8781 53.48C65.2915 53.96 64.7581 53.9067 64.2781 53.32C63.0515 51.9333 62.0915 50.84 61.3981 50.04C60.6515 49.1867 60.1715 48.6267 59.9581 48.36C59.5848 47.8267 59.4781 47.1867 59.6381 46.44C61.2381 39.2933 64.2781 34.6533 68.7581 32.52C74.7848 29.5333 81.3448 26.84 88.4381 24.44C95.5315 22.04 103.105 19.9333 111.158 18.12C111.798 17.9067 112.038 18.1733 111.878 18.92ZM147.62 117.96C148.58 117.533 149.033 117.64 148.98 118.28L148.58 121.72C148.473 122.253 148.233 122.627 147.86 122.84L131.06 130.6C130.367 130.973 129.967 130.733 129.86 129.88L129.62 127.48C129.62 127.053 129.887 126.733 130.42 126.52C135.7 123.853 139.78 121.8 142.66 120.36C145.54 118.973 147.193 118.173 147.62 117.96ZM139.258 80.2C143.098 80.5733 146.244 80.76 148.698 80.76C151.151 80.7067 152.938 80.4933 154.058 80.12C153.524 74.9467 149.764 67.48 142.778 57.72C140.271 54.2 138.084 51.2667 136.218 48.92C134.351 46.52 132.804 44.7333 131.578 43.56L130.378 45.64C129.684 46.12 129.044 46.0133 128.458 45.32L122.938 39.4C122.138 38.4933 121.818 37.4533 121.978 36.28L123.098 29.32C123.204 28.5733 123.444 28.2 123.818 28.2C124.938 28.1467 127.924 31.0533 132.778 36.92C135.231 39.8533 137.498 42.7333 139.578 45.56C141.711 48.3333 143.658 51.0533 145.418 53.72C152.991 65.24 157.018 74.5467 157.498 81.64C157.658 84.6267 156.884 86.36 155.178 86.84C150.218 88.12 144.778 88.28 138.858 87.32C138.271 87.2667 137.898 87.08 137.738 86.76C136.778 84.4667 136.911 82.52 138.138 80.92C138.564 80.3333 138.938 80.0933 139.258 80.2ZM144.458 111.64C143.018 111.907 141.764 112.147 140.698 112.36C139.684 112.573 138.884 112.787 138.298 113C137.711 113.213 136.858 113.533 135.738 113.96C134.618 114.44 133.231 115.053 131.578 115.8C130.884 116.12 130.378 116.013 130.058 115.48C129.418 114.52 130.458 113.213 133.178 111.56C131.204 110.6 130.084 109.48 129.818 108.2C129.391 105.96 130.298 103.32 132.538 100.28C134.778 97.24 137.151 95.8267 139.658 96.04C141.258 96.2 141.978 97.1067 141.818 98.76C141.658 100.413 141.178 101.8 140.378 102.92C139.631 103.987 138.991 104.12 138.458 103.32C137.871 102.36 137.071 101.853 136.058 101.8C134.991 101.693 134.164 102.013 133.578 102.76C132.938 103.56 132.964 104.253 133.658 104.84C135.418 106.493 138.031 107.373 141.498 107.48C141.764 107.48 142.084 107.427 142.458 107.32C142.884 107.267 143.364 107.187 143.898 107.08C144.484 106.973 144.964 106.867 145.338 106.76C145.711 106.707 146.004 106.68 146.218 106.68C146.698 106.68 147.018 106.867 147.178 107.24C147.338 107.56 147.364 107.853 147.258 108.12C146.191 110.307 145.258 111.48 144.458 111.64ZM154.501 6.28C156.634 2.38666 159.381 1.72 162.741 4.27999C164.927 5.98666 166.101 7.98666 166.261 10.28C166.421 13.16 165.541 15.2933 163.621 16.68C162.181 17.64 160.447 18.04 158.421 17.88C154.154 17.56 152.421 14.8933 153.221 9.87999C153.327 9.18666 153.487 8.54666 153.701 7.96C153.967 7.37333 154.234 6.81333 154.501 6.28ZM162.981 12.28C164.527 11.8533 164.501 10.84 162.901 9.24C161.727 8.06666 160.314 7.48 158.661 7.48C156.687 7.42666 155.647 8.28 155.541 10.04C155.541 11.2133 155.967 11.96 156.821 12.28C158.687 12.92 160.741 12.92 162.981 12.28ZM148.685 80.68C147.085 82.28 145.192 83.1067 143.005 83.16C141.618 83.16 140.925 82.8933 140.925 82.36C140.925 81.7733 141.565 81.1333 142.845 80.44C151.485 75.64 156.392 66.8667 157.565 54.12C158.205 47.56 158.285 41.0267 157.805 34.52C157.645 32.44 157.725 31.1333 158.045 30.6C158.632 29.5867 159.085 28.7867 159.405 28.2C159.725 27.6133 159.938 27.24 160.045 27.08C160.312 26.76 160.578 26.6267 160.845 26.68C161.218 26.7867 161.432 26.9733 161.485 27.24C162.285 30.3333 163.085 32.3333 163.885 33.24C164.685 34.0933 164.712 34.8933 163.965 35.64L161.725 37.96C161.832 40.9467 161.698 44.1733 161.325 47.64C161.005 51.0533 160.472 54.7333 159.725 58.68C157.965 67.9067 154.285 75.24 148.685 80.68ZM175.386 31.4C176.506 28.7867 177.226 28.7333 177.546 31.24L179.386 50.84C181.412 68.4933 181.172 79.6933 178.666 84.44C178.292 85.08 177.999 85.24 177.786 84.92C177.572 84.6533 177.466 84.2 177.466 83.56C177.572 79.08 177.252 74.04 176.506 68.44C176.506 68.2267 175.946 63.16 174.826 53.24L173.066 38.76C172.959 37.6933 173.066 36.7867 173.386 36.04L175.386 31.4ZM208.442 5.03999C209.615 4.29333 210.042 4.53333 209.722 5.76L209.002 8.08C208.842 8.66666 208.309 9.22666 207.402 9.75999L193.402 17.84C192.549 18.32 192.122 18.1067 192.122 17.2V16C192.122 15.5733 192.549 15.0133 193.402 14.32L208.442 5.03999ZM199.129 69.48C200.996 64.3067 203.183 61.7467 205.689 61.8C207.236 61.8 208.676 62.8667 210.009 65C210.703 66.0667 211.236 67.1867 211.609 68.36C211.983 69.5333 212.276 70.7867 212.489 72.12C212.916 74.7867 212.516 78.4933 211.289 83.24C210.063 87.9867 207.716 92.3333 204.249 96.28C200.729 100.28 197.929 102.387 195.849 102.6C193.716 102.813 190.889 102.653 187.369 102.12C185.609 101.853 184.116 101.533 182.889 101.16C181.609 100.84 180.569 100.52 179.769 100.2C179.183 99.9333 178.916 99.6133 178.969 99.24C179.076 98.8133 179.423 98.6533 180.009 98.76C184.169 99.3467 188.143 99.1867 191.929 98.28C193.049 98.0133 194.409 97.3467 196.009 96.28C197.663 95.2133 199.556 93.7467 201.689 91.88C203.823 90.0133 205.529 88.3067 206.809 86.76C208.089 85.2133 208.916 83.8 209.289 82.52C209.023 80.28 208.703 79.0533 208.329 78.84C206.303 81.9867 203.716 82.76 200.569 81.16C197.423 79.56 196.943 75.6667 199.129 69.48ZM206.409 72.44C204.863 69.9333 203.209 69.8267 201.449 72.12C202.783 73.6133 204.436 73.72 206.409 72.44ZM270.317 111.08C271.49 110.333 271.917 110.573 271.597 111.8L270.877 114.12C270.717 114.707 270.184 115.267 269.277 115.8L255.277 123.88C254.424 124.36 253.997 124.147 253.997 123.24V122.04C253.997 121.613 254.424 121.053 255.277 120.36L270.317 111.08ZM278.04 25.48C278.2 25.1067 278.467 24.92 278.84 24.92C279.213 24.92 279.48 25.16 279.64 25.64C280.6 28.2533 281.693 30.2 282.92 31.48C283.4 31.96 283.373 32.6 282.84 33.4C282.573 33.7733 282.333 34.12 282.12 34.44C281.907 34.76 281.72 35.0267 281.56 35.24C281.24 35.6133 281.08 36.1467 281.08 36.84C281.187 38.6 281.373 40.7067 281.64 43.16C281.907 45.56 282.227 48.3067 282.6 51.4C283.027 54.4933 283.347 57.24 283.56 59.64C283.827 61.9867 284.013 64.0133 284.12 65.72C284.547 71.16 283.827 76.04 281.96 80.36C280.84 83.08 278.04 85.4 273.56 87.32C269.027 89.24 265.027 90.1733 261.56 90.12C251.267 89.96 246.093 85.48 246.04 76.68C245.987 70.8667 248.013 65.2933 252.12 59.96C252.387 59.5867 252.68 59.4533 253 59.56C253.373 59.6667 253.587 59.8533 253.64 60.12C253.747 60.4933 253.693 60.84 253.48 61.16C250.653 66.28 249.347 69.9867 249.56 72.28C250.307 78.84 255.187 81.96 264.2 81.64C271.933 81.3733 277.507 79.0533 280.92 74.68C280.867 72.9733 280.68 70.6533 280.36 67.72C280.093 64.7333 279.667 61.1067 279.08 56.84C278.547 52.5733 278.067 48.44 277.64 44.44C277.213 40.44 276.867 36.5733 276.6 32.84L276.28 30.12C276.28 29.6933 276.36 29.32 276.52 29L278.04 25.48ZM325.763 69.16C326.19 71.8267 326.083 73.4267 325.443 73.96C324.856 74.4933 324.403 74.0933 324.083 72.76C322.003 65.0267 316.723 58.5733 308.243 53.4C307.443 52.92 306.936 52.92 306.723 53.4L305.923 55C305.656 55.4267 305.363 55.6667 305.043 55.72C304.723 55.7733 304.03 55.48 302.963 54.84L296.003 50.04C294.936 49.2933 294.403 48.4667 294.403 47.56L294.243 39.08C294.243 38.4933 294.59 38.04 295.283 37.72C295.976 37.4 296.643 37.4 297.283 37.72C314.563 46.9467 324.056 57.4267 325.763 69.16ZM335.629 5.03999C336.803 4.29333 337.229 4.53333 336.909 5.76L336.189 8.08C336.029 8.66666 335.496 9.22666 334.589 9.75999L320.589 17.84C319.736 18.32 319.309 18.1067 319.309 17.2V16C319.309 15.5733 319.736 15.0133 320.589 14.32L335.629 5.03999ZM330.346 34.28L332.506 31C333.413 29.6133 333.946 29.9067 334.106 31.88C334.853 41.5867 335.546 49.5333 336.186 55.72C336.88 61.8533 337.573 66.2267 338.266 68.84C339.653 74.12 341.733 77.1067 344.506 77.8C346.053 78.2267 346.586 80.0667 346.106 83.32C345.946 84.44 345.413 85 344.506 85C339.92 85 336.853 82.2267 335.306 76.68C334.88 75.1333 334.48 73.2133 334.106 70.92C333.733 68.6267 333.386 65.9867 333.066 63C332.746 60.0133 332.48 57.72 332.266 56.12C332.053 54.4667 331.92 53.5333 331.866 53.32C331.813 53.1067 331.76 52.9733 331.706 52.92C331.653 52.8133 331.6 52.7333 331.546 52.68C331.44 52.6267 331.253 53.8533 330.986 56.36C329.6 68.52 326.293 77.3467 321.066 82.84C318.773 85.1867 316.16 86.7333 313.226 87.48C310.026 88.2267 307.36 88.76 305.226 89.08C303.093 89.4533 301.52 89.5867 300.506 89.48C300.24 89.48 300.106 89.2933 300.106 88.92C300.106 88.6533 300.266 88.44 300.586 88.28C302.346 87.64 304.346 86.7067 306.586 85.48C308.773 84.3067 311.253 82.8933 314.026 81.24C319.52 77.88 323.04 74.7067 324.586 71.72C326.613 67.6667 328.026 62.1733 328.826 55.24C329.253 51.7733 329.546 48.76 329.706 46.2C329.866 43.64 329.92 41.5867 329.866 40.04C329.813 38.4933 329.813 37.24 329.866 36.28C329.973 35.2667 330.133 34.6 330.346 34.28ZM350.551 5.03999C351.725 4.29333 352.151 4.53333 351.831 5.76L351.111 8.08C350.951 8.66666 350.418 9.22666 349.511 9.75999L335.511 17.84C334.658 18.32 334.231 18.1067 334.231 17.2V16C334.231 15.5733 334.658 15.0133 335.511 14.32L350.551 5.03999ZM357.876 65C360.382 66.0133 363.102 66.8667 366.036 67.56C368.969 68.2533 372.062 68.8133 375.316 69.24C381.876 70.1467 387.022 70.3867 390.756 69.96C391.236 69.9067 391.556 70.0667 391.716 70.44C391.876 70.8133 391.849 71.2133 391.636 71.64L389.236 75.88C388.969 76.4133 388.516 76.6267 387.876 76.52C379.182 76.04 371.209 76.8933 363.956 79.08C363.689 79.1333 362.836 79.4267 361.396 79.96C359.956 80.44 357.929 81.16 355.316 82.12C350.142 84.04 346.542 85 344.516 85C343.876 85 343.342 84.0933 342.916 82.28C342.382 79.3467 342.942 77.8533 344.596 77.8C346.249 77.7467 349.689 77.0533 354.916 75.72C357.476 75.08 359.422 74.6 360.756 74.28C362.142 73.9067 362.889 73.6933 362.996 73.64C363.102 73.5867 363.182 73.56 363.236 73.56C363.289 73.5067 363.342 73.48 363.396 73.48C363.822 73.32 363.849 73.16 363.476 73C362.302 72.4133 360.996 71.9333 359.556 71.56C358.116 71.1333 356.542 70.7867 354.836 70.52C353.182 70.2533 351.556 70.0667 349.956 69.96C348.409 69.8533 346.942 69.8533 345.556 69.96C345.129 69.96 344.942 69.7733 344.996 69.4C345.156 68.8133 345.396 68.2533 345.716 67.72C346.036 67.1867 346.409 66.6267 346.836 66.04C347.742 64.8133 348.649 64.0933 349.556 63.88C351.689 63.3467 354.462 63.72 357.876 65ZM363.556 90.44C363.662 90.28 363.876 90.2267 364.196 90.28C366.329 91.0267 368.222 92.1467 369.876 93.64C370.089 93.8533 370.116 94.0667 369.956 94.28L366.196 100.36C366.036 100.627 365.769 100.6 365.396 100.28C365.182 100.12 364.622 99.7467 363.716 99.16C362.809 98.5733 361.502 97.7733 359.796 96.76C359.529 96.6 359.476 96.44 359.636 96.28L363.556 90.44ZM365.048 6.28C367.181 2.38666 369.928 1.72 373.288 4.27999C375.474 5.98666 376.648 7.98666 376.807 10.28C376.968 13.16 376.088 15.2933 374.168 16.68C372.728 17.64 370.994 18.04 368.968 17.88C364.701 17.56 362.968 14.8933 363.768 9.87999C363.874 9.18666 364.034 8.54666 364.248 7.96C364.514 7.37333 364.781 6.81333 365.048 6.28ZM373.528 12.28C375.074 11.8533 375.048 10.84 373.448 9.24C372.274 8.06666 370.861 7.48 369.208 7.48C367.234 7.42666 366.194 8.28 366.088 10.04C366.088 11.2133 366.514 11.96 367.368 12.28C369.234 12.92 371.288 12.92 373.528 12.28ZM363.097 59.24C362.884 56.2533 362.564 52.9467 362.137 49.32C361.764 45.6933 361.257 41.6933 360.617 37.32L359.657 34.04C359.604 33.4533 359.71 32.92 359.977 32.44C360.084 32.2267 360.297 31.8533 360.617 31.32C360.99 30.7867 361.444 30.0667 361.977 29.16C362.137 28.84 362.377 28.68 362.697 28.68C362.964 28.68 363.15 28.8933 363.257 29.32C363.844 31.4533 365.017 33.4533 366.777 35.32C367.31 35.8533 367.337 36.3867 366.857 36.92L365.177 39.24C364.964 39.56 364.884 40.12 364.937 40.92C366.484 52.3867 366.59 59.7467 365.257 63C363.71 66.8933 358.59 69.1067 349.897 69.64C346.27 69.8533 345.577 68.5733 347.817 65.8C348.084 65.48 348.35 65.1867 348.617 64.92C348.83 64.6 349.044 64.3067 349.257 64.04C349.737 63.4533 350.43 63.16 351.337 63.16C355.39 63.1067 358.537 62.7867 360.777 62.2C362.377 61.8267 363.15 60.84 363.097 59.24ZM402.104 31.4C403.224 28.7867 403.944 28.7333 404.264 31.24L406.104 50.84C408.131 68.4933 407.891 79.6933 405.384 84.44C405.011 85.08 404.718 85.24 404.504 84.92C404.291 84.6533 404.184 84.2 404.184 83.56C404.291 79.08 403.971 74.04 403.224 68.44C403.224 68.2267 402.664 63.16 401.544 53.24L399.784 38.76C399.678 37.6933 399.784 36.7867 400.104 36.04L402.104 31.4ZM449.208 69.48C451.074 64.3067 453.261 61.7467 455.768 61.8C457.314 61.8 458.754 62.8667 460.088 65C460.781 66.0667 461.314 67.1867 461.688 68.36C462.061 69.5333 462.354 70.7867 462.568 72.12C462.994 74.7867 462.594 78.4933 461.368 83.24C460.141 87.9867 457.794 92.3333 454.328 96.28C450.808 100.28 448.008 102.387 445.928 102.6C443.794 102.813 440.968 102.653 437.448 102.12C435.688 101.853 434.194 101.533 432.967 101.16C431.687 100.84 430.647 100.52 429.847 100.2C429.261 99.9333 428.994 99.6133 429.047 99.24C429.154 98.8133 429.501 98.6533 430.087 98.76C434.248 99.3467 438.221 99.1867 442.008 98.28C443.128 98.0133 444.488 97.3467 446.088 96.28C447.741 95.2133 449.634 93.7467 451.768 91.88C453.901 90.0133 455.608 88.3067 456.888 86.76C458.168 85.2133 458.994 83.8 459.368 82.52C459.101 80.28 458.781 79.0533 458.408 78.84C456.381 81.9867 453.794 82.76 450.648 81.16C447.501 79.56 447.021 75.6667 449.208 69.48ZM456.488 72.44C454.941 69.9333 453.288 69.8267 451.528 72.12C452.861 73.6133 454.514 73.72 456.488 72.44ZM490.083 5.03999C491.256 4.29333 491.683 4.53333 491.363 5.76L490.643 8.08C490.483 8.66666 489.949 9.22666 489.043 9.75999L475.043 17.84C474.189 18.32 473.763 18.1067 473.763 17.2V16C473.763 15.5733 474.189 15.0133 475.043 14.32L490.083 5.03999ZM481.319 59.24C481.745 57.9067 482.145 56.84 482.519 56.04C482.945 55.1867 483.319 54.5733 483.639 54.2C484.119 53.6667 484.732 53.6133 485.479 54.04C492.519 57.9333 496.652 63.1867 497.879 69.8C498.199 71.6133 498.332 73.3467 498.279 75C498.225 76.6533 497.959 78.1733 497.479 79.56C497.159 80.36 496.599 81 495.799 81.48C493.292 82.8133 490.625 83.8 487.799 84.44C484.972 85.08 482.039 85.4267 478.999 85.48C474.732 85.5867 473.239 82.8667 474.519 77.32C474.679 76.7333 474.999 76.3867 475.479 76.28C475.852 76.28 476.252 76.4667 476.679 76.84C477.745 77.6933 479.745 77.9333 482.679 77.56C489.079 76.76 493.319 75.7467 495.399 74.52C495.559 74.4133 495.612 74.0933 495.559 73.56C494.599 68.2267 490.252 64.0667 482.519 61.08C481.452 60.6533 481.052 60.04 481.319 59.24ZM482.839 33.4C482.945 33.24 483.159 33.1867 483.479 33.24C485.612 33.9867 487.505 35.1067 489.159 36.6C489.372 36.8133 489.399 37.0267 489.239 37.24L485.479 43.32C485.319 43.5867 485.052 43.56 484.679 43.24C484.465 43.08 483.905 42.7067 482.999 42.12C482.092 41.5333 480.785 40.7333 479.079 39.72C478.812 39.56 478.759 39.4 478.919 39.24L482.839 33.4ZM533.254 27.4C533.467 27.0267 533.654 26.8667 533.814 26.92C534.08 26.92 534.294 27.48 534.454 28.6C535.414 36.8667 536.054 43.9333 536.374 49.8C536.64 55.3467 536.854 59.8 537.014 63.16C537.227 66.52 537.36 68.7867 537.414 69.96C537.787 74.8667 540.454 77.48 545.414 77.8C546.854 77.9067 547.414 78.8667 547.094 80.68C546.614 83.56 546.054 85 545.414 85C538.427 85 534.694 81.7467 534.214 75.24C534 72.52 533.814 69.8 533.654 67.08C533.547 64.3067 533.44 61.5333 533.334 58.76C533.174 53.2133 532.854 48.7333 532.374 45.32C531.894 41.8533 531.254 37.9333 530.454 33.56C530.294 32.76 530.374 32.0933 530.694 31.56L533.254 27.4ZM563.051 5.03999C564.225 4.29333 564.651 4.53333 564.331 5.76L563.611 8.08C563.451 8.66666 562.918 9.22666 562.011 9.75999L548.011 17.84C547.158 18.32 546.731 18.1067 546.731 17.2V16C546.731 15.5733 547.158 15.0133 548.011 14.32L563.051 5.03999ZM557.775 69.16L560.015 64.2C560.495 63.24 561.002 63.24 561.535 64.2C562.815 66.3867 563.375 69.8 563.215 74.44C563.108 76.7333 562.442 78.7067 561.215 80.36C558.548 83.9333 553.268 85.48 545.375 85C544.415 84.8933 543.695 83.1067 543.215 79.64C542.948 78.0933 543.668 77.48 545.375 77.8C547.135 78.12 549.108 78.1733 551.295 77.96C552.415 77.8533 553.695 77.6133 555.135 77.24C556.628 76.8667 558.282 76.3333 560.095 75.64C559.828 74.7333 559.508 73.9067 559.135 73.16C558.815 72.36 558.442 71.6933 558.015 71.16C557.535 70.5733 557.455 69.9067 557.775 69.16ZM560.255 94.6C560.362 94.44 560.575 94.3867 560.895 94.44C561.802 94.8133 562.682 95.24 563.535 95.72C564.388 96.2 565.188 96.76 565.935 97.4C566.148 97.6133 566.175 97.8267 566.015 98.04L562.575 103.56C562.468 103.72 562.255 103.667 561.935 103.4C561.775 103.24 561.348 102.947 560.655 102.52C560.015 102.147 559.082 101.613 557.855 100.92L555.135 105.16C554.975 105.373 554.735 105.347 554.415 105.08C554.202 104.92 553.668 104.573 552.815 104.04C552.015 103.507 550.868 102.787 549.375 101.88C549.162 101.773 549.135 101.64 549.295 101.48L552.815 96.2C552.922 96.04 553.108 95.9867 553.375 96.04C554.175 96.3067 554.922 96.6533 555.615 97.08C556.362 97.5067 557.055 97.96 557.695 98.44L560.255 94.6Z" fill="url(#paint0_linear_4_23)"/>
<defs>
<linearGradient id="paint0_linear_4_23" x1="298.961" y1="-88.5" x2="289.485" y2="110.261" gradientUnits="userSpaceOnUse">
<stop stop-color="#FFD700"/>
<stop offset="1" stop-color="#FF9C72" stop-opacity="0.5"/>
</linearGradient>
</defs>
</svg>
