<svg width="380" height="125" viewBox="0 0 380 125" fill="none" xmlns="http://www.w3.org/2000/svg">
<path d="M23.5825 5.03999C24.7558 4.29333 25.1825 4.53333 24.8625 5.76L24.1425 8.08C23.9825 8.66666 23.4492 9.22666 22.5425 9.75999L8.5425 17.84C7.68917 18.32 7.2625 18.1067 7.2625 17.2V16C7.2625 15.5733 7.68917 15.0133 8.5425 14.32L23.5825 5.03999ZM39.88 66.2C40.52 67.2133 41.0267 68.4933 41.4 70.04C41.8267 71.5333 42.0667 73.32 42.12 75.4C42.2267 77.48 42.1467 79.5067 41.88 81.48C41.6133 83.4 41.16 85.2933 40.52 87.16C39.24 90.84 36.7067 94.04 32.92 96.76C29.1333 99.48 24.2533 100.92 18.28 101.08C9.21333 101.347 3.8 98.6 2.04 92.84C0.973333 89.2667 1 85.56 2.12 81.72C2.70667 79.7467 3.4 77.88 4.2 76.12C5 74.3067 5.90667 72.5733 6.92 70.92C7.18667 70.6 7.42667 70.44 7.64 70.44C7.96 70.44 8.17333 70.5733 8.28 70.84C8.38667 71.1067 8.36 71.4267 8.2 71.8C4.36 78.84 3.24 83.9867 4.84 87.24C7.02667 91.9333 11.64 94.0667 18.68 93.64C23.7467 93.32 28.1467 92.2267 31.88 90.36C35.4533 88.5467 37.8533 86.52 39.08 84.28C39.1333 84.1733 39.1867 84.04 39.24 83.88C39.2933 83.6667 39.3467 83.4 39.4 83.08C39.5067 82.76 39.48 82.1733 39.32 81.32C39.16 80.4133 38.9467 79.24 38.68 77.8C38.1467 74.92 37.3467 72.6 36.28 70.84C36.1733 70.5733 36.1733 70.2267 36.28 69.8L37.64 64.76C37.7467 64.3867 37.88 64.2 38.04 64.2C38.1467 64.1467 38.2533 64.1733 38.36 64.28C38.7867 64.6 39.2933 65.24 39.88 66.2ZM20.6 46.92C20.7067 46.76 20.92 46.7067 21.24 46.76C23.3733 47.5067 25.2667 48.6267 26.92 50.12C27.1333 50.3333 27.16 50.5467 27 50.76L23.24 56.84C23.08 57.1067 22.8133 57.08 22.44 56.76C22.2267 56.6 21.6667 56.2267 20.76 55.64C19.8533 55.0533 18.5467 54.2533 16.84 53.24C16.5733 53.08 16.52 52.92 16.68 52.76L20.6 46.92ZM35.1881 6.28C37.3215 2.38666 40.0681 1.72 43.4281 4.27999C45.6148 5.98666 46.7881 7.98666 46.9481 10.28C47.1081 13.16 46.2281 15.2933 44.3081 16.68C42.8681 17.64 41.1348 18.04 39.1081 17.88C34.8415 17.56 33.1081 14.8933 33.9081 9.87999C34.0148 9.18666 34.1748 8.54666 34.3881 7.96C34.6548 7.37333 34.9215 6.81333 35.1881 6.28ZM43.6681 12.28C45.2148 11.8533 45.1881 10.84 43.5881 9.24C42.4148 8.06666 41.0015 7.48 39.3481 7.48C37.3748 7.42666 36.3348 8.28 36.2281 10.04C36.2281 11.2133 36.6548 11.96 37.5081 12.28C39.3748 12.92 41.4281 12.92 43.6681 12.28ZM57.7994 85C55.506 84.68 53.826 83.5867 52.7594 81.72C51.7994 80.0133 50.786 75.72 49.7194 68.84C49.666 68.52 49.5594 68.4933 49.3994 68.76C47.6927 71.96 45.3194 73.7733 42.2794 74.2C40.466 74.4133 39.346 73.3733 38.9194 71.08C38.546 68.4667 39.2394 67.32 40.9994 67.64C45.106 68.3867 48.1994 66.44 50.2794 61.8C50.5994 61.0533 50.9994 60.7333 51.4794 60.84C52.0127 60.9467 52.306 61.3467 52.3594 62.04C52.9994 68.9733 53.7194 73.2933 54.5194 75C55.3194 76.6533 56.4127 77.5867 57.7994 77.8C59.2394 78.0133 59.7994 79.2933 59.4794 81.64C59.1594 83.9867 58.5994 85.1067 57.7994 85ZM49.1594 91.88C49.266 91.72 49.4794 91.6667 49.7994 91.72C50.706 92.0933 51.586 92.52 52.4394 93C53.2927 93.48 54.0927 94.04 54.8394 94.68C55.0527 94.8933 55.0794 95.1067 54.9194 95.32L51.4794 100.84C51.3727 101 51.1594 100.947 50.8394 100.68C50.6794 100.52 50.2527 100.227 49.5594 99.8C48.9194 99.4267 47.986 98.8933 46.7594 98.2L44.0394 102.44C43.8794 102.653 43.6394 102.627 43.3194 102.36C43.106 102.2 42.5727 101.853 41.7194 101.32C40.9194 100.787 39.7727 100.067 38.2794 99.16C38.066 99.0533 38.0394 98.92 38.1994 98.76L41.7194 93.48C41.826 93.32 42.0127 93.2667 42.2794 93.32C43.0794 93.5867 43.826 93.9333 44.5194 94.36C45.266 94.7867 45.9594 95.24 46.5994 95.72L49.1594 91.88ZM83.9731 111.08C85.1465 110.333 85.5731 110.573 85.2531 111.8L84.5331 114.12C84.3731 114.707 83.8398 115.267 82.9331 115.8L68.9331 123.88C68.0798 124.36 67.6531 124.147 67.6531 123.24V122.04C67.6531 121.613 68.0798 121.053 68.9331 120.36L83.9731 111.08ZM75.6213 65C75.9413 64.84 76.1813 64.8933 76.3413 65.16C78.2613 68.04 80.8213 70.76 84.0213 73.32C87.2746 75.9333 90.9013 77.4267 94.9013 77.8C95.9146 77.8533 96.4213 78.52 96.4213 79.8C96.4213 83.2667 95.9146 85 94.9013 85C91.2746 85 87.5146 83.6667 83.6213 81C83.3546 83.9867 83.0346 85.6667 82.6613 86.04C82.2346 86.4667 81.7279 86.68 81.1413 86.68C75.1146 86.2 70.1279 83.56 66.1813 78.76C66.0213 78.5467 65.8346 78.5733 65.6213 78.84C62.9546 82.84 60.3413 84.8933 57.7812 85C57.1946 85 56.7946 84.5733 56.5812 83.72C55.9412 81.32 55.9679 79.6133 56.6612 78.6C57.0346 78.0667 57.4079 77.8 57.7812 77.8C62.7946 77.64 65.8613 76.36 66.9813 73.96C69.3279 69.2133 72.2079 66.2267 75.6213 65ZM75.3013 70.92C75.1946 70.76 75.0079 70.7067 74.7413 70.76C73.1413 71.1333 71.9946 71.8 71.3013 72.76C71.0346 73.1333 71.0613 73.4267 71.3813 73.64C72.3413 74.44 73.3813 75.16 74.5013 75.8C75.6746 76.3867 76.9279 76.8933 78.2613 77.32C78.6346 77.4267 78.8479 77.4267 78.9012 77.32C79.0079 77.2133 78.9546 77.0533 78.7413 76.84C78.2079 76.0933 77.6479 75.24 77.0613 74.28C76.4746 73.2667 75.8879 72.1467 75.3013 70.92ZM103.895 5.03999C105.068 4.29333 105.495 4.53333 105.175 5.76L104.455 8.08C104.295 8.66666 103.762 9.22666 102.855 9.75999L88.855 17.84C88.0017 18.32 87.575 18.1067 87.575 17.2V16C87.575 15.5733 88.0017 15.0133 88.855 14.32L103.895 5.03999ZM96.0925 32.2C96.8925 30.28 97.3725 29.08 97.5325 28.6C97.6925 28.12 97.9592 27.88 98.3325 27.88C98.7592 27.88 99.0525 28.1467 99.2125 28.68C100.013 31.08 101.159 33.0267 102.653 34.52C103.186 35 103.159 35.6133 102.573 36.36L100.813 38.84C100.973 40.3333 101.133 41.7733 101.293 43.16C101.453 44.5467 101.613 45.88 101.773 47.16C103.533 60.44 104.146 68.4933 103.613 71.32C101.906 79.8 98.9725 84.36 94.8125 85C94.7058 85 94.5992 85 94.4925 85C93.7458 84.7867 93.4525 83.0267 93.6125 79.72C93.6125 78.4933 94.0125 77.8533 94.8125 77.8C97.7458 77.48 99.7725 76.28 100.893 74.2C100.839 72.12 100.626 69.4267 100.253 66.12C99.9325 62.8133 99.4792 58.9467 98.8925 54.52C98.3592 50.0933 97.9058 46.52 97.5325 43.8C97.1592 41.08 96.9192 39.2133 96.8125 38.2L96.0125 33.64C95.9592 33 95.9858 32.52 96.0925 32.2ZM114.957 27.4C115.17 27.0267 115.357 26.8667 115.517 26.92C115.784 26.92 115.997 27.48 116.157 28.6C117.117 36.8667 117.757 43.9333 118.077 49.8C118.344 55.3467 118.557 59.8 118.717 63.16C118.93 66.52 119.064 68.7867 119.117 69.96C119.49 74.8667 122.157 77.48 127.117 77.8C128.557 77.9067 129.117 78.8667 128.797 80.68C128.317 83.56 127.757 85 127.117 85C120.13 85 116.397 81.7467 115.917 75.24C115.704 72.52 115.517 69.8 115.357 67.08C115.25 64.3067 115.144 61.5333 115.037 58.76C114.877 53.2133 114.557 48.7333 114.077 45.32C113.597 41.8533 112.957 37.9333 112.157 33.56C111.997 32.76 112.077 32.0933 112.397 31.56L114.957 27.4ZM146.786 5.03999C147.959 4.29333 148.386 4.53333 148.066 5.76L147.346 8.08C147.186 8.66666 146.652 9.22666 145.746 9.75999L131.746 17.84C130.892 18.32 130.466 18.1067 130.466 17.2V16C130.466 15.5733 130.892 15.0133 131.746 14.32L146.786 5.03999ZM156.358 77.8C158.171 77.8 158.971 78.7333 158.758 80.6C158.331 83.48 157.531 84.9467 156.358 85C151.451 85.32 146.518 82.5733 141.558 76.76C134.838 82.3067 130.011 85.0533 127.078 85C125.851 85 125.025 83.9867 124.598 81.96C124.118 79.2933 124.945 77.9067 127.078 77.8C128.731 77.6933 130.331 77.3733 131.878 76.84C133.478 76.3067 135.025 75.5333 136.518 74.52C134.865 72.8667 132.438 71.8 129.238 71.32C128.918 71.2667 128.785 70.9733 128.838 70.44C129.051 68.8933 130.438 67 132.998 64.76C137.585 61.0267 142.731 60.8933 148.438 64.36C151.158 66.0133 152.438 67.6133 152.278 69.16C152.118 70.76 150.251 72.68 146.678 74.92C148.598 76.84 151.825 77.8 156.358 77.8ZM157.655 32.2C158.455 30.28 158.935 29.08 159.095 28.6C159.255 28.12 159.522 27.88 159.895 27.88C160.322 27.88 160.615 28.1467 160.775 28.68C161.575 31.08 162.722 33.0267 164.215 34.52C164.748 35 164.722 35.6133 164.135 36.36L162.375 38.84C162.535 40.3333 162.695 41.7733 162.855 43.16C163.015 44.5467 163.175 45.88 163.335 47.16C165.095 60.44 165.708 68.4933 165.175 71.32C163.468 79.8 160.535 84.36 156.375 85C156.268 85 156.162 85 156.055 85C155.308 84.7867 155.015 83.0267 155.175 79.72C155.175 78.4933 155.575 77.8533 156.375 77.8C159.308 77.48 161.335 76.28 162.455 74.2C162.402 72.12 162.188 69.4267 161.815 66.12C161.495 62.8133 161.042 58.9467 160.455 54.52C159.922 50.0933 159.468 46.52 159.095 43.8C158.722 41.08 158.482 39.2133 158.375 38.2L157.575 33.64C157.522 33 157.548 32.52 157.655 32.2ZM177.479 31.4C178.599 28.7867 179.319 28.7333 179.639 31.24L181.479 50.84C183.506 68.4933 183.266 79.6933 180.759 84.44C180.386 85.08 180.093 85.24 179.879 84.92C179.666 84.6533 179.559 84.2 179.559 83.56C179.666 79.08 179.346 74.04 178.599 68.44C178.599 68.2267 178.039 63.16 176.919 53.24L175.159 38.76C175.053 37.6933 175.159 36.7867 175.479 36.04L177.479 31.4ZM260.692 111.08C261.865 110.333 262.292 110.573 261.972 111.8L261.252 114.12C261.092 114.707 260.559 115.267 259.652 115.8L245.652 123.88C244.799 124.36 244.372 124.147 244.372 123.24V122.04C244.372 121.613 244.799 121.053 245.652 120.36L260.692 111.08ZM253.777 9.4C253.884 8.44 254.204 8.01333 254.737 8.12C255.377 8.17333 255.67 8.6 255.617 9.4C255.51 11.64 255.084 13.56 254.337 15.16C253.484 16.9733 252.284 17.9333 250.737 18.04C249.777 18.1467 248.844 17.64 247.937 16.52C247.67 17.0533 247.324 17.5333 246.897 17.96C246.47 18.3333 246.017 18.6533 245.537 18.92C244.417 19.5067 243.35 19.56 242.337 19.08C239.884 18.0667 239.617 15.08 241.537 10.12C241.857 9.37333 242.31 9.13333 242.897 9.4C243.377 9.61333 243.51 10.0667 243.297 10.76C242.604 13.2667 242.924 14.6267 244.257 14.84C245.857 15 247.137 13.2667 248.097 9.63999C248.257 8.89333 248.577 8.6 249.057 8.76C249.644 8.86666 249.857 9.18666 249.697 9.72C249.324 11.8533 249.857 12.92 251.297 12.92C252.684 12.92 253.51 11.7467 253.777 9.4ZM276.743 55.24C277.489 56.0933 278.103 57.1333 278.583 58.36C279.116 59.5867 279.516 60.9733 279.783 62.52C280.316 65.56 280.263 68.5467 279.623 71.48C278.983 74.36 277.916 76.2267 276.423 77.08C272.156 79.5333 267.356 81.48 262.023 82.92C256.689 84.36 250.823 85.24 244.423 85.56C231.623 86.2 223.036 83.8 218.663 78.36C215.836 74.84 215.409 70.76 217.383 66.12C217.809 65.16 218.369 64.1733 219.063 63.16C219.809 62.0933 220.689 61 221.703 59.88C222.023 59.5067 222.369 59.3733 222.743 59.48C223.009 59.5333 223.196 59.7467 223.303 60.12C223.409 60.44 223.329 60.7333 223.063 61C222.103 62.0667 221.329 63.2133 220.743 64.44C220.209 65.6133 220.076 66.7067 220.343 67.72C222.209 74.6533 229.943 77.9867 243.543 77.72C250.369 77.6133 256.556 76.92 262.103 75.64C267.703 74.3067 272.689 72.3867 277.063 69.88C276.903 67.8 275.623 65.24 273.223 62.2C273.116 62.04 273.169 61.4 273.383 60.28C273.436 60.1733 273.463 60.0933 273.463 60.04C273.729 58.76 274.316 57.16 275.223 55.24C275.543 54.4933 276.049 54.4933 276.743 55.24ZM248.823 95.96C248.929 95.8 249.143 95.7467 249.463 95.8C251.596 96.5467 253.489 97.6667 255.142 99.16C255.356 99.3733 255.383 99.5867 255.223 99.8L251.462 105.88C251.303 106.147 251.036 106.12 250.663 105.8C250.449 105.64 249.889 105.267 248.983 104.68C248.076 104.093 246.769 103.293 245.063 102.28C244.796 102.12 244.743 101.96 244.903 101.8L248.823 95.96ZM306.708 5.03999C307.881 4.29333 308.308 4.53333 307.988 5.76L307.268 8.08C307.108 8.66666 306.574 9.22666 305.668 9.75999L291.668 17.84C290.814 18.32 290.388 18.1067 290.388 17.2V16C290.388 15.5733 290.814 15.0133 291.668 14.32L306.708 5.03999ZM304.805 62.68C304.858 62.4667 304.938 62.3333 305.045 62.28C305.312 62.1733 305.712 62.3867 306.245 62.92C308.325 65.0533 309.872 67.9067 310.885 71.48C311.952 75.16 312.325 78.7333 312.005 82.2C311.365 86.8933 309.498 91.2133 306.405 95.16C303.312 99.16 299.258 101.8 294.245 103.08C292.965 103.453 291.685 103.427 290.405 103C287.312 101.933 284.805 101 282.885 100.2C280.912 99.4533 279.552 98.84 278.805 98.36C278.592 98.2 278.485 98.04 278.485 97.88C278.485 97.6667 278.565 97.48 278.725 97.32C278.885 97.16 279.125 97.1333 279.445 97.24C281.312 97.7733 283.018 98.12 284.565 98.28C286.112 98.4933 287.552 98.52 288.885 98.36C290.218 98.2 291.632 97.8 293.125 97.16C294.672 96.5733 296.298 95.72 298.005 94.6C303.072 91.3467 306.778 87.5067 309.125 83.08C309.338 82.76 309.392 82.3333 309.285 81.8C308.485 78.9733 306.405 75.48 303.045 71.32C302.885 71.0533 302.832 70.84 302.885 70.68L304.805 62.68ZM346.598 27.4C346.811 27.0267 346.998 26.8667 347.158 26.92C347.424 26.92 347.638 27.48 347.798 28.6C348.758 36.8667 349.398 43.9333 349.718 49.8C349.984 55.3467 350.198 59.8 350.358 63.16C350.571 66.52 350.704 68.7867 350.758 69.96C351.131 74.8667 353.798 77.48 358.758 77.8C360.198 77.9067 360.758 78.8667 360.438 80.68C359.958 83.56 359.398 85 358.758 85C351.771 85 348.038 81.7467 347.558 75.24C347.344 72.52 347.158 69.8 346.998 67.08C346.891 64.3067 346.784 61.5333 346.678 58.76C346.518 53.2133 346.198 48.7333 345.717 45.32C345.238 41.8533 344.598 37.9333 343.798 33.56C343.638 32.76 343.718 32.0933 344.038 31.56L346.598 27.4ZM376.395 5.03999C377.568 4.29333 377.995 4.53333 377.675 5.76L376.955 8.08C376.795 8.66666 376.262 9.22666 375.355 9.75999L361.355 17.84C360.502 18.32 360.075 18.1067 360.075 17.2V16C360.075 15.5733 360.502 15.0133 361.355 14.32L376.395 5.03999ZM371.119 69.16L373.359 64.2C373.839 63.24 374.345 63.24 374.879 64.2C376.159 66.3867 376.719 69.8 376.559 74.44C376.452 76.7333 375.785 78.7067 374.559 80.36C371.892 83.9333 366.612 85.48 358.719 85C357.759 84.8933 357.039 83.1067 356.559 79.64C356.292 78.0933 357.012 77.48 358.719 77.8C360.479 78.12 362.452 78.1733 364.639 77.96C365.759 77.8533 367.039 77.6133 368.479 77.24C369.972 76.8667 371.625 76.3333 373.439 75.64C373.172 74.7333 372.852 73.9067 372.479 73.16C372.159 72.36 371.785 71.6933 371.359 71.16C370.879 70.5733 370.799 69.9067 371.119 69.16ZM373.599 94.6C373.705 94.44 373.919 94.3867 374.239 94.44C375.145 94.8133 376.025 95.24 376.879 95.72C377.732 96.2 378.532 96.76 379.279 97.4C379.492 97.6133 379.519 97.8267 379.359 98.04L375.919 103.56C375.812 103.72 375.599 103.667 375.279 103.4C375.119 103.24 374.692 102.947 373.999 102.52C373.359 102.147 372.425 101.613 371.199 100.92L368.479 105.16C368.319 105.373 368.079 105.347 367.759 105.08C367.545 104.92 367.012 104.573 366.159 104.04C365.359 103.507 364.212 102.787 362.719 101.88C362.505 101.773 362.479 101.64 362.639 101.48L366.159 96.2C366.265 96.04 366.452 95.9867 366.719 96.04C367.519 96.3067 368.265 96.6533 368.959 97.08C369.705 97.5067 370.399 97.96 371.039 98.44L373.599 94.6Z" fill="url(#paint0_linear_4_22)"/>
<defs>
<linearGradient id="paint0_linear_4_22" x1="201.604" y1="-88.5" x2="187.61" y2="109.725" gradientUnits="userSpaceOnUse">
<stop stop-color="#FFD700"/>
<stop offset="1" stop-color="#FF9C72" stop-opacity="0.5"/>
</linearGradient>
</defs>
</svg>
