<svg width="809" height="140" viewBox="0 0 809 140" fill="none" xmlns="http://www.w3.org/2000/svg">
<path d="M20.0563 10.52C20.8029 10.4133 21.4696 10.8133 22.0563 11.72C23.2829 13.5867 23.2829 16.0667 22.0563 19.16C22.4829 19.3733 22.8029 19.5867 23.0163 19.8C23.2829 19.96 23.5229 20.0667 23.7363 20.12C24.3763 20.3867 24.5096 20.8667 24.1363 21.56L23.3363 23.08C23.0696 23.56 22.7229 23.72 22.2963 23.56C21.7629 23.4 21.1229 23.1067 20.3763 22.68C17.0163 27.0533 13.2296 30.28 9.01625 32.36C8.16292 32.84 7.54958 32.7867 7.17625 32.2C6.80292 31.4533 7.12292 30.8133 8.13625 30.28C12.4563 27.7733 15.8963 24.8667 18.4563 21.56C17.0696 20.8133 16.0563 20.1467 15.4163 19.56C14.2963 18.4933 14.0029 17.32 14.5363 16.04C15.8696 12.7333 17.7096 10.8933 20.0563 10.52ZM19.2563 15.16C18.1896 14.2 17.3363 14.28 16.6963 15.4C16.4829 15.6667 16.5896 16.0133 17.0163 16.44C17.4963 16.92 18.5096 17.5333 20.0563 18.28C20.2696 16.7867 20.0029 15.7467 19.2563 15.16ZM39.9425 81.2C40.5825 82.2133 41.0892 83.4933 41.4625 85.04C41.8892 86.5333 42.1292 88.32 42.1825 90.4C42.2892 92.48 42.2092 94.5067 41.9425 96.48C41.6758 98.4 41.2225 100.293 40.5825 102.16C39.3025 105.84 36.7692 109.04 32.9825 111.76C29.1958 114.48 24.3158 115.92 18.3425 116.08C9.27583 116.347 3.8625 113.6 2.1025 107.84C1.03583 104.267 1.0625 100.56 2.1825 96.72C2.76917 94.7467 3.4625 92.88 4.2625 91.12C5.0625 89.3067 5.96917 87.5733 6.9825 85.92C7.24917 85.6 7.48917 85.44 7.7025 85.44C8.0225 85.44 8.23583 85.5733 8.3425 85.84C8.44917 86.1067 8.4225 86.4267 8.2625 86.8C4.4225 93.84 3.3025 98.9867 4.9025 102.24C7.08917 106.933 11.7025 109.067 18.7425 108.64C23.8092 108.32 28.2092 107.227 31.9425 105.36C35.5158 103.547 37.9158 101.52 39.1425 99.28C39.1958 99.1733 39.2492 99.04 39.3025 98.88C39.3558 98.6667 39.4092 98.4 39.4625 98.08C39.5692 97.76 39.5425 97.1733 39.3825 96.32C39.2225 95.4133 39.0092 94.24 38.7425 92.8C38.2092 89.92 37.4092 87.6 36.3425 85.84C36.2358 85.5733 36.2358 85.2267 36.3425 84.8L37.7025 79.76C37.8092 79.3867 37.9425 79.2 38.1025 79.2C38.2092 79.1467 38.3158 79.1733 38.4225 79.28C38.8492 79.6 39.3558 80.24 39.9425 81.2ZM20.6625 61.92C20.7692 61.76 20.9825 61.7067 21.3025 61.76C23.4358 62.5067 25.3292 63.6267 26.9825 65.12C27.1958 65.3333 27.2225 65.5467 27.0625 65.76L23.3025 71.84C23.1425 72.1067 22.8758 72.08 22.5025 71.76C22.2892 71.6 21.7292 71.2267 20.8225 70.64C19.9158 70.0533 18.6092 69.2533 16.9025 68.24C16.6358 68.08 16.5825 67.92 16.7425 67.76L20.6625 61.92ZM57.8619 100C55.5685 99.68 53.8885 98.5867 52.8219 96.72C51.8619 95.0133 50.8485 90.72 49.7819 83.84C49.7285 83.52 49.6219 83.4933 49.4619 83.76C47.7552 86.96 45.3819 88.7733 42.3419 89.2C40.5285 89.4133 39.4085 88.3733 38.9819 86.08C38.6085 83.4667 39.3019 82.32 41.0619 82.64C45.1685 83.3867 48.2619 81.44 50.3419 76.8C50.6619 76.0533 51.0619 75.7333 51.5419 75.84C52.0752 75.9467 52.3685 76.3467 52.4219 77.04C53.0619 83.9733 53.7819 88.2933 54.5819 90C55.3819 91.6533 56.4752 92.5867 57.8619 92.8C59.3019 93.0133 59.8619 94.2933 59.5419 96.64C59.2219 98.9867 58.6619 100.107 57.8619 100ZM49.2219 106.88C49.3285 106.72 49.5419 106.667 49.8619 106.72C50.7685 107.093 51.6485 107.52 52.5019 108C53.3552 108.48 54.1552 109.04 54.9019 109.68C55.1152 109.893 55.1419 110.107 54.9819 110.32L51.5419 115.84C51.4352 116 51.2219 115.947 50.9019 115.68C50.7419 115.52 50.3152 115.227 49.6219 114.8C48.9819 114.427 48.0485 113.893 46.8219 113.2L44.1019 117.44C43.9419 117.653 43.7019 117.627 43.3819 117.36C43.1685 117.2 42.6352 116.853 41.7819 116.32C40.9819 115.787 39.8352 115.067 38.3419 114.16C38.1285 114.053 38.1019 113.92 38.2619 113.76L41.7819 108.48C41.8885 108.32 42.0752 108.267 42.3419 108.32C43.1419 108.587 43.8885 108.933 44.5819 109.36C45.3285 109.787 46.0219 110.24 46.6619 110.72L49.2219 106.88ZM73.8794 126.08C75.0527 125.333 75.4794 125.573 75.1594 126.8L74.4394 129.12C74.2794 129.707 73.746 130.267 72.8394 130.8L58.8394 138.88C57.986 139.36 57.5594 139.147 57.5594 138.24V137.04C57.5594 136.613 57.986 136.053 58.8394 135.36L73.8794 126.08ZM77.3638 92.8C78.3238 93.0667 78.8304 93.36 78.8838 93.68C78.9904 94.1067 78.9904 94.7467 78.8838 95.6C78.5104 98.5333 78.0038 100 77.3638 100C74.4838 100 71.6038 98.3733 68.7238 95.12C66.2704 98.0533 62.6438 99.68 57.8438 100C57.3104 100 56.9637 99.6 56.8037 98.8L56.1637 95.44C56.0037 94.96 56.1104 94.4 56.4837 93.76C56.8037 93.2267 57.2571 92.9067 57.8438 92.8C63.7104 92.32 67.6571 90.56 69.6838 87.52C69.9504 87.0933 70.3238 86.88 70.8038 86.88C71.2838 86.88 71.5238 87.12 71.5238 87.6C71.5238 88.0267 71.5771 88.3467 71.6838 88.56C73.4438 90.96 75.3371 92.3733 77.3638 92.8ZM66.7238 108.96C66.8304 108.8 67.0438 108.747 67.3638 108.8C69.4971 109.547 71.3904 110.667 73.0438 112.16C73.2571 112.373 73.2838 112.587 73.1238 112.8L69.3638 118.88C69.2038 119.147 68.9371 119.12 68.5638 118.8C68.3504 118.64 67.7904 118.267 66.8838 117.68C65.9771 117.093 64.6704 116.293 62.9638 115.28C62.6971 115.12 62.6438 114.96 62.8038 114.8L66.7238 108.96ZM95.3688 10.52C96.1154 10.4133 96.7821 10.8133 97.3688 11.72C98.5954 13.5867 98.5954 16.0667 97.3688 19.16C97.7954 19.3733 98.1154 19.5867 98.3288 19.8C98.5954 19.96 98.8354 20.0667 99.0488 20.12C99.6888 20.3867 99.8221 20.8667 99.4488 21.56L98.6488 23.08C98.3821 23.56 98.0354 23.72 97.6088 23.56C97.0754 23.4 96.4354 23.1067 95.6888 22.68C92.3288 27.0533 88.5421 30.28 84.3288 32.36C83.4754 32.84 82.8621 32.7867 82.4888 32.2C82.1154 31.4533 82.4354 30.8133 83.4488 30.28C87.7688 27.7733 91.2088 24.8667 93.7688 21.56C92.3821 20.8133 91.3688 20.1467 90.7288 19.56C89.6088 18.4933 89.3154 17.32 89.8488 16.04C91.1821 12.7333 93.0221 10.8933 95.3688 10.52ZM94.5688 15.16C93.5021 14.2 92.6488 14.28 92.0088 15.4C91.7954 15.6667 91.9021 16.0133 92.3288 16.44C92.8088 16.92 93.8221 17.5333 95.3688 18.28C95.5821 16.7867 95.3154 15.7467 94.5688 15.16ZM95.215 80C95.535 79.84 95.775 79.8933 95.935 80.16C97.855 83.04 100.415 85.76 103.615 88.32C106.868 90.9333 110.495 92.4267 114.495 92.8C115.508 92.8533 116.015 93.52 116.015 94.8C116.015 98.2667 115.508 100 114.495 100C110.868 100 107.108 98.6667 103.215 96C102.948 98.9867 102.628 100.667 102.255 101.04C101.828 101.467 101.322 101.68 100.735 101.68C94.7083 101.2 89.7217 98.56 85.775 93.76C85.615 93.5467 85.4283 93.5733 85.215 93.84C82.5483 97.84 79.935 99.8933 77.375 100C76.7883 100 76.3883 99.5733 76.175 98.72C75.535 96.32 75.5617 94.6133 76.255 93.6C76.6283 93.0667 77.0017 92.8 77.375 92.8C82.3883 92.64 85.455 91.36 86.575 88.96C88.9217 84.2133 91.8017 81.2267 95.215 80ZM94.895 85.92C94.7883 85.76 94.6017 85.7067 94.335 85.76C92.735 86.1333 91.5883 86.8 90.895 87.76C90.6283 88.1333 90.655 88.4267 90.975 88.64C91.935 89.44 92.975 90.16 94.095 90.8C95.2683 91.3867 96.5217 91.8933 97.855 92.32C98.2283 92.4267 98.4417 92.4267 98.495 92.32C98.6017 92.2133 98.5483 92.0533 98.335 91.84C97.8017 91.0933 97.2417 90.24 96.655 89.28C96.0683 88.2667 95.4817 87.1467 94.895 85.92ZM112.36 21.28C114.493 17.3867 117.24 16.72 120.6 19.28C122.787 20.9867 123.96 22.9867 124.12 25.28C124.28 28.16 123.4 30.2933 121.48 31.68C120.04 32.64 118.307 33.04 116.28 32.88C112.013 32.56 110.28 29.8933 111.08 24.88C111.187 24.1867 111.347 23.5467 111.56 22.96C111.827 22.3733 112.093 21.8133 112.36 21.28ZM120.84 27.28C122.387 26.8533 122.36 25.84 120.76 24.24C119.587 23.0667 118.173 22.48 116.52 22.48C114.547 22.4267 113.507 23.28 113.4 25.04C113.4 26.2133 113.827 26.96 114.68 27.28C116.547 27.92 118.6 27.92 120.84 27.28ZM115.686 47.2C116.486 45.28 116.966 44.08 117.126 43.6C117.286 43.12 117.553 42.88 117.926 42.88C118.353 42.88 118.646 43.1467 118.806 43.68C119.606 46.08 120.753 48.0267 122.246 49.52C122.78 50 122.753 50.6133 122.166 51.36L120.406 53.84C120.566 55.3333 120.726 56.7733 120.886 58.16C121.046 59.5467 121.206 60.88 121.366 62.16C123.126 75.44 123.74 83.4933 123.206 86.32C121.5 94.8 118.566 99.36 114.406 100C114.3 100 114.193 100 114.086 100C113.34 99.7867 113.046 98.0267 113.206 94.72C113.206 93.4933 113.606 92.8533 114.406 92.8C117.34 92.48 119.366 91.28 120.486 89.2C120.433 87.12 120.22 84.4267 119.846 81.12C119.526 77.8133 119.073 73.9467 118.486 69.52C117.953 65.0933 117.5 61.52 117.126 58.8C116.753 56.08 116.513 54.2133 116.406 53.2L115.606 48.64C115.553 48 115.58 47.52 115.686 47.2ZM135.511 46.4C136.631 43.7867 137.351 43.7333 137.671 46.24L139.511 65.84C141.537 83.4933 141.297 94.6933 138.791 99.44C138.417 100.08 138.124 100.24 137.911 99.92C137.697 99.6533 137.591 99.2 137.591 98.56C137.697 94.08 137.377 89.04 136.631 83.44C136.631 83.2267 136.071 78.16 134.951 68.24L133.191 53.76C133.084 52.6933 133.191 51.7867 133.511 51.04L135.511 46.4ZM199.409 0.639997C200.209 0.373331 200.902 0.61333 201.489 1.35999C201.915 1.94666 202.182 2.90666 202.289 4.23999C202.342 5.36 201.809 7.22666 200.689 9.84C201.169 10.1067 201.569 10.3467 201.889 10.56C202.209 10.7733 202.475 10.9333 202.689 11.04C203.115 11.3067 203.169 11.76 202.849 12.4L201.889 14.32C201.515 14.9067 200.449 14.6667 198.689 13.6C197.195 15.5733 195.782 17.2 194.449 18.48C193.062 19.7067 191.755 20.6667 190.529 21.36C189.355 21.9467 188.635 22.0267 188.369 21.6C188.049 21.12 188.582 20.4 189.969 19.44C192.529 17.6267 194.875 15.3067 197.009 12.48C193.755 10.88 192.715 8.8 193.889 6.23999C195.329 3.14666 197.169 1.28 199.409 0.639997ZM198.849 6C198.422 5.25333 197.755 5.12 196.849 5.6C195.942 6.08 195.595 6.45333 195.809 6.72C196.075 7.04 196.449 7.38666 196.929 7.76C197.462 8.13333 198.129 8.53333 198.929 8.96C199.302 7.78666 199.275 6.8 198.849 6ZM202.277 24.4C202.384 23.44 202.704 23.0133 203.237 23.12C203.877 23.1733 204.17 23.6 204.117 24.4C204.01 26.64 203.584 28.56 202.837 30.16C201.984 31.9733 200.784 32.9333 199.237 33.04C198.277 33.1467 197.344 32.64 196.437 31.52C196.17 32.0533 195.824 32.5333 195.397 32.96C194.97 33.3333 194.517 33.6533 194.037 33.92C192.917 34.5067 191.85 34.56 190.837 34.08C188.384 33.0667 188.117 30.08 190.037 25.12C190.357 24.3733 190.81 24.1333 191.397 24.4C191.877 24.6133 192.01 25.0667 191.797 25.76C191.104 28.2667 191.424 29.6267 192.757 29.84C194.357 30 195.637 28.2667 196.597 24.64C196.757 23.8933 197.077 23.6 197.557 23.76C198.144 23.8667 198.357 24.1867 198.197 24.72C197.824 26.8533 198.357 27.92 199.797 27.92C201.184 27.92 202.01 26.7467 202.277 24.4ZM208.054 82.72C211.414 83.0933 213.654 86.4533 214.774 92.8H217.734C218.534 92.8 219.04 93.3867 219.254 94.56C219.36 95.1467 219.414 95.76 219.414 96.4C219.467 97.04 219.414 97.6533 219.254 98.24C218.934 99.4133 218.427 100 217.734 100H214.614C214.56 100.213 214.454 100.667 214.294 101.36C214.134 102.107 213.867 103.12 213.494 104.4C212.747 107.013 211.84 109.013 210.774 110.4C206.56 116.053 200.347 119.387 192.134 120.4C187.547 120.933 183.574 120.267 180.214 118.4C177.494 116.8 175.707 114.56 174.854 111.68C173.36 106.56 174.4 100.88 177.974 94.64L180.294 90.72C180.507 90.3467 180.774 90.16 181.094 90.16C181.414 90.16 181.627 90.3467 181.734 90.72C181.84 91.04 181.814 91.3333 181.654 91.6C180.64 93.2533 180 94.2933 179.734 94.72C176.64 100.053 176.454 104.667 179.174 108.56C180.934 111.12 184.08 112.667 188.614 113.2C193.147 113.733 197.707 113.12 202.294 111.36C206.88 109.6 210.054 106.933 211.814 103.36C212.08 102.613 211.974 101.493 211.494 100C207.067 100 203.92 99.2 202.054 97.6C200.24 96 200.72 92.8533 203.494 88.16C205.734 84.48 207.254 82.6667 208.054 82.72ZM208.934 91.76C208.347 90.4267 207.494 89.76 206.374 89.76C205.254 89.76 204.854 90.1067 205.174 90.8C205.76 92.0267 206.907 92.56 208.614 92.4C208.987 92.3467 209.094 92.1333 208.934 91.76ZM209.014 65.2C209.12 65.04 209.334 64.9867 209.654 65.04C210.56 65.4133 211.44 65.84 212.294 66.32C213.147 66.8 213.947 67.36 214.694 68C214.907 68.2133 214.934 68.4267 214.774 68.64L211.334 74.16C211.227 74.32 211.014 74.2667 210.694 74C210.534 73.84 210.107 73.5733 209.414 73.2C208.774 72.7733 207.84 72.2133 206.614 71.52L203.894 75.76C203.734 75.9733 203.494 75.9467 203.174 75.68C202.96 75.52 202.427 75.1733 201.574 74.64C200.774 74.1067 199.627 73.3867 198.134 72.48C197.92 72.3733 197.894 72.24 198.054 72.08L201.574 66.8C201.68 66.64 201.867 66.5867 202.134 66.64C202.934 66.9067 203.68 67.2533 204.374 67.68C205.12 68.1067 205.814 68.56 206.454 69.04L209.014 65.2ZM223.723 20.04C224.896 19.2933 225.323 19.5333 225.003 20.76L224.283 23.08C224.123 23.6667 223.59 24.2267 222.683 24.76L208.683 32.84C207.83 33.32 207.403 33.1067 207.403 32.2V31C207.403 30.5733 207.83 30.0133 208.683 29.32L223.723 20.04ZM231.048 80C233.554 81.0133 236.274 81.8667 239.208 82.56C242.141 83.2533 245.234 83.8133 248.488 84.24C255.048 85.1467 260.194 85.3867 263.928 84.96C264.408 84.9067 264.728 85.0667 264.888 85.44C265.048 85.8133 265.021 86.2133 264.808 86.64L262.408 90.88C262.141 91.4133 261.688 91.6267 261.048 91.52C252.354 91.04 244.381 91.8933 237.128 94.08C236.861 94.1333 236.008 94.4267 234.568 94.96C233.128 95.44 231.101 96.16 228.488 97.12C223.314 99.04 219.714 100 217.688 100C217.047 100 216.514 99.0933 216.087 97.28C215.554 94.3467 216.114 92.8533 217.768 92.8C219.421 92.7467 222.861 92.0533 228.088 90.72C230.648 90.08 232.594 89.6 233.928 89.28C235.314 88.9067 236.061 88.6933 236.168 88.64C236.274 88.5867 236.354 88.56 236.408 88.56C236.461 88.5067 236.514 88.48 236.568 88.48C236.994 88.32 237.021 88.16 236.648 88C235.474 87.4133 234.168 86.9333 232.728 86.56C231.288 86.1333 229.714 85.7867 228.008 85.52C226.354 85.2533 224.728 85.0667 223.128 84.96C221.581 84.8533 220.114 84.8533 218.728 84.96C218.301 84.96 218.114 84.7733 218.168 84.4C218.328 83.8133 218.568 83.2533 218.888 82.72C219.208 82.1867 219.581 81.6267 220.008 81.04C220.914 79.8133 221.821 79.0933 222.728 78.88C224.861 78.3467 227.634 78.72 231.048 80ZM238.219 21.28C240.353 17.3867 243.099 16.72 246.459 19.28C248.646 20.9867 249.819 22.9867 249.979 25.28C250.139 28.16 249.259 30.2933 247.339 31.68C245.899 32.64 244.166 33.04 242.139 32.88C237.873 32.56 236.139 29.8933 236.939 24.88C237.046 24.1867 237.206 23.5467 237.419 22.96C237.686 22.3733 237.953 21.8133 238.219 21.28ZM246.699 27.28C248.246 26.8533 248.219 25.84 246.619 24.24C245.446 23.0667 244.033 22.48 242.379 22.48C240.406 22.4267 239.366 23.28 239.259 25.04C239.259 26.2133 239.686 26.96 240.539 27.28C242.406 27.92 244.459 27.92 246.699 27.28ZM236.269 74.24C236.055 71.2533 235.735 67.9467 235.309 64.32C234.935 60.6933 234.429 56.6933 233.789 52.32L232.829 49.04C232.775 48.4533 232.882 47.92 233.149 47.44C233.255 47.2267 233.469 46.8533 233.789 46.32C234.162 45.7867 234.615 45.0667 235.149 44.16C235.309 43.84 235.549 43.68 235.869 43.68C236.135 43.68 236.322 43.8933 236.429 44.32C237.015 46.4533 238.189 48.4533 239.949 50.32C240.482 50.8533 240.509 51.3867 240.029 51.92L238.349 54.24C238.135 54.56 238.055 55.12 238.109 55.92C239.655 67.3867 239.762 74.7467 238.429 78C236.882 81.8933 231.762 84.1067 223.069 84.64C219.442 84.8533 218.749 83.5733 220.989 80.8C221.255 80.48 221.522 80.1867 221.789 79.92C222.002 79.6 222.215 79.3067 222.429 79.04C222.909 78.4533 223.602 78.16 224.509 78.16C228.562 78.1067 231.709 77.7867 233.949 77.2C235.549 76.8267 236.322 75.84 236.269 74.24ZM275.276 46.4C276.396 43.7867 277.116 43.7333 277.436 46.24L279.276 65.84C281.303 83.4933 281.063 94.6933 278.556 99.44C278.183 100.08 277.89 100.24 277.676 99.92C277.463 99.6533 277.356 99.2 277.356 98.56C277.463 94.08 277.143 89.04 276.396 83.44C276.396 83.2267 275.836 78.16 274.716 68.24L272.956 53.76C272.85 52.6933 272.956 51.7867 273.276 51.04L275.276 46.4ZM340.525 10.52C341.272 10.4133 341.938 10.8133 342.525 11.72C343.752 13.5867 343.752 16.0667 342.525 19.16C342.952 19.3733 343.272 19.5867 343.485 19.8C343.752 19.96 343.992 20.0667 344.205 20.12C344.845 20.3867 344.978 20.8667 344.605 21.56L343.805 23.08C343.538 23.56 343.192 23.72 342.765 23.56C342.232 23.4 341.592 23.1067 340.845 22.68C337.485 27.0533 333.698 30.28 329.485 32.36C328.632 32.84 328.018 32.7867 327.645 32.2C327.272 31.4533 327.592 30.8133 328.605 30.28C332.925 27.7733 336.365 24.8667 338.925 21.56C337.538 20.8133 336.525 20.1467 335.885 19.56C334.765 18.4933 334.472 17.32 335.005 16.04C336.338 12.7333 338.178 10.8933 340.525 10.52ZM339.725 15.16C338.658 14.2 337.805 14.28 337.165 15.4C336.952 15.6667 337.058 16.0133 337.485 16.44C337.965 16.92 338.978 17.5333 340.525 18.28C340.738 16.7867 340.472 15.7467 339.725 15.16ZM363.099 47.36C363.526 46.0267 363.873 45.44 364.139 45.6C364.459 45.7067 364.699 46.5333 364.859 48.08C366.619 64.4533 368.059 75.8933 369.179 82.4C370.299 88.9067 371.793 93.04 373.659 94.8C374.459 95.4933 375.099 96.72 375.579 98.48C376.059 100.08 376.246 101.6 376.139 103.04C376.086 104.32 375.793 104.933 375.259 104.88C371.366 104.187 368.326 98.9067 366.139 89.04C362.939 94.4267 356.459 98.56 346.699 101.44C344.566 102.08 342.459 102.533 340.379 102.8C338.299 103.12 336.246 103.307 334.219 103.36C325.526 103.467 319.286 100.747 315.499 95.2C313.633 92.4267 313.366 88.96 314.699 84.8C315.126 83.4133 315.713 82.0267 316.459 80.64C317.206 79.2 318.086 77.7333 319.099 76.24C319.686 75.44 320.166 75.2267 320.539 75.6C320.913 75.92 320.886 76.3733 320.459 76.96C316.886 81.92 316.833 86.2133 320.299 89.84C324.299 94 329.953 95.8133 337.259 95.28C347.393 94.48 355.179 92.4267 360.619 89.12C363.606 87.36 364.939 85.2267 364.619 82.72C363.659 76 362.619 66.32 361.499 53.68C361.446 52.9333 361.499 52.2667 361.659 51.68L363.099 47.36ZM344.779 55.52C344.993 55.52 345.153 55.6267 345.259 55.84C345.313 56 345.313 56.1867 345.259 56.4L343.579 60.64C343.313 61.28 343.019 61.6533 342.699 61.76C341.259 62.08 340.219 62.64 339.579 63.44C339.259 63.8133 339.633 64.24 340.699 64.72C341.286 64.9333 341.899 65.12 342.539 65.28C343.233 65.44 343.979 65.5733 344.779 65.68C348.406 66.2133 348.353 69.12 344.619 74.4C343.446 75.9467 342.326 76.88 341.259 77.2C340.299 77.52 338.433 77.5467 335.659 77.28C334.326 77.1733 333.126 76.9867 332.059 76.72C330.993 76.4533 330.059 76.1867 329.259 75.92C328.673 75.6533 328.379 75.3067 328.379 74.88C328.379 74.4 328.646 74.16 329.179 74.16C330.566 74.0533 332.353 73.9733 334.539 73.92C338.859 73.8667 341.473 73.5733 342.379 73.04C342.593 72.9333 342.646 72.7467 342.539 72.48C342.486 72.32 342.273 72.1867 341.899 72.08L339.579 71.52C338.193 71.2 337.179 70.6667 336.539 69.92C335.793 69.12 335.553 68.2667 335.819 67.36C337.419 60.64 340.406 56.6933 344.779 55.52ZM380.598 126.08C381.771 125.333 382.198 125.573 381.878 126.8L381.158 129.12C380.998 129.707 380.465 130.267 379.558 130.8L365.558 138.88C364.705 139.36 364.278 139.147 364.278 138.24V137.04C364.278 136.613 364.705 136.053 365.558 135.36L380.598 126.08ZM375.298 104.88C373.751 104.613 372.657 102.987 372.017 100C371.377 97.0133 371.377 95.1467 372.017 94.4C372.444 93.9733 372.977 94.1067 373.617 94.8C375.698 96.9867 378.151 97.36 380.978 95.92C380.498 92.8267 380.018 89.5467 379.538 86.08C379.111 82.56 378.684 78.8533 378.258 74.96L375.778 52.56C375.618 50.7467 375.751 49.5467 376.178 48.96L378.178 45.84C378.871 44.7733 379.244 44.96 379.298 46.4L382.258 70.88C383.698 82.9333 386.231 90.24 389.858 92.8C391.404 93.92 391.831 95.7067 391.138 98.16C390.764 99.3867 390.338 100 389.858 100C387.191 100 384.844 97.76 382.818 93.28C382.338 101.653 379.831 105.52 375.298 104.88ZM411.458 20.04C412.631 19.2933 413.058 19.5333 412.738 20.76L412.018 23.08C411.858 23.6667 411.324 24.2267 410.418 24.76L396.418 32.84C395.564 33.32 395.138 33.1067 395.138 32.2V31C395.138 30.5733 395.564 30.0133 396.418 29.32L411.458 20.04ZM407.715 80C408.035 79.84 408.275 79.8933 408.435 80.16C410.355 83.04 412.915 85.76 416.115 88.32C419.368 90.9333 422.995 92.4267 426.995 92.8C428.008 92.8533 428.515 93.52 428.515 94.8C428.515 98.2667 428.008 100 426.995 100C423.368 100 419.608 98.6667 415.715 96C415.448 98.9867 415.128 100.667 414.755 101.04C414.328 101.467 413.822 101.68 413.235 101.68C407.208 101.2 402.222 98.56 398.275 93.76C398.115 93.5467 397.928 93.5733 397.715 93.84C395.048 97.84 392.435 99.8933 389.875 100C389.288 100 388.888 99.5733 388.675 98.72C388.035 96.32 388.062 94.6133 388.755 93.6C389.128 93.0667 389.502 92.8 389.875 92.8C394.888 92.64 397.955 91.36 399.075 88.96C401.422 84.2133 404.302 81.2267 407.715 80ZM407.395 85.92C407.288 85.76 407.102 85.7067 406.835 85.76C405.235 86.1333 404.088 86.8 403.395 87.76C403.128 88.1333 403.155 88.4267 403.475 88.64C404.435 89.44 405.475 90.16 406.595 90.8C407.768 91.3867 409.022 91.8933 410.355 92.32C410.728 92.4267 410.942 92.4267 410.995 92.32C411.102 92.2133 411.048 92.0533 410.835 91.84C410.302 91.0933 409.742 90.24 409.155 89.28C408.568 88.2667 407.982 87.1467 407.395 85.92ZM424.86 21.28C426.993 17.3867 429.74 16.72 433.1 19.28C435.287 20.9867 436.46 22.9867 436.62 25.28C436.78 28.16 435.9 30.2933 433.98 31.68C432.54 32.64 430.807 33.04 428.78 32.88C424.513 32.56 422.78 29.8933 423.58 24.88C423.687 24.1867 423.847 23.5467 424.06 22.96C424.327 22.3733 424.593 21.8133 424.86 21.28ZM433.34 27.28C434.887 26.8533 434.86 25.84 433.26 24.24C432.087 23.0667 430.673 22.48 429.02 22.48C427.047 22.4267 426.007 23.28 425.9 25.04C425.9 26.2133 426.327 26.96 427.18 27.28C429.047 27.92 431.1 27.92 433.34 27.28ZM428.186 47.2C428.986 45.28 429.466 44.08 429.626 43.6C429.786 43.12 430.053 42.88 430.426 42.88C430.853 42.88 431.146 43.1467 431.306 43.68C432.106 46.08 433.253 48.0267 434.746 49.52C435.28 50 435.253 50.6133 434.666 51.36L432.906 53.84C433.066 55.3333 433.226 56.7733 433.386 58.16C433.546 59.5467 433.706 60.88 433.866 62.16C435.626 75.44 436.24 83.4933 435.706 86.32C434 94.8 431.066 99.36 426.906 100C426.8 100 426.693 100 426.586 100C425.84 99.7867 425.546 98.0267 425.706 94.72C425.706 93.4933 426.106 92.8533 426.906 92.8C429.84 92.48 431.866 91.28 432.986 89.2C432.933 87.12 432.72 84.4267 432.346 81.12C432.026 77.8133 431.573 73.9467 430.986 69.52C430.453 65.0933 430 61.52 429.626 58.8C429.253 56.08 429.013 54.2133 428.906 53.2L428.106 48.64C428.053 48 428.08 47.52 428.186 47.2ZM448.011 46.4C449.131 43.7867 449.851 43.7333 450.171 46.24L452.011 65.84C454.037 83.4933 453.797 94.6933 451.291 99.44C450.917 100.08 450.624 100.24 450.411 99.92C450.197 99.6533 450.091 99.2 450.091 98.56C450.197 94.08 449.877 89.04 449.131 83.44C449.131 83.2267 448.571 78.16 447.451 68.24L445.691 53.76C445.584 52.6933 445.691 51.7867 446.011 51.04L448.011 46.4ZM491.072 41.52C491.819 41.4133 492.485 41.8133 493.072 42.72C494.299 44.5867 494.299 47.0667 493.072 50.16C493.499 50.3733 493.819 50.5867 494.032 50.8C494.299 50.96 494.539 51.0667 494.752 51.12C495.392 51.3867 495.525 51.8667 495.152 52.56L494.352 54.08C494.085 54.56 493.739 54.72 493.312 54.56C492.779 54.4 492.139 54.1067 491.392 53.68C488.032 58.0533 484.245 61.28 480.032 63.36C479.179 63.84 478.565 63.7867 478.192 63.2C477.819 62.4533 478.139 61.8133 479.152 61.28C483.472 58.7733 486.912 55.8667 489.472 52.56C488.085 51.8133 487.072 51.1467 486.432 50.56C485.312 49.4933 485.019 48.32 485.552 47.04C486.885 43.7333 488.725 41.8933 491.072 41.52ZM490.272 46.16C489.205 45.2 488.352 45.28 487.712 46.4C487.499 46.6667 487.605 47.0133 488.032 47.44C488.512 47.92 489.525 48.5333 491.072 49.28C491.285 47.7867 491.019 46.7467 490.272 46.16ZM510.474 91.52C511.22 91.52 511.754 92.2133 512.074 93.6C512.394 94.9867 512.394 96.3733 512.074 97.76C511.754 99.1467 511.247 99.8667 510.554 99.92C505.967 100.4 503.14 97.8667 502.074 92.32C502.02 92.16 501.994 92 501.994 91.84C500.234 94.4533 498.9 95.84 497.994 96C493.3 96.8533 489.727 96.4267 487.274 94.72C486.367 94.08 486.154 93.0933 486.634 91.76C487.594 88.6667 489.407 86.0267 492.074 83.84C494.794 81.6 497.647 80.1333 500.634 79.44L500.474 75.52C500.474 75.0933 500.927 73.92 501.834 72C502.314 71.0933 502.687 70.3733 502.954 69.84C503.22 69.2533 503.38 68.9067 503.434 68.8C504.02 67.84 504.367 68.1867 504.474 69.84C504.474 70.16 504.474 70.8 504.474 71.76C504.527 72.72 504.58 74.0267 504.634 75.68C504.687 77.3333 504.74 78.9333 504.794 80.48C504.9 81.9733 505.034 83.4667 505.194 84.96C505.514 87.8933 506.367 89.84 507.754 90.8C508.394 91.28 509.3 91.52 510.474 91.52ZM500.794 83.28C500.26 83.3867 499.62 83.6 498.874 83.92C498.127 84.1867 497.274 84.56 496.314 85.04C494.394 86 493.167 86.9867 492.634 88C493.487 88.64 495.354 88.9067 498.234 88.8C499.674 88.6933 500.687 88.32 501.274 87.68C501.22 87.4133 501.14 86.9067 501.034 86.16C500.98 85.4133 500.9 84.4533 500.794 83.28ZM509.109 34.16L523.509 27.76C524.469 27.3867 524.896 27.6 524.789 28.4L524.469 31.12C524.363 31.7067 524.123 32.08 523.749 32.24L509.669 37.12C508.496 37.4933 507.989 37.2 508.149 36.24L508.309 35.12C508.363 34.6933 508.629 34.3733 509.109 34.16ZM521.418 41.4C521.524 40.44 521.844 40.0133 522.378 40.12C523.018 40.1733 523.311 40.6 523.258 41.4C523.151 43.64 522.724 45.56 521.978 47.16C521.124 48.9733 519.924 49.9333 518.378 50.04C517.418 50.1467 516.484 49.64 515.578 48.52C515.311 49.0533 514.964 49.5333 514.538 49.96C514.111 50.3333 513.658 50.6533 513.178 50.92C512.058 51.5067 510.991 51.56 509.978 51.08C507.524 50.0667 507.258 47.08 509.178 42.12C509.498 41.3733 509.951 41.1333 510.538 41.4C511.018 41.6133 511.151 42.0667 510.938 42.76C510.244 45.2667 510.564 46.6267 511.898 46.84C513.498 47 514.778 45.2667 515.738 41.64C515.898 40.8933 516.218 40.6 516.698 40.76C517.284 40.8667 517.498 41.1867 517.338 41.72C516.964 43.8533 517.498 44.92 518.938 44.92C520.324 44.92 521.151 43.7467 521.418 41.4ZM529.239 90.8C530.199 90.96 530.839 91.7867 531.159 93.28C531.479 94.7733 531.479 96.24 531.159 97.68C530.839 99.1733 530.439 99.92 529.959 99.92C527.772 99.9733 525.879 99.3067 524.279 97.92C522.839 96.64 521.372 94.5867 519.879 91.76C519.079 93.6267 518.332 95.1467 517.639 96.32C516.945 97.44 516.279 98.1867 515.639 98.56C514.252 99.36 512.572 99.7867 510.599 99.84C509.372 99.9467 508.439 99.2533 507.799 97.76C507.159 96.32 507.025 94.9333 507.399 93.6C507.825 92.2133 508.865 91.52 510.519 91.52C514.359 91.52 516.865 90.1867 518.039 87.52C518.039 87.52 517.985 87.2267 517.879 86.64C517.825 86.0533 517.692 85.1733 517.479 84L515.719 74.96C515.345 73.0933 515.052 71.5467 514.839 70.32C514.625 69.04 514.465 68.0533 514.359 67.36C514.199 65.9733 514.305 65.0133 514.679 64.48L516.999 60.8C517.532 60.0533 517.959 60.3733 518.279 61.76C518.385 62.08 518.519 62.7467 518.679 63.76C518.839 64.72 519.025 66 519.239 67.6C520.945 78.48 522.439 84.9867 523.719 87.12C524.999 89.2533 526.839 90.48 529.239 90.8ZM530.476 61.84L534.556 80.64C534.823 82.0267 535.036 83.2 535.196 84.16C535.41 85.12 535.543 85.8933 535.596 86.48C535.65 87.0133 535.676 87.6 535.676 88.24C535.676 88.88 535.623 89.5733 535.516 90.32C534.876 96.72 533.01 99.92 529.916 99.92C528.263 99.92 526.93 98.8 525.916 96.56C524.85 94.32 524.743 92.72 525.596 91.76C526.503 90.7467 527.543 90.4 528.716 90.72C529.996 91.04 531.09 90.9867 531.996 90.56C531.943 89.92 531.73 88.7467 531.356 87.04C531.036 85.3333 530.556 83.12 529.916 80.4C528.636 75.0667 527.676 70.5333 527.036 66.8C526.823 65.36 527.543 63.44 529.196 61.04C529.73 60.1867 530.156 60.4533 530.476 61.84ZM547.698 46.4C548.818 43.7867 549.538 43.7333 549.858 46.24L551.698 65.84C553.725 83.4933 553.485 94.6933 550.978 99.44C550.605 100.08 550.311 100.24 550.098 99.92C549.885 99.6533 549.778 99.2 549.778 98.56C549.885 94.08 549.565 89.04 548.818 83.44C548.818 83.2267 548.258 78.16 547.138 68.24L545.378 53.76C545.271 52.6933 545.378 51.7867 545.698 51.04L547.698 46.4ZM603.601 95.2C607.441 95.5733 610.588 95.76 613.041 95.76C615.495 95.7067 617.281 95.4933 618.401 95.12C617.868 89.9467 614.108 82.48 607.121 72.72C604.615 69.2 602.428 66.2667 600.561 63.92C598.695 61.52 597.148 59.7333 595.921 58.56L594.721 60.64C594.028 61.12 593.388 61.0133 592.801 60.32L587.281 54.4C586.481 53.4933 586.161 52.4533 586.321 51.28L587.441 44.32C587.548 43.5733 587.788 43.2 588.161 43.2C589.281 43.1467 592.268 46.0533 597.121 51.92C599.575 54.8533 601.841 57.7333 603.921 60.56C606.055 63.3333 608.001 66.0533 609.761 68.72C617.335 80.24 621.361 89.5467 621.841 96.64C622.001 99.6267 621.228 101.36 619.521 101.84C614.561 103.12 609.121 103.28 603.201 102.32C602.615 102.267 602.241 102.08 602.081 101.76C601.121 99.4667 601.255 97.52 602.481 95.92C602.908 95.3333 603.281 95.0933 603.601 95.2ZM617.625 17.16L632.025 10.76C632.985 10.3867 633.412 10.6 633.305 11.4L632.985 14.12C632.878 14.7067 632.638 15.08 632.265 15.24L618.185 20.12C617.012 20.4933 616.505 20.2 616.665 19.24L616.825 18.12C616.878 17.6933 617.145 17.3733 617.625 17.16ZM629.933 24.4C630.04 23.44 630.36 23.0133 630.893 23.12C631.533 23.1733 631.826 23.6 631.773 24.4C631.666 26.64 631.24 28.56 630.493 30.16C629.64 31.9733 628.44 32.9333 626.893 33.04C625.933 33.1467 625 32.64 624.093 31.52C623.826 32.0533 623.48 32.5333 623.053 32.96C622.626 33.3333 622.173 33.6533 621.693 33.92C620.573 34.5067 619.506 34.56 618.493 34.08C616.04 33.0667 615.773 30.08 617.693 25.12C618.013 24.3733 618.466 24.1333 619.053 24.4C619.533 24.6133 619.666 25.0667 619.453 25.76C618.76 28.2667 619.08 29.6267 620.413 29.84C622.013 30 623.293 28.2667 624.253 24.64C624.413 23.8933 624.733 23.6 625.213 23.76C625.8 23.8667 626.013 24.1867 625.853 24.72C625.48 26.8533 626.013 27.92 627.453 27.92C628.84 27.92 629.666 26.7467 629.933 24.4ZM613.029 95.68C611.429 97.28 609.535 98.1067 607.349 98.16C605.962 98.16 605.269 97.8933 605.269 97.36C605.269 96.7733 605.909 96.1333 607.189 95.44C615.829 90.64 620.735 81.8667 621.909 69.12C622.549 62.56 622.629 56.0267 622.149 49.52C621.989 47.44 622.069 46.1333 622.389 45.6C622.975 44.5867 623.429 43.7867 623.749 43.2C624.069 42.6133 624.282 42.24 624.389 42.08C624.655 41.76 624.922 41.6267 625.189 41.68C625.562 41.7867 625.775 41.9733 625.829 42.24C626.629 45.3333 627.429 47.3333 628.229 48.24C629.029 49.0933 629.055 49.8933 628.309 50.64L626.069 52.96C626.175 55.9467 626.042 59.1733 625.669 62.64C625.349 66.0533 624.815 69.7333 624.069 73.68C622.309 82.9067 618.629 90.24 613.029 95.68ZM654.62 123.96C655.58 123.533 656.033 123.64 655.98 124.28L655.58 127.72C655.473 128.253 655.233 128.627 654.86 128.84L638.06 136.6C637.367 136.973 636.967 136.733 636.86 135.88L636.62 133.48C636.62 133.053 636.887 132.733 637.42 132.52C642.7 129.853 646.78 127.8 649.66 126.36C652.54 124.973 654.193 124.173 654.62 123.96ZM639.729 46.4C640.849 43.7867 641.569 43.7333 641.889 46.24L643.729 65.84C645.756 83.4933 645.516 94.6933 643.009 99.44C642.636 100.08 642.343 100.24 642.129 99.92C641.916 99.6533 641.809 99.2 641.809 98.56C641.916 94.08 641.596 89.04 640.849 83.44C640.849 83.2267 640.289 78.16 639.169 68.24L637.409 53.76C637.303 52.6933 637.409 51.7867 637.729 51.04L639.729 46.4ZM651.409 118.8C649.969 119.067 648.716 119.307 647.649 119.52C646.636 119.733 645.836 119.947 645.249 120.16C644.663 120.373 643.809 120.693 642.689 121.12C641.569 121.6 640.183 122.213 638.529 122.96C637.836 123.28 637.329 123.173 637.009 122.64C636.369 121.68 637.409 120.373 640.129 118.72C638.156 117.76 637.036 116.64 636.769 115.36C636.343 113.12 637.249 110.48 639.489 107.44C641.729 104.4 644.103 102.987 646.609 103.2C648.209 103.36 648.929 104.267 648.769 105.92C648.609 107.573 648.129 108.96 647.329 110.08C646.583 111.147 645.943 111.28 645.409 110.48C644.823 109.52 644.023 109.013 643.009 108.96C641.943 108.853 641.116 109.173 640.529 109.92C639.889 110.72 639.916 111.413 640.609 112C642.369 113.653 644.983 114.533 648.449 114.64C648.716 114.64 649.036 114.587 649.409 114.48C649.836 114.427 650.316 114.347 650.849 114.24C651.436 114.133 651.916 114.027 652.289 113.92C652.663 113.867 652.956 113.84 653.169 113.84C653.649 113.84 653.969 114.027 654.129 114.4C654.289 114.72 654.316 115.013 654.209 115.28C653.143 117.467 652.209 118.64 651.409 118.8ZM687.161 20.04C688.334 19.2933 688.761 19.5333 688.441 20.76L687.721 23.08C687.561 23.6667 687.027 24.2267 686.121 24.76L672.121 32.84C671.267 33.32 670.841 33.1067 670.841 32.2V31C670.841 30.5733 671.267 30.0133 672.121 29.32L687.161 20.04ZM698.513 91.52C700.113 95.8933 702.619 98.2667 706.033 98.64C706.993 98.7467 707.606 99.5467 707.873 101.04C707.979 101.733 708.033 102.453 708.033 103.2C708.033 103.947 707.926 104.693 707.713 105.44C707.339 106.827 706.859 107.573 706.273 107.68C704.459 107.84 702.779 107.36 701.233 106.24C697.979 103.733 695.526 98.7467 693.872 91.28C692.913 95.8667 691.633 98.32 690.033 98.64C689.233 98.8 688.326 98.9067 687.313 98.96C686.353 99.0133 685.259 99.0133 684.033 98.96C681.579 98.8533 680.139 98.5867 679.713 98.16C678.379 97.04 677.926 95.8667 678.353 94.64C679.793 90.4267 680.886 87.92 681.633 87.12C682.699 85.8933 684.033 84.72 685.633 83.6C687.233 82.48 689.099 81.4133 691.233 80.4L690.753 77.2C690.699 76.6667 690.646 76.2133 690.593 75.84C690.593 75.4667 690.646 75.1733 690.753 74.96L692.353 71.2C692.779 70.1867 693.233 70.56 693.713 72.32C694.299 76.0533 694.993 79.52 695.793 82.72C696.646 85.92 697.553 88.8533 698.513 91.52ZM692.033 84.56C691.286 84.7733 690.486 85.04 689.633 85.36C688.779 85.68 687.899 86.1333 686.993 86.72C686.086 87.2533 685.286 87.8667 684.593 88.56C683.899 89.2533 683.339 90.0267 682.913 90.88C685.153 92.32 688.166 92.4 691.953 91.12C692.593 90.8533 692.913 90.08 692.913 88.8L692.033 84.56ZM708.723 20.04C709.896 19.2933 710.323 19.5333 710.003 20.76L709.283 23.08C709.123 23.6667 708.59 24.2267 707.683 24.76L693.683 32.84C692.83 33.32 692.403 33.1067 692.403 32.2V31C692.403 30.5733 692.83 30.0133 693.683 29.32L708.723 20.04ZM702.296 45.68C702.456 45.0933 702.75 44.8 703.176 44.8C703.55 44.8 703.843 45.04 704.056 45.52C704.91 47.8133 706.136 49.6 707.736 50.88C708.376 51.4667 708.43 52.1867 707.896 53.04C707.63 53.4667 707.336 53.8933 707.016 54.32C706.75 54.7467 706.483 55.1733 706.216 55.6C706.056 55.7067 706.776 59.52 708.376 67.04C709.176 70.7733 709.843 74.08 710.376 76.96C710.91 79.7867 711.283 82.16 711.496 84.08C711.71 86 711.843 87.92 711.896 89.84C711.95 91.76 711.923 93.7067 711.816 95.68C711.443 103.147 709.603 107.12 706.296 107.6C704.696 107.867 703.683 107.227 703.256 105.68C702.83 104.133 702.936 102.56 703.576 100.96C704.216 99.2533 705.016 98.48 705.976 98.64C706.723 98.6933 707.31 98.7467 707.736 98.8C708.216 98.8 708.563 98.7467 708.776 98.64C709.416 97.4667 709.416 94.64 708.776 90.16C708.456 87.92 707.95 84.9867 707.256 81.36C706.563 77.68 705.71 73.28 704.696 68.16C703.683 63.04 702.883 59.0933 702.296 56.32C701.71 53.5467 701.363 51.9467 701.256 51.52C701.043 50.6133 701.123 49.5733 701.496 48.4C701.71 47.8133 701.896 47.3067 702.056 46.88C702.163 46.4 702.243 46 702.296 45.68ZM738.917 123.96C739.877 123.533 740.33 123.64 740.277 124.28L739.877 127.72C739.77 128.253 739.53 128.627 739.157 128.84L722.357 136.6C721.664 136.973 721.264 136.733 721.157 135.88L720.917 133.48C720.917 133.053 721.184 132.733 721.717 132.52C726.997 129.853 731.077 127.8 733.957 126.36C736.837 124.973 738.49 124.173 738.917 123.96ZM724.026 46.4C725.146 43.7867 725.866 43.7333 726.186 46.24L728.026 65.84C730.053 83.4933 729.813 94.6933 727.306 99.44C726.933 100.08 726.64 100.24 726.426 99.92C726.213 99.6533 726.106 99.2 726.106 98.56C726.213 94.08 725.893 89.04 725.146 83.44C725.146 83.2267 724.586 78.16 723.466 68.24L721.706 53.76C721.6 52.6933 721.706 51.7867 722.026 51.04L724.026 46.4ZM735.706 118.8C734.266 119.067 733.013 119.307 731.946 119.52C730.933 119.733 730.133 119.947 729.546 120.16C728.96 120.373 728.106 120.693 726.986 121.12C725.866 121.6 724.48 122.213 722.826 122.96C722.133 123.28 721.626 123.173 721.306 122.64C720.666 121.68 721.706 120.373 724.426 118.72C722.453 117.76 721.333 116.64 721.066 115.36C720.64 113.12 721.546 110.48 723.786 107.44C726.026 104.4 728.4 102.987 730.906 103.2C732.506 103.36 733.226 104.267 733.066 105.92C732.906 107.573 732.426 108.96 731.626 110.08C730.88 111.147 730.24 111.28 729.706 110.48C729.12 109.52 728.32 109.013 727.306 108.96C726.24 108.853 725.413 109.173 724.826 109.92C724.186 110.72 724.213 111.413 724.906 112C726.666 113.653 729.28 114.533 732.746 114.64C733.013 114.64 733.333 114.587 733.706 114.48C734.133 114.427 734.613 114.347 735.146 114.24C735.733 114.133 736.213 114.027 736.586 113.92C736.96 113.867 737.253 113.84 737.466 113.84C737.946 113.84 738.266 114.027 738.426 114.4C738.586 114.72 738.613 115.013 738.506 115.28C737.44 117.467 736.506 118.64 735.706 118.8ZM779.929 95.2C783.769 95.5733 786.916 95.76 789.369 95.76C791.823 95.7067 793.609 95.4933 794.729 95.12C794.196 89.9467 790.436 82.48 783.449 72.72C780.943 69.2 778.756 66.2667 776.889 63.92C775.023 61.52 773.476 59.7333 772.249 58.56L771.049 60.64C770.356 61.12 769.716 61.0133 769.129 60.32L763.609 54.4C762.809 53.4933 762.489 52.4533 762.649 51.28L763.769 44.32C763.876 43.5733 764.116 43.2 764.489 43.2C765.609 43.1467 768.596 46.0533 773.449 51.92C775.903 54.8533 778.169 57.7333 780.249 60.56C782.383 63.3333 784.329 66.0533 786.089 68.72C793.663 80.24 797.689 89.5467 798.169 96.64C798.329 99.6267 797.556 101.36 795.849 101.84C790.889 103.12 785.449 103.28 779.529 102.32C778.943 102.267 778.569 102.08 778.409 101.76C777.449 99.4667 777.583 97.52 778.809 95.92C779.236 95.3333 779.609 95.0933 779.929 95.2ZM806.379 20.04C807.553 19.2933 807.979 19.5333 807.659 20.76L806.939 23.08C806.779 23.6667 806.246 24.2267 805.339 24.76L791.339 32.84C790.486 33.32 790.059 33.1067 790.059 32.2V31C790.059 30.5733 790.486 30.0133 791.339 29.32L806.379 20.04ZM789.357 95.68C787.757 97.28 785.864 98.1067 783.677 98.16C782.29 98.16 781.597 97.8933 781.597 97.36C781.597 96.7733 782.237 96.1333 783.517 95.44C792.157 90.64 797.064 81.8667 798.237 69.12C798.877 62.56 798.957 56.0267 798.477 49.52C798.317 47.44 798.397 46.1333 798.717 45.6C799.304 44.5867 799.757 43.7867 800.077 43.2C800.397 42.6133 800.61 42.24 800.717 42.08C800.984 41.76 801.25 41.6267 801.517 41.68C801.89 41.7867 802.104 41.9733 802.157 42.24C802.957 45.3333 803.757 47.3333 804.557 48.24C805.357 49.0933 805.384 49.8933 804.637 50.64L802.397 52.96C802.504 55.9467 802.37 59.1733 801.997 62.64C801.677 66.0533 801.144 69.7333 800.397 73.68C798.637 82.9067 794.957 90.24 789.357 95.68Z" fill="url(#paint0_linear_4_18)"/>
<defs>
<linearGradient id="paint0_linear_4_18" x1="425.805" y1="-34.6301" x2="422.851" y2="102.519" gradientUnits="userSpaceOnUse">
<stop stop-color="#FFD700"/>
<stop offset="1" stop-color="#FF9C72" stop-opacity="0.5"/>
</linearGradient>
</defs>
</svg>
