<svg width="423" height="139" viewBox="0 0 423 139" fill="none" xmlns="http://www.w3.org/2000/svg">
<path d="M23.5825 12.04C24.7558 11.2933 25.1825 11.5333 24.8625 12.76L24.1425 15.08C23.9825 15.6667 23.4492 16.2267 22.5425 16.76L8.5425 24.84C7.68917 25.32 7.2625 25.1067 7.2625 24.2V23C7.2625 22.5733 7.68917 22.0133 8.5425 21.32L23.5825 12.04ZM39.88 73.2C40.52 74.2133 41.0267 75.4933 41.4 77.04C41.8267 78.5333 42.0667 80.32 42.12 82.4C42.2267 84.48 42.1467 86.5067 41.88 88.48C41.6133 90.4 41.16 92.2933 40.52 94.16C39.24 97.84 36.7067 101.04 32.92 103.76C29.1333 106.48 24.2533 107.92 18.28 108.08C9.21333 108.347 3.8 105.6 2.04 99.84C0.973333 96.2667 1 92.56 2.12 88.72C2.70667 86.7467 3.4 84.88 4.2 83.12C5 81.3067 5.90667 79.5733 6.92 77.92C7.18667 77.6 7.42667 77.44 7.64 77.44C7.96 77.44 8.17333 77.5733 8.28 77.84C8.38667 78.1067 8.36 78.4267 8.2 78.8C4.36 85.84 3.24 90.9867 4.84 94.24C7.02667 98.9333 11.64 101.067 18.68 100.64C23.7467 100.32 28.1467 99.2267 31.88 97.36C35.4533 95.5467 37.8533 93.52 39.08 91.28C39.1333 91.1733 39.1867 91.04 39.24 90.88C39.2933 90.6667 39.3467 90.4 39.4 90.08C39.5067 89.76 39.48 89.1733 39.32 88.32C39.16 87.4133 38.9467 86.24 38.68 84.8C38.1467 81.92 37.3467 79.6 36.28 77.84C36.1733 77.5733 36.1733 77.2267 36.28 76.8L37.64 71.76C37.7467 71.3867 37.88 71.2 38.04 71.2C38.1467 71.1467 38.2533 71.1733 38.36 71.28C38.7867 71.6 39.2933 72.24 39.88 73.2ZM20.6 53.92C20.7067 53.76 20.92 53.7067 21.24 53.76C23.3733 54.5067 25.2667 55.6267 26.92 57.12C27.1333 57.3333 27.16 57.5467 27 57.76L23.24 63.84C23.08 64.1067 22.8133 64.08 22.44 63.76C22.2267 63.6 21.6667 63.2267 20.76 62.64C19.8533 62.0533 18.5467 61.2533 16.84 60.24C16.5733 60.08 16.52 59.92 16.68 59.76L20.6 53.92ZM35.1881 13.28C37.3215 9.38666 40.0681 8.72 43.4281 11.28C45.6148 12.9867 46.7881 14.9867 46.9481 17.28C47.1081 20.16 46.2281 22.2933 44.3081 23.68C42.8681 24.64 41.1348 25.04 39.1081 24.88C34.8415 24.56 33.1081 21.8933 33.9081 16.88C34.0148 16.1867 34.1748 15.5467 34.3881 14.96C34.6548 14.3733 34.9215 13.8133 35.1881 13.28ZM43.6681 19.28C45.2148 18.8533 45.1881 17.84 43.5881 16.24C42.4148 15.0667 41.0015 14.48 39.3481 14.48C37.3748 14.4267 36.3348 15.28 36.2281 17.04C36.2281 18.2133 36.6548 18.96 37.5081 19.28C39.3748 19.92 41.4281 19.92 43.6681 19.28ZM57.7994 92C55.506 91.68 53.826 90.5867 52.7594 88.72C51.7994 87.0133 50.786 82.72 49.7194 75.84C49.666 75.52 49.5594 75.4933 49.3994 75.76C47.6927 78.96 45.3194 80.7733 42.2794 81.2C40.466 81.4133 39.346 80.3733 38.9194 78.08C38.546 75.4667 39.2394 74.32 40.9994 74.64C45.106 75.3867 48.1994 73.44 50.2794 68.8C50.5994 68.0533 50.9994 67.7333 51.4794 67.84C52.0127 67.9467 52.306 68.3467 52.3594 69.04C52.9994 75.9733 53.7194 80.2933 54.5194 82C55.3194 83.6533 56.4127 84.5867 57.7994 84.8C59.2394 85.0133 59.7994 86.2933 59.4794 88.64C59.1594 90.9867 58.5994 92.1067 57.7994 92ZM49.1594 98.88C49.266 98.72 49.4794 98.6667 49.7994 98.72C50.706 99.0933 51.586 99.52 52.4394 100C53.2927 100.48 54.0927 101.04 54.8394 101.68C55.0527 101.893 55.0794 102.107 54.9194 102.32L51.4794 107.84C51.3727 108 51.1594 107.947 50.8394 107.68C50.6794 107.52 50.2527 107.227 49.5594 106.8C48.9194 106.427 47.986 105.893 46.7594 105.2L44.0394 109.44C43.8794 109.653 43.6394 109.627 43.3194 109.36C43.106 109.2 42.5727 108.853 41.7194 108.32C40.9194 107.787 39.7727 107.067 38.2794 106.16C38.066 106.053 38.0394 105.92 38.1994 105.76L41.7194 100.48C41.826 100.32 42.0127 100.267 42.2794 100.32C43.0794 100.587 43.826 100.933 44.5194 101.36C45.266 101.787 45.9594 102.24 46.5994 102.72L49.1594 98.88ZM79.9888 118.08C81.1621 117.333 81.5888 117.573 81.2688 118.8L80.5488 121.12C80.3888 121.707 79.8554 122.267 78.9488 122.8L64.9488 130.88C64.0954 131.36 63.6688 131.147 63.6688 130.24V129.04C63.6688 128.613 64.0954 128.053 64.9488 127.36L79.9888 118.08ZM66.3413 78C67.2479 76.1867 68.3413 74.8 69.6213 73.84C69.8879 73.68 70.2346 73.5467 70.6613 73.44C71.1413 73.3333 71.7279 73.2533 72.4213 73.2C75.3546 72.8267 77.7546 73.8133 79.6213 76.16C81.8613 78.9867 82.7946 81.28 82.4213 83.04C81.9413 85.1733 81.1679 86.96 80.1013 88.4C79.8879 88.72 79.6746 88.88 79.4613 88.88C74.4479 88.56 69.7279 86.96 65.3013 84.08C62.9013 89.36 60.3946 92 57.7812 92C57.0346 92 56.5012 91.4133 56.1812 90.24C55.1679 86.6133 55.7012 84.8 57.7812 84.8C60.6079 84.8 62.7946 83.9467 64.3413 82.24C64.5546 81.76 64.8213 81.1733 65.1413 80.48C65.4613 79.7333 65.8613 78.9067 66.3413 78ZM75.3813 78.56C72.2879 76.64 70.1013 76.64 68.8213 78.56C72.3946 80.5867 75.7013 81.7333 78.7413 82C78.2613 80.8267 77.1413 79.68 75.3813 78.56ZM108.348 118.08C109.521 117.333 109.948 117.573 109.628 118.8L108.908 121.12C108.748 121.707 108.215 122.267 107.308 122.8L93.3081 130.88C92.4548 131.36 92.0281 131.147 92.0281 130.24V129.04C92.0281 128.613 92.4548 128.053 93.3081 127.36L108.348 118.08ZM79.6869 58.72C81.5002 58.72 83.2335 59.2 84.8869 60.16C85.7935 60.64 86.7002 61.1733 87.6069 61.76C88.5135 62.2933 89.4469 62.9067 90.4069 63.6C95.8469 67.3333 102.567 69.92 110.567 71.36C111.047 71.4133 111.234 71.6533 111.127 72.08C110.914 73.3067 110.194 74.88 108.967 76.8C108.7 77.2267 108.327 77.36 107.847 77.2C101.66 75.2267 96.5402 74.0533 92.4869 73.68C88.1669 73.2 84.1935 73.36 80.5669 74.16C76.4602 75.0667 73.2069 75.28 70.8069 74.8C69.7402 74.5867 69.4202 74.2933 69.8469 73.92C73.0469 71.36 78.8602 70 87.2869 69.84C82.3802 65.5733 76.8335 64.08 70.6469 65.36C70.3802 65.4133 70.1935 65.28 70.0869 64.96C69.9802 64.64 70.0602 64.3467 70.3269 64.08C73.1002 60.5067 76.2202 58.72 79.6869 58.72ZM123.261 38.4C124.381 35.7867 125.101 35.7333 125.421 38.24L127.261 57.84C129.287 75.4933 129.047 86.6933 126.541 91.44C126.167 92.08 125.874 92.24 125.661 91.92C125.447 91.6533 125.341 91.2 125.341 90.56C125.447 86.08 125.127 81.04 124.381 75.44C124.381 75.2267 123.821 70.16 122.701 60.24L120.941 45.76C120.834 44.6933 120.941 43.7867 121.261 43.04L123.261 38.4ZM132.953 9.16L147.353 2.76C148.313 2.38666 148.74 2.6 148.633 3.4L148.313 6.11999C148.206 6.70666 147.966 7.07999 147.593 7.24L133.513 12.12C132.34 12.4933 131.833 12.2 131.993 11.24L132.153 10.12C132.206 9.69333 132.473 9.37333 132.953 9.16ZM145.261 16.4C145.368 15.44 145.688 15.0133 146.221 15.12C146.861 15.1733 147.155 15.6 147.101 16.4C146.995 18.64 146.568 20.56 145.821 22.16C144.968 23.9733 143.768 24.9333 142.221 25.04C141.261 25.1467 140.328 24.64 139.421 23.52C139.155 24.0533 138.808 24.5333 138.381 24.96C137.955 25.3333 137.501 25.6533 137.021 25.92C135.901 26.5067 134.835 26.56 133.821 26.08C131.368 25.0667 131.101 22.08 133.021 17.12C133.341 16.3733 133.795 16.1333 134.381 16.4C134.861 16.6133 134.995 17.0667 134.781 17.76C134.088 20.2667 134.408 21.6267 135.741 21.84C137.341 22 138.621 20.2667 139.581 16.64C139.741 15.8933 140.061 15.6 140.541 15.76C141.128 15.8667 141.341 16.1867 141.181 16.72C140.808 18.8533 141.341 19.92 142.781 19.92C144.168 19.92 144.995 18.7467 145.261 16.4ZM156.044 75.12C156.951 76.24 157.591 77.8667 157.964 80C158.338 82.08 158.444 84.24 158.284 86.48C158.124 88.56 157.324 91.3333 155.884 94.8C153.911 99.6 150.844 103.253 146.684 105.76C144.604 107.04 142.338 107.76 139.884 107.92C137.378 108.08 133.191 106.293 127.324 102.56C126.951 102.293 126.791 101.973 126.844 101.6C126.898 101.227 127.218 101.12 127.804 101.28C135.324 103.84 142.258 102.453 148.604 97.12C151.698 94.5067 154.098 91.4133 155.804 87.84C156.071 87.3067 156.124 86.64 155.964 85.84C155.804 84.9333 154.844 83.6533 153.084 82C152.871 81.7867 152.844 81.44 153.004 80.96L154.924 75.28C155.031 74.96 155.191 74.8 155.404 74.8C155.671 74.8 155.884 74.9067 156.044 75.12ZM162.364 30.16C162.63 30.16 162.844 30.3733 163.004 30.8C163.164 31.28 163.75 32.1067 164.764 33.28C165.297 33.8667 165.804 34.4267 166.284 34.96C166.764 35.44 167.244 35.8667 167.724 36.24C168.31 36.72 168.284 37.4667 167.644 38.48L165.564 41.6C165.67 42.88 165.91 44.8 166.284 47.36C166.71 49.92 167.19 53.1733 167.724 57.12C168.31 61.0133 168.71 64.32 168.924 67.04C169.137 69.76 169.19 71.8933 169.084 73.44C168.657 79.84 166.23 83.68 161.804 84.96C161.164 85.1733 160.55 85.3067 159.964 85.36C159.43 85.4133 158.924 85.4133 158.444 85.36C156.95 85.2 155.857 83.84 155.164 81.28C154.47 78.72 154.364 76.72 154.844 75.28C154.95 74.96 155.11 74.8 155.324 74.8C155.59 74.8 155.804 74.9067 155.964 75.12C157.244 76.1867 158.924 76.6933 161.004 76.64C163.19 76.5333 164.924 76 166.204 75.04C166.364 73.2267 165.377 65.8133 163.244 52.8L161.644 43.12C161.377 41.36 161.057 39.7867 160.684 38.4C160.47 37.6533 160.31 37.04 160.204 36.56C160.15 36.0267 160.097 35.6533 160.044 35.44C159.937 34.8533 159.99 34.3733 160.204 34L161.804 30.56C161.964 30.2933 162.15 30.16 162.364 30.16ZM181.229 38.4C182.349 35.7867 183.069 35.7333 183.389 38.24L185.229 57.84C187.256 75.4933 187.016 86.6933 184.509 91.44C184.136 92.08 183.843 92.24 183.629 91.92C183.416 91.6533 183.309 91.2 183.309 90.56C183.416 86.08 183.096 81.04 182.349 75.44C182.349 75.2267 181.789 70.16 180.669 60.24L178.909 45.76C178.803 44.6933 178.909 43.7867 179.229 43.04L181.229 38.4ZM239.286 12.04C240.459 11.2933 240.886 11.5333 240.566 12.76L239.846 15.08C239.686 15.6667 239.152 16.2267 238.246 16.76L224.246 24.84C223.392 25.32 222.966 25.1067 222.966 24.2V23C222.966 22.5733 223.392 22.0133 224.246 21.32L239.286 12.04ZM235.693 75.68C237.026 77.2267 238.493 78.5867 240.093 79.76C241.693 80.9333 243.426 81.8667 245.293 82.56C247.159 83.2533 249.026 83.7867 250.893 84.16C252.759 84.5333 254.653 84.7467 256.573 84.8C258.279 84.9067 258.946 86.1067 258.573 88.4C258.199 90.8 257.533 92 256.573 92C251.719 92 247.346 90.9333 243.453 88.8C243.239 88.6933 243.133 88.7733 243.133 89.04C243.346 94.6933 242.333 98.4533 240.093 100.32C239.346 100.907 238.599 100.88 237.853 100.24C236.306 98.8533 235.026 97.0933 234.013 94.96C233.053 92.8267 232.439 90.32 232.173 87.44C229.399 87.4933 226.466 89.0667 223.373 92.16C222.786 92.8 222.973 96.2667 223.933 102.56C225.426 112.267 226.439 119.893 226.973 125.44C227.506 131.04 227.586 134.533 227.213 135.92C226.893 137.2 226.519 137.947 226.093 138.16C225.613 138.427 225.186 138.293 224.812 137.76C224.439 137.227 224.253 136.453 224.253 135.44C224.093 130.267 223.053 122 221.133 110.64C219.479 100.987 219.613 93.6533 221.533 88.64C223.293 84.2133 227.079 80.8 232.893 78.4C233.213 77.3867 233.613 76.5333 234.093 75.84C234.573 75.0933 235.106 75.04 235.693 75.68ZM286.473 12.04C287.646 11.2933 288.073 11.5333 287.753 12.76L287.033 15.08C286.873 15.6667 286.34 16.2267 285.433 16.76L271.433 24.84C270.58 25.32 270.153 25.1067 270.153 24.2V23C270.153 22.5733 270.58 22.0133 271.433 21.32L286.473 12.04ZM257.089 74.56C257.516 72.8533 258.583 71.1733 260.289 69.52C262.103 67.8133 263.996 66.96 265.969 66.96C267.996 66.96 272.636 68.48 279.889 71.52C281.223 72.0533 282.743 72.56 284.449 73.04C286.156 73.4667 288.023 73.8933 290.049 74.32C294.156 75.12 298.369 75.36 302.689 75.04C303.863 74.9867 304.209 75.4667 303.729 76.48L301.489 81.36C301.169 82 300.609 82.24 299.809 82.08C293.783 81.0667 288.076 81.36 282.689 82.96C276.076 85.1467 270.796 87.2 266.849 89.12C263.009 91.04 259.596 92 256.609 92C256.289 92 256.023 91.7333 255.809 91.2C255.223 89.6 255.089 88.1333 255.409 86.8C255.729 85.5733 256.129 84.9067 256.609 84.8C260.449 84.5333 264.129 83.92 267.649 82.96C271.169 81.9467 274.556 80.6133 277.809 78.96C270.769 74.9067 264.289 73.8133 258.369 75.68C257.943 75.84 257.596 75.7867 257.329 75.52C257.116 75.2533 257.036 74.9333 257.089 74.56ZM319.407 13.28C321.54 9.38666 324.287 8.72 327.647 11.28C329.834 12.9867 331.007 14.9867 331.167 17.28C331.327 20.16 330.447 22.2933 328.527 23.68C327.087 24.64 325.354 25.04 323.327 24.88C319.06 24.56 317.327 21.8933 318.127 16.88C318.234 16.1867 318.394 15.5467 318.607 14.96C318.874 14.3733 319.14 13.8133 319.407 13.28ZM327.887 19.28C329.434 18.8533 329.407 17.84 327.807 16.24C326.634 15.0667 325.22 14.48 323.567 14.48C321.594 14.4267 320.554 15.28 320.447 17.04C320.447 18.2133 320.874 18.96 321.727 19.28C323.594 19.92 325.647 19.92 327.887 19.28ZM328.711 69.68C328.765 69.4667 328.845 69.3333 328.951 69.28C329.218 69.1733 329.618 69.3867 330.151 69.92C332.231 72.0533 333.778 74.9067 334.791 78.48C335.858 82.16 336.231 85.7333 335.911 89.2C335.271 93.8933 333.405 98.2133 330.311 102.16C327.218 106.16 323.165 108.8 318.151 110.08C316.871 110.453 315.591 110.427 314.311 110C311.218 108.933 308.711 108 306.791 107.2C304.818 106.453 303.458 105.84 302.711 105.36C302.498 105.2 302.391 105.04 302.391 104.88C302.391 104.667 302.471 104.48 302.631 104.32C302.791 104.16 303.031 104.133 303.351 104.24C305.218 104.773 306.925 105.12 308.471 105.28C310.018 105.493 311.458 105.52 312.791 105.36C314.125 105.2 315.538 104.8 317.031 104.16C318.578 103.573 320.205 102.72 321.911 101.6C326.978 98.3467 330.685 94.5067 333.031 90.08C333.245 89.76 333.298 89.3333 333.191 88.8C332.391 85.9733 330.311 82.48 326.951 78.32C326.791 78.0533 326.738 77.84 326.791 77.68L328.711 69.68ZM352.847 0.879997C353.807 0.293329 354.287 0.399994 354.287 1.19999L354.207 4C354.207 4.69333 353.94 5.19999 353.407 5.51999C351.434 6.53333 349.514 7.49333 347.647 8.4C345.78 9.25333 343.967 10.08 342.207 10.88C341.194 11.36 340.554 11.52 340.287 11.36C340.02 11.2533 339.887 11.0133 339.887 10.64V8.95999C339.887 8.58666 340.127 8.23999 340.607 7.91999C343.754 6.05333 346.367 4.53333 348.447 3.36C350.474 2.18666 351.94 1.35999 352.847 0.879997ZM349.064 38.4C350.184 35.7867 350.904 35.7333 351.224 38.24L353.064 57.84C355.091 75.4933 354.851 86.6933 352.344 91.44C351.971 92.08 351.678 92.24 351.464 91.92C351.251 91.6533 351.144 91.2 351.144 90.56C351.251 86.08 350.931 81.04 350.184 75.44C350.184 75.2267 349.624 70.16 348.504 60.24L346.744 45.76C346.638 44.6933 346.744 43.7867 347.064 43.04L349.064 38.4ZM356.344 27.04C354.904 27.3067 353.651 27.5467 352.584 27.76C351.571 27.9733 350.771 28.1867 350.184 28.4C349.598 28.6133 348.744 28.96 347.624 29.44C346.504 29.8667 345.118 30.4533 343.464 31.2C342.771 31.52 342.264 31.4133 341.944 30.88C341.304 29.92 342.344 28.6133 345.064 26.96C343.091 26 341.971 24.88 341.704 23.6C341.278 21.36 342.184 18.72 344.424 15.68C346.664 12.64 349.038 11.2267 351.544 11.44C353.144 11.6 353.864 12.5067 353.704 14.16C353.544 15.8133 353.064 17.2 352.264 18.32C351.518 19.3867 350.878 19.52 350.344 18.72C349.758 17.76 348.958 17.2533 347.944 17.2C346.878 17.0933 346.051 17.4133 345.464 18.16C344.824 18.96 344.851 19.6533 345.544 20.24C347.304 21.8933 349.918 22.7733 353.384 22.88C353.651 22.88 353.971 22.8533 354.344 22.8C354.771 22.6933 355.251 22.5867 355.784 22.48C356.371 22.3733 356.851 22.2933 357.224 22.24C357.598 22.1333 357.891 22.08 358.104 22.08C358.584 22.08 358.904 22.2667 359.064 22.64C359.224 22.96 359.251 23.2533 359.144 23.52C358.078 25.7067 357.144 26.88 356.344 27.04ZM389.254 34.4C389.467 34.0267 389.654 33.8667 389.814 33.92C390.08 33.92 390.294 34.48 390.454 35.6C391.414 43.8667 392.054 50.9333 392.374 56.8C392.64 62.3467 392.854 66.8 393.014 70.16C393.227 73.52 393.36 75.7867 393.414 76.96C393.787 81.8667 396.454 84.48 401.414 84.8C402.854 84.9067 403.414 85.8667 403.094 87.68C402.614 90.56 402.054 92 401.414 92C394.427 92 390.694 88.7467 390.214 82.24C390 79.52 389.814 76.8 389.654 74.08C389.547 71.3067 389.44 68.5333 389.334 65.76C389.174 60.2133 388.854 55.7333 388.374 52.32C387.894 48.8533 387.254 44.9333 386.454 40.56C386.294 39.76 386.374 39.0933 386.694 38.56L389.254 34.4ZM419.051 12.04C420.225 11.2933 420.651 11.5333 420.331 12.76L419.611 15.08C419.451 15.6667 418.918 16.2267 418.011 16.76L404.011 24.84C403.158 25.32 402.731 25.1067 402.731 24.2V23C402.731 22.5733 403.158 22.0133 404.011 21.32L419.051 12.04ZM413.775 76.16L416.015 71.2C416.495 70.24 417.002 70.24 417.535 71.2C418.815 73.3867 419.375 76.8 419.215 81.44C419.108 83.7333 418.442 85.7067 417.215 87.36C414.548 90.9333 409.268 92.48 401.375 92C400.415 91.8933 399.695 90.1067 399.215 86.64C398.948 85.0933 399.668 84.48 401.375 84.8C403.135 85.12 405.108 85.1733 407.295 84.96C408.415 84.8533 409.695 84.6133 411.135 84.24C412.628 83.8667 414.282 83.3333 416.095 82.64C415.828 81.7333 415.508 80.9067 415.135 80.16C414.815 79.36 414.442 78.6933 414.015 78.16C413.535 77.5733 413.455 76.9067 413.775 76.16ZM416.255 101.6C416.362 101.44 416.575 101.387 416.895 101.44C417.802 101.813 418.682 102.24 419.535 102.72C420.388 103.2 421.188 103.76 421.935 104.4C422.148 104.613 422.175 104.827 422.015 105.04L418.575 110.56C418.468 110.72 418.255 110.667 417.935 110.4C417.775 110.24 417.348 109.947 416.655 109.52C416.015 109.147 415.082 108.613 413.855 107.92L411.135 112.16C410.975 112.373 410.735 112.347 410.415 112.08C410.202 111.92 409.668 111.573 408.815 111.04C408.015 110.507 406.868 109.787 405.375 108.88C405.162 108.773 405.135 108.64 405.295 108.48L408.815 103.2C408.922 103.04 409.108 102.987 409.375 103.04C410.175 103.307 410.922 103.653 411.615 104.08C412.362 104.507 413.055 104.96 413.695 105.44L416.255 101.6Z" fill="url(#paint0_linear_4_15)"/>
<defs>
<linearGradient id="paint0_linear_4_15" x1="223.695" y1="-81.5" x2="211.053" y2="116.908" gradientUnits="userSpaceOnUse">
<stop stop-color="#FFD700"/>
<stop offset="1" stop-color="#FF9C72" stop-opacity="0.5"/>
</linearGradient>
</defs>
</svg>
