<svg width="368" height="142" viewBox="0 0 368 142" fill="none" xmlns="http://www.w3.org/2000/svg">
<path d="M4.32 89.92C4.58667 88.2133 4.93333 86.5333 5.36 84.88C5.84 83.1733 6.45333 81.5467 7.2 80C8.74667 76.8533 10.4 74.96 12.16 74.32C14.6667 73.36 17.7067 74.4 21.28 77.44C22.24 78.24 23.1467 79.0933 24 80C24.8533 80.9067 25.68 81.8667 26.48 82.88C26.96 83.4667 27.1733 84.0267 27.12 84.56C26.7467 86.8533 26.4267 88.6933 26.16 90.08C25.8933 91.4133 25.7067 92.2133 25.6 92.48C25.3333 93.0667 24.88 93.28 24.24 93.12C15.44 91.04 8.8 92.64 4.32 97.92C3.89333 98.4533 3.76 98.9867 3.92 99.52C5.84 106.56 7.6 114.187 9.2 122.4C11.6 134.773 11.8133 141.067 9.84 141.28C9.2 141.333 8.8 140.64 8.64 139.2C8.42667 136.64 8.02667 133.867 7.44 130.88C6.85333 127.893 6.13333 124.72 5.28 121.36C2.08 109.093 0.72 101.44 1.2 98.4C1.46667 96.3733 1.86667 94.6667 2.4 93.28C2.98667 91.84 3.62667 90.72 4.32 89.92ZM8.48 86.96C9.44 86.5333 10.5067 86.1867 11.68 85.92C12.8533 85.6 14.1067 85.36 15.44 85.2C13.4667 83.5467 12 82.88 11.04 83.2C9.6 83.6267 8.74667 84.88 8.48 86.96ZM58.1719 100.88C56.5185 110.373 51.4785 117.013 43.0519 120.8C41.9852 121.28 40.9452 121.653 39.9319 121.92C38.9185 122.24 37.9585 122.427 37.0519 122.48C35.1319 122.587 31.7185 120.96 26.8119 117.6C26.2252 117.173 26.0385 116.773 26.2519 116.4C26.4652 116.027 26.8385 115.973 27.3719 116.24C31.7985 118.533 37.3719 117.76 44.0919 113.92C49.7985 110.667 53.6919 106.16 55.7719 100.4C55.7719 100.187 55.6919 100.053 55.5319 100C51.5852 99.8933 48.7319 99.36 46.9719 98.4C45.1052 97.3333 44.4119 95.2533 44.8919 92.16C44.9452 91.7867 45.0252 91.4133 45.1319 91.04C45.2385 90.6133 45.3719 90.16 45.5319 89.68C46.6519 86.3733 48.3052 84.1067 50.4919 82.88C52.6785 81.6533 54.5185 82.08 56.0119 84.16C57.5585 86.2933 58.4385 89.1733 58.6519 92.8C58.8652 92.8 59.0519 92.8 59.2119 92.8C59.4252 92.7467 59.6385 92.72 59.8519 92.72C60.6519 92.72 61.1319 93.3333 61.2919 94.56C61.4519 95.7333 61.3719 96.9333 61.0519 98.16C60.7319 99.3867 60.3319 100 59.8519 100H58.3319C58.3319 100.16 58.2785 100.453 58.1719 100.88ZM54.3319 91.92C53.2652 89.68 51.9852 88.5867 50.4919 88.64C49.5852 88.8 48.8652 89.2267 48.3319 89.92C48.0652 90.24 48.1185 90.6133 48.4919 91.04C49.3452 92.16 51.1852 92.6667 54.0119 92.56C54.3319 92.56 54.4385 92.3467 54.3319 91.92ZM69.3619 0.639997C70.1619 0.373331 70.8552 0.61333 71.4419 1.35999C71.8685 1.94666 72.1352 2.90666 72.2419 4.23999C72.2952 5.36 71.7619 7.22666 70.6419 9.84C71.1219 10.1067 71.5219 10.3467 71.8419 10.56C72.1619 10.7733 72.4285 10.9333 72.6419 11.04C73.0685 11.3067 73.1219 11.76 72.8019 12.4L71.8419 14.32C71.4685 14.9067 70.4019 14.6667 68.6419 13.6C67.1485 15.5733 65.7352 17.2 64.4019 18.48C63.0152 19.7067 61.7085 20.6667 60.4819 21.36C59.3085 21.9467 58.5885 22.0267 58.3219 21.6C58.0019 21.12 58.5352 20.4 59.9219 19.44C62.4819 17.6267 64.8285 15.3067 66.9619 12.48C63.7085 10.88 62.6685 8.8 63.8419 6.23999C65.2819 3.14666 67.1219 1.28 69.3619 0.639997ZM68.8019 6C68.3752 5.25333 67.7085 5.12 66.8019 5.6C65.8952 6.08 65.5485 6.45333 65.7619 6.72C66.0285 7.04 66.4019 7.38666 66.8819 7.76C67.4152 8.13333 68.0819 8.53333 68.8819 8.96C69.2552 7.78666 69.2285 6.8 68.8019 6ZM72.23 24.4C72.3367 23.44 72.6567 23.0133 73.19 23.12C73.83 23.1733 74.1233 23.6 74.07 24.4C73.9633 26.64 73.5367 28.56 72.79 30.16C71.9367 31.9733 70.7367 32.9333 69.19 33.04C68.23 33.1467 67.2967 32.64 66.39 31.52C66.1233 32.0533 65.7767 32.5333 65.35 32.96C64.9233 33.3333 64.47 33.6533 63.99 33.92C62.87 34.5067 61.8033 34.56 60.79 34.08C58.3367 33.0667 58.07 30.08 59.99 25.12C60.31 24.3733 60.7633 24.1333 61.35 24.4C61.83 24.6133 61.9633 25.0667 61.75 25.76C61.0567 28.2667 61.3767 29.6267 62.71 29.84C64.31 30 65.59 28.2667 66.55 24.64C66.71 23.8933 67.03 23.6 67.51 23.76C68.0967 23.8667 68.31 24.1867 68.15 24.72C67.7767 26.8533 68.31 27.92 69.75 27.92C71.1367 27.92 71.9633 26.7467 72.23 24.4ZM79.27 92.8C80.23 93.0667 80.7367 93.36 80.79 93.68C80.8967 94.1067 80.8967 94.7467 80.79 95.6C80.4167 98.5333 79.91 100 79.27 100C76.39 100 73.51 98.3733 70.63 95.12C68.1767 98.0533 64.55 99.68 59.75 100C59.2167 100 58.87 99.6 58.71 98.8L58.07 95.44C57.91 94.96 58.0167 94.4 58.39 93.76C58.71 93.2267 59.1633 92.9067 59.75 92.8C65.6167 92.32 69.5633 90.56 71.59 87.52C71.8567 87.0933 72.23 86.88 72.71 86.88C73.19 86.88 73.43 87.12 73.43 87.6C73.43 88.0267 73.4833 88.3467 73.59 88.56C75.35 90.96 77.2433 92.3733 79.27 92.8ZM72.87 105.68C72.9767 105.52 73.19 105.467 73.51 105.52C74.4167 105.893 75.2967 106.32 76.15 106.8C77.0033 107.28 77.8033 107.84 78.55 108.48C78.7633 108.693 78.79 108.907 78.63 109.12L75.19 114.64C75.0833 114.8 74.87 114.747 74.55 114.48C74.39 114.32 73.9633 114.027 73.27 113.6C72.63 113.227 71.6967 112.693 70.47 112L67.75 116.24C67.59 116.453 67.35 116.427 67.03 116.16C66.8167 116 66.2833 115.653 65.43 115.12C64.63 114.587 63.4833 113.867 61.99 112.96C61.7767 112.853 61.75 112.72 61.91 112.56L65.43 107.28C65.5367 107.12 65.7233 107.067 65.99 107.12C66.79 107.387 67.5367 107.733 68.23 108.16C68.9767 108.587 69.67 109.04 70.31 109.52L72.87 105.68ZM91.4888 20.04C92.6621 19.2933 93.0888 19.5333 92.7688 20.76L92.0488 23.08C91.8888 23.6667 91.3554 24.2267 90.4488 24.76L76.4488 32.84C75.5954 33.32 75.1688 33.1067 75.1688 32.2V31C75.1688 30.5733 75.5954 30.0133 76.4488 29.32L91.4888 20.04ZM88.4813 67.28C89.1746 67.28 90.0279 67.7067 91.0412 68.56C95.8413 72.72 98.1079 78 97.8413 84.4C97.6813 87.76 96.8546 90.4267 95.3613 92.4C91.4146 97.4667 86.0546 100 79.2812 100C78.5879 100 78.0812 99.3867 77.7612 98.16C77.6012 97.5733 77.5479 96.96 77.6012 96.32C77.6012 95.68 77.6546 95.0933 77.7612 94.56C77.9746 93.4933 78.4812 92.9067 79.2812 92.8C85.9479 92.32 90.9613 90.4 94.3213 87.04C94.1613 85.3867 93.9213 84.3467 93.6013 83.92C93.2279 83.3333 92.9079 83.0933 92.6413 83.2C92.4279 83.2533 92.2946 83.36 92.2413 83.52C91.3346 85.8667 89.9479 87.2533 88.0813 87.68C82.2146 88.96 79.5213 86.6933 80.0013 80.88C80.2146 78.1067 81.2813 75.12 83.2013 71.92C85.0146 68.8267 86.7746 67.28 88.4813 67.28ZM85.8413 75.92C84.6679 75.9733 83.9479 77.0133 83.6813 79.04C83.6813 79.36 83.7079 79.52 83.7613 79.52C84.8279 79.84 85.9213 79.92 87.0413 79.76C88.1079 79.6 88.8279 79.2533 89.2013 78.72C87.9746 76.7467 86.8546 75.8133 85.8413 75.92ZM90.7213 49.2C90.8279 49.04 91.0413 48.9867 91.3613 49.04C92.2679 49.4133 93.1479 49.84 94.0013 50.32C94.8546 50.8 95.6546 51.36 96.4013 52C96.6146 52.2133 96.6413 52.4267 96.4813 52.64L93.0413 58.16C92.9346 58.32 92.7213 58.2667 92.4013 58C92.2413 57.84 91.8146 57.5733 91.1213 57.2C90.4813 56.7733 89.5479 56.2133 88.3213 55.52L85.6013 59.76C85.4413 59.9733 85.2013 59.9467 84.8813 59.68C84.6679 59.52 84.1346 59.1733 83.2813 58.64C82.4813 58.1067 81.3346 57.3867 79.8413 56.48C79.6279 56.3733 79.6013 56.24 79.7613 56.08L83.2813 50.8C83.3879 50.64 83.5746 50.5867 83.8413 50.64C84.6413 50.9067 85.3879 51.2533 86.0813 51.68C86.8279 52.1067 87.5213 52.56 88.1613 53.04L90.7213 49.2ZM132.394 42.4C132.608 42.0267 132.794 41.8667 132.954 41.92C133.221 41.92 133.434 42.48 133.594 43.6C134.554 51.8667 135.194 58.9333 135.514 64.8C135.781 70.3467 135.994 74.8 136.154 78.16C136.368 81.52 136.501 83.7867 136.554 84.96C136.928 89.8667 139.594 92.48 144.554 92.8C145.994 92.9067 146.554 93.8667 146.234 95.68C145.754 98.56 145.194 100 144.554 100C137.568 100 133.834 96.7467 133.354 90.24C133.141 87.52 132.954 84.8 132.794 82.08C132.688 79.3067 132.581 76.5333 132.474 73.76C132.314 68.2133 131.994 63.7333 131.514 60.32C131.034 56.8533 130.394 52.9333 129.594 48.56C129.434 47.76 129.514 47.0933 129.834 46.56L132.394 42.4ZM162.192 20.04C163.365 19.2933 163.792 19.5333 163.472 20.76L162.752 23.08C162.592 23.6667 162.059 24.2267 161.152 24.76L147.152 32.84C146.299 33.32 145.872 33.1067 145.872 32.2V31C145.872 30.5733 146.299 30.0133 147.152 29.32L162.192 20.04ZM156.916 84.16L159.156 79.2C159.636 78.24 160.142 78.24 160.676 79.2C161.956 81.3867 162.516 84.8 162.356 89.44C162.249 91.7333 161.582 93.7067 160.356 95.36C157.689 98.9333 152.409 100.48 144.516 100C143.556 99.8933 142.836 98.1067 142.356 94.64C142.089 93.0933 142.809 92.48 144.516 92.8C146.276 93.12 148.249 93.1733 150.436 92.96C151.556 92.8533 152.836 92.6133 154.276 92.24C155.769 91.8667 157.422 91.3333 159.236 90.64C158.969 89.7333 158.649 88.9067 158.276 88.16C157.956 87.36 157.582 86.6933 157.156 86.16C156.676 85.5733 156.596 84.9067 156.916 84.16ZM159.396 109.6C159.502 109.44 159.716 109.387 160.036 109.44C160.942 109.813 161.822 110.24 162.676 110.72C163.529 111.2 164.329 111.76 165.076 112.4C165.289 112.613 165.316 112.827 165.156 113.04L161.716 118.56C161.609 118.72 161.396 118.667 161.076 118.4C160.916 118.24 160.489 117.947 159.796 117.52C159.156 117.147 158.222 116.613 156.996 115.92L154.276 120.16C154.116 120.373 153.876 120.347 153.556 120.08C153.342 119.92 152.809 119.573 151.956 119.04C151.156 118.507 150.009 117.787 148.516 116.88C148.302 116.773 148.276 116.64 148.436 116.48L151.956 111.2C152.062 111.04 152.249 110.987 152.516 111.04C153.316 111.307 154.062 111.653 154.756 112.08C155.502 112.507 156.196 112.96 156.836 113.44L159.396 109.6ZM229.318 107.6C227.238 107.067 226.118 106.053 225.958 104.56C225.798 103.227 226.731 101.147 228.758 98.32C229.664 97.04 230.198 96.4267 230.358 96.48C230.464 96.5333 230.411 96.9067 230.198 97.6C229.718 99.04 230.384 100.293 232.198 101.36C233.904 102.373 236.011 103.04 238.517 103.36C243.904 104 247.238 104.56 248.518 105.04C249.798 105.52 250.704 106.373 251.238 107.6C251.504 108.24 251.664 108.88 251.718 109.52C251.824 110.16 251.824 110.827 251.718 111.52C251.558 112.8 251.131 113.973 250.438 115.04C249.104 116.907 245.744 119.12 240.358 121.68C234.971 124.24 228.971 125.867 222.358 126.56C210.784 127.84 203.478 124.56 200.438 116.72C199.424 113.947 199.344 110.213 200.198 105.52C201.051 100.88 203.024 96.1333 206.118 91.28C206.384 90.96 206.678 90.8 206.998 90.8C207.371 90.8 207.638 90.96 207.798 91.28C207.958 91.5467 207.664 92.32 206.918 93.6C203.771 99.2 202.464 103.973 202.998 107.92C203.744 113.04 207.291 116.613 213.638 118.64C215.931 119.28 218.491 119.493 221.318 119.28C225.691 118.907 230.038 118.053 234.358 116.72C238.678 115.44 243.024 113.707 247.398 111.52C247.451 111.52 247.504 111.493 247.558 111.44C247.611 111.333 247.478 111.12 247.158 110.8C246.838 110.48 244.544 110.08 240.278 109.6C235.958 109.12 232.304 108.453 229.318 107.6ZM238.893 0.639997C239.693 0.373331 240.386 0.61333 240.973 1.35999C241.4 1.94666 241.666 2.90666 241.773 4.23999C241.826 5.36 241.293 7.22666 240.173 9.84C240.653 10.1067 241.053 10.3467 241.373 10.56C241.693 10.7733 241.96 10.9333 242.173 11.04C242.6 11.3067 242.653 11.76 242.333 12.4L241.373 14.32C241 14.9067 239.933 14.6667 238.173 13.6C236.68 15.5733 235.266 17.2 233.933 18.48C232.546 19.7067 231.24 20.6667 230.013 21.36C228.84 21.9467 228.12 22.0267 227.853 21.6C227.533 21.12 228.066 20.4 229.453 19.44C232.013 17.6267 234.36 15.3067 236.493 12.48C233.24 10.88 232.2 8.8 233.373 6.23999C234.813 3.14666 236.653 1.28 238.893 0.639997ZM238.333 6C237.906 5.25333 237.24 5.12 236.333 5.6C235.426 6.08 235.08 6.45333 235.293 6.72C235.56 7.04 235.933 7.38666 236.413 7.76C236.946 8.13333 237.613 8.53333 238.413 8.96C238.786 7.78666 238.76 6.8 238.333 6ZM241.761 24.4C241.868 23.44 242.188 23.0133 242.721 23.12C243.361 23.1733 243.655 23.6 243.601 24.4C243.495 26.64 243.068 28.56 242.321 30.16C241.468 31.9733 240.268 32.9333 238.721 33.04C237.761 33.1467 236.828 32.64 235.921 31.52C235.655 32.0533 235.308 32.5333 234.881 32.96C234.455 33.3333 234.001 33.6533 233.521 33.92C232.401 34.5067 231.335 34.56 230.321 34.08C227.868 33.0667 227.601 30.08 229.521 25.12C229.841 24.3733 230.295 24.1333 230.881 24.4C231.361 24.6133 231.495 25.0667 231.281 25.76C230.588 28.2667 230.908 29.6267 232.241 29.84C233.841 30 235.121 28.2667 236.081 24.64C236.241 23.8933 236.561 23.6 237.041 23.76C237.628 23.8667 237.841 24.1867 237.681 24.72C237.308 26.8533 237.841 27.92 239.281 27.92C240.668 27.92 241.495 26.7467 241.761 24.4ZM252.749 92.8C254.349 93.12 254.963 94.0267 254.589 95.52C253.843 98.6133 253.229 100.107 252.749 100C251.309 99.9467 249.869 99.5733 248.429 98.88C247.043 98.24 245.656 96.9067 244.269 94.88C242.883 92.8533 241.576 91.7867 240.349 91.68C239.176 91.6267 237.229 92.3467 234.509 93.84C231.843 95.3333 230.349 96.5867 230.029 97.6C229.123 100.747 228.003 102.96 226.669 104.24C226.136 104.72 225.869 104.747 225.869 104.32C225.656 102.187 226.509 99.5467 228.429 96.4C230.349 93.2533 232.723 90.56 235.549 88.32C238.376 86.0267 240.776 84.8533 242.749 84.8C243.976 84.7467 245.336 85.9733 246.829 88.48C248.269 90.9333 250.243 92.3733 252.749 92.8ZM250.669 127.2C250.776 127.04 250.989 126.987 251.309 127.04C252.216 127.413 253.096 127.84 253.949 128.32C254.803 128.8 255.603 129.36 256.349 130C256.563 130.213 256.589 130.427 256.429 130.64L252.989 136.16C252.883 136.32 252.669 136.267 252.349 136C252.189 135.84 251.763 135.547 251.069 135.12C250.429 134.747 249.496 134.213 248.269 133.52L245.549 137.76C245.389 137.973 245.149 137.947 244.829 137.68C244.616 137.52 244.083 137.173 243.229 136.64C242.429 136.107 241.283 135.387 239.789 134.48C239.576 134.373 239.549 134.24 239.709 134.08L243.229 128.8C243.336 128.64 243.523 128.587 243.789 128.64C244.589 128.907 245.336 129.253 246.029 129.68C246.776 130.107 247.469 130.56 248.109 131.04L250.669 127.2ZM253.121 82.56C253.547 80.8533 254.614 79.1733 256.321 77.52C258.134 75.8133 260.027 74.96 262.001 74.96C264.027 74.96 268.667 76.48 275.921 79.52C277.254 80.0533 278.774 80.56 280.481 81.04C282.187 81.4667 284.054 81.8933 286.081 82.32C290.187 83.12 294.401 83.36 298.721 83.04C299.894 82.9867 300.241 83.4667 299.761 84.48L297.521 89.36C297.201 90 296.641 90.24 295.841 90.08C289.814 89.0667 284.107 89.36 278.721 90.96C272.107 93.1467 266.827 95.2 262.881 97.12C259.041 99.04 255.627 100 252.641 100C252.321 100 252.054 99.7333 251.841 99.2C251.254 97.6 251.121 96.1333 251.441 94.8C251.761 93.5733 252.161 92.9067 252.641 92.8C256.481 92.5333 260.161 91.92 263.681 90.96C267.201 89.9467 270.587 88.6133 273.841 86.96C266.801 82.9067 260.321 81.8133 254.401 83.68C253.974 83.84 253.627 83.7867 253.361 83.52C253.147 83.2533 253.067 82.9333 253.121 82.56ZM334.582 42.4C334.795 42.0267 334.982 41.8667 335.142 41.92C335.409 41.92 335.622 42.48 335.782 43.6C336.742 51.8667 337.382 58.9333 337.702 64.8C337.969 70.3467 338.182 74.8 338.342 78.16C338.555 81.52 338.689 83.7867 338.742 84.96C339.115 89.8667 341.782 92.48 346.742 92.8C348.182 92.9067 348.742 93.8667 348.422 95.68C347.942 98.56 347.382 100 346.742 100C339.755 100 336.022 96.7467 335.542 90.24C335.329 87.52 335.142 84.8 334.982 82.08C334.875 79.3067 334.769 76.5333 334.662 73.76C334.502 68.2133 334.182 63.7333 333.702 60.32C333.222 56.8533 332.582 52.9333 331.782 48.56C331.622 47.76 331.702 47.0933 332.022 46.56L334.582 42.4ZM364.379 20.04C365.553 19.2933 365.979 19.5333 365.659 20.76L364.939 23.08C364.779 23.6667 364.246 24.2267 363.339 24.76L349.339 32.84C348.486 33.32 348.059 33.1067 348.059 32.2V31C348.059 30.5733 348.486 30.0133 349.339 29.32L364.379 20.04ZM359.103 84.16L361.343 79.2C361.823 78.24 362.33 78.24 362.863 79.2C364.143 81.3867 364.703 84.8 364.543 89.44C364.436 91.7333 363.77 93.7067 362.543 95.36C359.876 98.9333 354.596 100.48 346.703 100C345.743 99.8933 345.023 98.1067 344.543 94.64C344.276 93.0933 344.996 92.48 346.703 92.8C348.463 93.12 350.436 93.1733 352.623 92.96C353.743 92.8533 355.023 92.6133 356.463 92.24C357.956 91.8667 359.61 91.3333 361.423 90.64C361.156 89.7333 360.836 88.9067 360.463 88.16C360.143 87.36 359.77 86.6933 359.343 86.16C358.863 85.5733 358.783 84.9067 359.103 84.16ZM361.583 109.6C361.69 109.44 361.903 109.387 362.223 109.44C363.13 109.813 364.01 110.24 364.863 110.72C365.716 111.2 366.516 111.76 367.263 112.4C367.476 112.613 367.503 112.827 367.343 113.04L363.903 118.56C363.796 118.72 363.583 118.667 363.263 118.4C363.103 118.24 362.676 117.947 361.983 117.52C361.343 117.147 360.41 116.613 359.183 115.92L356.463 120.16C356.303 120.373 356.063 120.347 355.743 120.08C355.53 119.92 354.996 119.573 354.143 119.04C353.343 118.507 352.196 117.787 350.703 116.88C350.49 116.773 350.463 116.64 350.623 116.48L354.143 111.2C354.25 111.04 354.436 110.987 354.703 111.04C355.503 111.307 356.25 111.653 356.943 112.08C357.69 112.507 358.383 112.96 359.023 113.44L361.583 109.6Z" fill="url(#paint0_linear_4_17)"/>
<defs>
<linearGradient id="paint0_linear_4_17" x1="194.818" y1="-73.5" x2="180.421" y2="124.667" gradientUnits="userSpaceOnUse">
<stop stop-color="#FFD700"/>
<stop offset="1" stop-color="#FF9C72" stop-opacity="0.5"/>
</linearGradient>
</defs>
</svg>
